<ttFont>
<head>
    <!-- Most of this table will be recalculated by the compiler -->
    <tableVersion value="1.0"/>
    <fontRevision value="2.004"/>
    <checkSumAdjustment value="0x3f5a2332"/>
    <magicNumber value="0x5f0f3cf5"/>
    <flags value="00000000 00000011"/>
    <unitsPerEm value="1000"/>
    <created value="Thu Oct  8 09:59:37 2009"/>
    <modified value="Thu Oct  8 09:59:37 2009"/>
    <xMin value="-449"/>
    <yMin value="-289"/>
    <xMax value="1358"/>
    <yMax value="1125"/>
    <macStyle value="00000000 00000010"/>
    <lowestRecPPEM value="3"/>
    <fontDirectionHint value="2"/>
    <indexToLocFormat value="0"/>
    <glyphDataFormat value="0"/>
  </head>
          <CharString index="0">
            rmoveto
            1 5 1 5 5 vvcurveto
            14 -6 13 -10 9 vhcurveto
            13 -16 -22 4 -27 hhcurveto
            -42 -44 -26 -38 -9 hvcurveto
            -1 -1 rlineto
            -6 vlineto
            -12 9 -8 11 12 13 9 13 3 vhcurveto
            1 3 0 4 0 vvcurveto
            11 -7 6 -9 2 vhcurveto
            16 15 24 11 24 hhcurveto
            16 13 -4 -8 5 hvcurveto
            2 -3 1 -4 -5 vvcurveto
            -6 -1 -7 -3 -12 vhcurveto
            -3 -12 -7 -12 -10 -7 -32 -23 -24 -30 -9 -33 -4 -19 rcurveline
            -1 -2 rlineto
            -4 3 -3 3 -1 vhcurveto
            2 hlineto
            4 3 2 4 1 hvcurveto
            5 19 8 31 30 24 41 21 rlinecurve
            18 9 14 15 4 18 rrcurveto
            endchar
          </CharString>
          <CharString index="1">
            513 48 callgsubr
            70 279 rlineto
            3 11 0 5 0 vvcurveto
            11 -8 13 -18 -32 -7 -39 0 vhcurveto
            -1 -1 rlineto
            47 -19 -34 12 -27 -26 callgsubr
            -174 -22 rmoveto
            -26 -6 -60 -85 -58 hhcurveto
            -53 -2 78 12 50 32 118 16 40 hvcurveto
            62 26 45 51 43 hhcurveto
            60 7 -89 -7 hvcurveto
            -3 -14 rlineto
            return
          </CharString>
          <CharString index="2">
            831 -26 callsubr
            -4 vhcurveto
            -27 -31 -2 -28 hhcurveto
            -59 -29 2 0 hvcurveto
            107 callsubr
            -9 8 -1 7 hvcurveto
            37 -1 20 -11 -30 vvcurveto
            -9 -2 -12 -2 -6 vhcurveto
            -89 -358 rlineto
            -115 -29 -100 -104 -101 hhcurveto
            -57 -50 40 86 23 4 32 6 22 hvcurveto
            100 401 rlineto
            34 9 6 8 62 hhcurveto
            17 9 62 callsubr
            -35 -37 -2 -36 -37 -38 2 -36 -81 callsubr
            -98 -394 rlineto
            -8 -32 0 -19 -15 vvcurveto
            -118 81 -66 90 121 110 125 117 29 vhcurveto
            90 362 16 63 42 6 37 2 rlinecurve
            4 11 1 17 hvcurveto
            return
          </CharString>
          <CharString index="3">
            rmoveto
            5 -4 4 -6 -7 -2 -4 -10 -3 vhcurveto
            -85 -29 -68 -38 -50 hhcurveto
            -54 -31 41 51 hvcurveto
            12 5 21 3 vvcurveto
            5 -4 4 -6 -16 0 -45 -8 -57 31 -60 72 110 62 133 28 vhcurveto
            return
          </CharString>
          <CharString index="4">
            rmoveto
            -107 98 -2 2 -5 0 -5 -2 rlinecurve
            -154 -98 -12 -7 5 -16 12 5 rlinecurve
            141 55 111 -55 11 -5 13 16 -8 7 rlinecurve
            return
          </CharString>
          <CharString index="5">
            rmoveto
            0 2 4 -2 10 vhcurveto
            -15 137 rlineto
            10 -1 -1 14 -19 hhcurveto
            -23 -14 -18 -7 -3 hvcurveto
            -6 -11 4 -12 1 -4 46 -125 rcurveline
            3 -9 1 -1 5 -2 5 1 13 6 4 7 rrcurveto
            -150 hmoveto
            0 2 4 -2 10 vhcurveto
            -15 137 rlineto
            10 -1 -1 14 -19 hhcurveto
            -23 -14 -18 -7 -3 hvcurveto
            -6 -11 4 -12 1 -4 46 -125 rcurveline
            3 -9 1 -1 5 -2 5 1 13 6 4 7 rrcurveto
            endchar
          </CharString>
          <CharString index="6">
            rmoveto
            79 callsubr
            -3 -15 -4 vhcurveto
            -34 -9 -26 -90 -57 hhcurveto
            -11 -12 5 24 26 14 36 18 49 hvcurveto
            59 162 rlineto
            9 25 2 8 18 vvcurveto
            51 -33 27 -39 -92 -33 -148 -5 -9 9 0 5 12 1 3 14 4 vhcurveto
            32 8 26 93 58 hhcurveto
            22 0 -19 -11 -26 -6 -17 -7 -18 hvcurveto
            -80 -217 rlineto
            -8 -22 0 -13 -9 vvcurveto
            -58 39 -21 33 92 32 149 4 vhcurveto
            return
          </CharString>
          <CharString index="7">
            14 callsubr
            145 -85 113 -138 -201 -203 -238 -231 -144 86 -112 138 198 205 232 235 vhcurveto
            -78 39 rmoveto
            -195 -139 -288 -181 -89 -58 82 122 61 23 164 81 115 vhcurveto
            94 67 81 42 64 hhcurveto
            83 68 -66 -131 hvcurveto
            return
          </CharString>
          <CharString index="8">
            860 673 rmoveto
            10 -12 0 0 vhcurveto
            -23 -26 -2 -24 -27 -29 2 -26 hhcurveto
            -6 -11 0 -19 -9 8 -1 3 hvcurveto
            11 -1 18 -3 -18 vvcurveto
            -17 -14 -17 -11 -13 vhcurveto
            -225 -275 -98 308 rlineto
            -1 2 -2 10 0 vvcurveto
            23 41 1 10 9 11 53 callsubr
            vhcurveto
            -34 -36 -2 -34 -32 -35 2 -31 hhcurveto
            -7 -11 64 callgsubr
            10 45 11 -6 -25 8 hvcurveto
            107 -335 rlineto
            1 -4 3 -7 -4 vvcurveto
            -5 -51 -200 -1 -4 vhcurveto
            -9 -30 -8 -4 -62 -1 rrcurveto
            -13 -37 callsubr
            -16 -55 0 7 10 8 12 47 7 28 hvcurveto
            22 87 -13 -50 22 88 5 17 0 2 8 9 238 290 rcurveline
            51 62 33 16 45 4 rrcurveto
            10 1 8 1 17 vvcurveto
            return
          </CharString>
          <CharString index="9">
            831 -26 callsubr
            -5 vhcurveto
            -35 -37 -2 -36 -37 -38 2 -36 -81 callsubr
            -63 -253 rlineto
            -275 hlineto
            60 242 rlineto
            34 9 6 8 62 hhcurveto
            17 9 62 callsubr
            -35 -37 -2 -36 -37 -38 2 -36 hhcurveto
            -8 -11 8 callgsubr
            71 280 127 callgsubr
            -67 -269 -63 callsubr
            138 551 rlineto
            34 9 6 8 62 hhcurveto
            17 9 0 18 hvcurveto
            return
          </CharString>
          <CharString index="10">
            548 141 rmoveto
            2 vlineto
            4 -2 3 -4 1 vhcurveto
            -2 1 rlineto
            -12 hlineto
            -4 128 callsubr
            hvcurveto
            -89 -22 -17 -47 -32 hhcurveto
            -19 -8 13 26 16 3 20 5 22 hvcurveto
            65 259 54 11 49 39 13 51 rlinecurve
            1 6 1 6 6 vvcurveto
            24 -14 20 -24 vhcurveto
            -34 -1 -26 -30 -29 vvcurveto
            -21 15 -17 25 vhcurveto
            3 3 1 3 hhcurveto
            -15 -18 -23 -13 -24 -7 2 5 rcurveline
            3 1 3 3 vvcurveto
            15 -12 8 -14 -15 -16 -10 -18 -4 vhcurveto
            -73 -293 -2 -7 -1 -7 -1 -7 rlinecurve
            -51 -26 -33 -28 -46 hhcurveto
            -24 -17 16 23 -7 hvcurveto
            -3 12 -1 13 13 vvcurveto
            25 4 26 8 33 vhcurveto
            10 38 15 43 25 69 rrcurveto
            6 14 2 15 14 vvcurveto
            45 -28 33 -44 -62 -42 -69 -83 -21 vhcurveto
            -2 vlineto
            -4 2 56 callgsubr
            hlineto
            12 hlineto
            3 3 2 4 1 hvcurveto
            81 21 29 55 47 hhcurveto
            15 7 -9 -19 -17 -6 -24 -10 -26 hvcurveto
            -25 -70 -16 -44 -9 -38 rrcurveto
            -7 -26 -3 -24 -22 vvcurveto
            -23 4 -21 9 -18 vhcurveto
            -33 17 36 -17 42 hhcurveto
            45 35 22 39 29 hvcurveto
            -37 9 28 -24 41 hhcurveto
            56 20 57 94 24 hvcurveto
            return
          </CharString>
          <CharString index="11">
            497 279 rmoveto
            104 -64 58 -75 -122 -126 -141 -148 -108 67 -54 72 122 126 143 146 vhcurveto
            -64 38 rmoveto
            -43 -24 -113 -32 -55 vhcurveto
            -71 -41 -51 -25 -35 hhcurveto
            -42 -34 36 68 46 24 110 33 57 hvcurveto
            64 37 51 30 37 hhcurveto
            51 26 -47 -57 hvcurveto
            return
          </CharString>
          <CharString index="12">
            rmoveto
            8 -10 1 0 -5 -7 -6 -6 -6 vhcurveto
            hintmask 00100100
            -87 callgsubr
            hintmask 00001000
            -3 3 -6 6 4 2 0 13 13 vhcurveto
            hintmask 00100100
            -92 callsubr
          </CharString>
          <CharString index="13">
            rmoveto
            15 -12 12 -15 -14 -14 -14 0 vhcurveto
            -143 -147 rlineto
            -9 -8 0 -2 -3 vvcurveto
            -8 9 -7 5 4 6 3 3 3 vhcurveto
            160 126 rlineto
            7 5 13 10 15 vvcurveto
            endchar
          </CharString>
          <CharString index="14">
            hhcurveto
            -23 -26 -10 -43 -21 hvcurveto
            -19 -37 -13 -62 0 vvcurveto
            -8 5 -2 9 11 1 1 23 6 vhcurveto
            59 15 19 59 34 hhcurveto
            26 0 -29 -12 -19 -4 -22 -4 -14 hvcurveto
            -73 -292 rlineto
            -4 -14 0 -1 -4 vvcurveto
            -12 8 -12 18 return
          </CharString>
          <CharString index="15">
            17 19 38 33 25 hhcurveto
            13 7 -6 -24 15 hvcurveto
            -12 8 14 -22 26 hhcurveto
            45 79 78 9 hvcurveto
            endchar
          </CharString>
          <CharString index="16">
            564 469 rmoveto
            2 5 0 6 5 vvcurveto
            24 -14 19 -24 vhcurveto
            -35 -1 -25 -30 -29 vvcurveto
            -21 14 -17 26 vhcurveto
            3 3 1 3 hhcurveto
            -16 -19 -21 -13 -23 -3 rrcurveto
            28 -24 -35 17 -41 hhcurveto
            -50 -53 -26 -40 -43 hvcurveto
            -47 -43 -31 -56 -15 -59 rrcurveto
            -6 -22 -3 -23 -21 vvcurveto
            -35 8 -31 15 -28 vhcurveto
            -41 24 42 -26 51 hhcurveto
            50 53 25 40 43 hvcurveto
            46 44 32 56 15 58 rrcurveto
            6 23 3 22 22 vvcurveto
            34 -8 32 -15 27 vhcurveto
            -1 1 42 10 38 40 11 45 rlinecurve
            -147 -252 rmoveto
            -16 -63 -17 -45 -33 -40 rrcurveto
            -36 -29 -38 -24 -35 hhcurveto
            -33 -25 23 34 -11 hvcurveto
            -4 14 -3 16 17 vvcurveto
            29 6 31 10 40 vhcurveto
            16 63 17 46 33 40 rrcurveto
            35 29 38 24 34 hhcurveto
            34 25 -22 -34 11 hvcurveto
            4 -15 2 -16 -17 vvcurveto
            -29 -5 -31 -10 -40 vhcurveto
            return
          </CharString>
          <CharString index="17">
            758 339 rmoveto
            9 37 5 36 35 vvcurveto
            54 -12 52 -25 44 vhcurveto
            -6 11 -7 10 -8 10 41 11 36 38 11 45 rrcurveto
            2 5 0 6 5 vvcurveto
            23 -14 19 -24 -35 -25 -30 -29 -21 14 -17 26 3 3 0 1 3 vhcurveto
            -16 -19 -22 -14 -23 -2 rrcurveto
            34 -37 -49 21 -58 hhcurveto
            -83 -86 -43 -64 -69 hvcurveto
            -78 -72 -51 -92 -23 -94 rrcurveto
            -9 -35 -5 -35 -34 vvcurveto
            -55 12 -51 26 -44 vhcurveto
            -64 37 65 -42 83 hhcurveto
            83 86 42 64 69 hvcurveto
            77 71 51 91 23 92 rrcurveto
            -82 16 rmoveto
            -21 -87 -35 -89 -64 -75 rrcurveto
            -57 -49 -66 -45 -66 hhcurveto
            -66 -45 45 57 -20 hvcurveto
            -11 32 -5 34 36 vvcurveto
            48 9 51 12 50 vhcurveto
            21 82 33 82 62 68 rrcurveto
            55 49 66 40 65 hhcurveto
            64 46 -40 -55 22 hvcurveto
            13 -31 5 -34 -36 vvcurveto
            -42 -8 -45 -11 -44 vhcurveto
            return
          </CharString>
          <CharString index="18">
            273 100 callsubr
            -8 0 -5 -4 -7 0 -6 -2 vhcurveto
            -1 -3 -4 -15 -3 -9 rrcurveto
            -49 -13 -17 -60 -34 -20 callsubr
            142 567 -15 callsubr
            -4 -2 -10 -1 -4 vhcurveto
            -126 -504 rlineto
            -2 -9 -3 -11 -15 70 callgsubr
            34 20 23 28 14 vhcurveto
            18 33 14 65 3 vvcurveto
            return
          </CharString>
          <CharString index="19">
            -57 callgsubr
            35 37 2 36 36 39 -28 callsubr
            -15 -56 0 8 9 return
          </CharString>
          <CharString index="20">
            79 callsubr
            -1 -23 -6 vhcurveto
            -83 -20 -19 -35 -28 hhcurveto
            -22 -5 21 19 return
          </CharString>
          <CharString index="21">
            1103 673 rmoveto
            7 -5 3 -6 vhcurveto
            -3 -7 -2 -63 -28 -30 2 -28 hhcurveto
            -6 -12 0 -18 -10 7 -1 6 hvcurveto
            8 -1 40 -3 -33 vvcurveto
            -12 -6 -10 -4 -8 vhcurveto
            -259 -480 -21 501 -1 20 -1 25 68 1 rlinecurve
            9 10 0 19 40 callsubr
            hvcurveto
            -33 -35 -2 -33 hhcurveto
            -69 -24 2 0 hvcurveto
            -6 -11 -50 callgsubr
            8 0 13 37 5 -7 -17 2 hvcurveto
            2 -68 rlineto
            -3 -4 -8 -1 -2 vhcurveto
            -240 -442 -20 500 -1 22 -1 24 66 1 rlinecurve
            10 10 62 callsubr
            -32 -35 -2 -33 hhcurveto
            -67 -27 2 0 hvcurveto
            -5 -12 106 callsubr
            13 44 0 -8 -24 1 hvcurveto
            26 -621 rlineto
            -18 1 0 -4 15 hhcurveto
            13 2 3 15 8 hvcurveto
            279 513 21 -509 rlineto
            -19 1 0 -3 15 hhcurveto
            7 7 0 16 9 hvcurveto
            312 579 40 74 37 4 22 2 rlinecurve
            7 1 9 1 17 vvcurveto
            return
          </CharString>
          <CharString index="22">
            -33 callgsubr
            55 0 -8 -10 -3 0 -2 -4 -14 hvcurveto
            -135 -543 -86 callgsubr
            return
          </CharString>
          <CharString index="23">
            53 -23 49 -77 -62 -47 -36 -45 -33 vhcurveto
            10 callsubr
            23 10 18 17 4 vhcurveto
            61 246 rlineto
            22 6 54 128 96 hhcurveto
            46 0 -50 -17 return
          </CharString>
          <CharString index="24">
            627 129 rmoveto
            15 41 42 147 60 vvcurveto
            51 -20 13 -18 -19 -25 -19 -23 -9 2 -5 9 -10 vhcurveto
            23 -27 3 -37 -16 vvcurveto
            -39 -32 -107 -15 -37 vhcurveto
            -54 -21 -32 -48 -51 hhcurveto
            -51 -14 44 40 28 7 27 13 52 hvcurveto
            33 132 rlineto
            6 25 11 44 5 37 callsubr
            -55 -222 rlineto
            -7 -30 -1 -24 -8 vvcurveto
            -14 -31 -84 -54 -58 -11 53 34 44 17 59 33 92 vhcurveto
            15 41 4 10 20 vvcurveto
            40 -24 38 -49 -91 -34 -147 -6 -9 9 0 5 12 1 3 14 4 vhcurveto
            30 8 26 95 58 hhcurveto
            12 11 -5 -24 -25 -10 -26 -21 -58 hvcurveto
            -33 -90 -11 -47 -36 vvcurveto
            -98 74 -22 51 26 34 6 60 36 vhcurveto
            -60 22 61 -6 27 hhcurveto
            76 39 67 72 27 hvcurveto
            return
          </CharString>
          <CharString index="25">
            rmoveto
            16 callgsubr
            vhcurveto
            -274 hlineto
            -17 -9 0 -17 3 callsubr
            274 hlineto
            18 8 40 callgsubr
          </CharString>
          <CharString index="26">
            hhcurveto
            -8 -11 -80 callgsubr
            return
          </CharString>
          <CharString index="27">
            rmoveto
            7 -5 18 -23 -19 -8 -14 -10 -6 vhcurveto
            -83 -137 rlineto
            -7 -10 0 -4 0 vvcurveto
            -7 10 -6 5 -1 vhcurveto
            6 2 1 1 8 9 108 125 rcurveline
            3 4 10 12 11 vvcurveto
            150 hmoveto
            7 -5 18 -23 -19 -8 -14 -10 -6 vhcurveto
            -83 -137 rlineto
            -7 -10 0 -4 0 vvcurveto
            -7 10 -6 5 -1 vhcurveto
            6 2 1 1 8 9 108 125 rcurveline
            3 4 10 12 11 vvcurveto
            endchar
          </CharString>
          <CharString index="28">
            -76 callsubr
            -46 27 -42 55 98 50 148 5 vhcurveto
            return
          </CharString>
          <CharString index="29">
            4 -79 callgsubr
            return
          </CharString>
          <CharString index="30">
            -103 callsubr
            -2 137 rmoveto
            -2 -8 -12 -8 -5 -1 -5 -1 -5 2 -3 2 -130 97 rcurveline
            -7 3 -11 8 6 15 rrcurveto
            18 5 18 13 18 hhcurveto
            13 9 -9 0 hvcurveto
            106 -120 7 -6 0 -2 -2 -3 rlinecurve
            endchar
          </CharString>
          <CharString index="31">
            348 143 rmoveto
            9 -9 0 -4 -11 -1 -2 -11 -5 vhcurveto
            -31 -12 -39 -98 -65 hhcurveto
            -15 -14 7 33 15 4 23 4 15 hvcurveto
            75 299 rlineto
            83 36 callgsubr
            -7 0 -17 hvcurveto
            -79 hlineto
            40 157 rlineto
            1 2 1 11 0 vvcurveto
            9 -7 15 -19 -25 -9 -22 -15 -4 vhcurveto
            -39 -157 rlineto
            -85 hlineto
            -18 6 callsubr
            hvcurveto
            81 -5 callgsubr
            return
          </CharString>
          <CharString index="32">
            rmoveto
            -94 144 -3 4 -7 0 -5 -4 rlinecurve
            -166 -144 -10 -10 9 -14 12 8 rlinecurve
            149 99 97 -99 8 -8 18 14 -8 10 rlinecurve
            return
          </CharString>
          <CharString index="33">
            rmoveto
            13 7 -5 16 -13 -5 -140 -55 rcurveline
            -112 55 -10 5 -13 -16 7 -7 rlinecurve
            107 -98 2 -2 5 0 5 2 rlinecurve
            endchar
          </CharString>
          <CharString index="34">
            734 438 rmoveto
            61 244 rlineto
            1 3 1 10 0 vvcurveto
            9 -9 0 0 vhcurveto
            0 -6 0 -7 -9 vhcurveto
            -65 -80 rlineto
            59 -32 -51 30 -65 hhcurveto
            -202 -212 -224 -237 -170 110 -94 127 -56 callgsubr
            return
          </CharString>
          <CharString index="35">
            523 143 rmoveto
            -87 callsubr
            13 5 28 3 13 hvcurveto
            142 567 -15 callsubr
            -5 -2 -8 -1 -4 vhcurveto
            -59 -238 rlineto
            32 -14 -25 29 -43 -26 callgsubr
            -173 -20 rmoveto
            -27 -7 -60 -86 -58 hhcurveto
            -53 -2 78 12 50 32 118 16 40 hvcurveto
            62 26 45 51 43 hhcurveto
            61 6 -93 -3 hvcurveto
            -3 -14 rlineto
            return
          </CharString>
          <CharString index="36">
            215 -58 rmoveto
            94 376 rlineto
            0 5 20 15 vvcurveto
            46 -28 42 -54 -98 -51 -147 -6 -8 8 -1 6 11 1 1 18 7 vhcurveto
            64 24 40 59 50 hhcurveto
            25 3 -19 -22 -12 -1 -15 -6 -23 hvcurveto
            -97 -389 rlineto
            -22 -5 -30 -103 -69 hhcurveto
            -3 -22 0 11 -18 hvcurveto
            34 11 0 29 3 vvcurveto
            13 -9 16 -23 -22 -23 -19 -29 -42 50 -13 35 83 65 76 70 18 vhcurveto
            return
          </CharString>
          <CharString index="37">
            rmoveto
            -16 -14 -67 -59 -17 -28 4 33 0 2 83 72 25 19 -10 -27 vhcurveto
            33 -2 rmoveto
            37 -25 30 -45 -57 -57 -54 -55 -36 25 -31 46 55 57 52 57 1 vhcurveto
            return
          </CharString>
          <CharString index="38">
            rmoveto
            8 -8 0 -5 -9 -1 -1 -17 -13 vhcurveto
            -40 -26 -43 -59 -47 hhcurveto
            -22 -4 13 37 -3 hvcurveto
            35 -3 -2 32 -41 hhcurveto
            -52 -48 -31 -35 -35 hvcurveto
            25 57 rlineto
            9 -7 0 -7 -9 -2 0 -15 -7 vhcurveto
            -94 -205 rlineto
            -5 -11 82 callgsubr
            -8 8 0 5 9 1 1 15 9 vhcurveto
            117 60 81 45 56 hhcurveto
            18 6 -7 -27 14 hvcurveto
            -20 9 10 -19 29 hhcurveto
            21 19 9 4 8 hvcurveto
            -73 -117 -31 -59 -26 -53 rrcurveto
            -86 -171 -28 -123 -9 vvcurveto
            -11 7 -19 26 36 7 27 46 11 vhcurveto
            34 133 76 236 136 208 rrcurveto
            16 23 0 2 3 vvcurveto
            endchar
          </CharString>
          <CharString index="39">
            rmoveto
            71 -51 61 -89 -116 -100 -105 -85 -47 27 -16 26 38 44 36 49 20 -11 29 -10 -4 -7 -4 -6 0 0 -4 4 -6 vhcurveto
            7 -14 1 -12 -4 vvcurveto
            -36 -34 -28 -27 -22 -5 21 18 77 89 97 98 41 44 -22 -68 -14 -9 -192 -166 vhcurveto
            -22 hlineto
            -17 -8 -50 callgsubr
            6 0 18 hvcurveto
            27 hlineto
            14 65 0 -85 -18 -11 -91 -41 -57 hvcurveto
            -48 -36 -54 -22 -39 hhcurveto
            -53 -48 34 74 hvcurveto
            52 0 44 0 25 -22 5 -9 -49 0 -63 -13 -69 47 -57 82 124 123 106 118 35 -11 61 -69 30 hvcurveto
            109 38 54 96 70 vvcurveto
            endchar
          </CharString>
          <CharString index="40">
            -103 callsubr
            endchar
          </CharString>
          <CharString index="41">
            hlineto
            20 1 1 15 6 hvcurveto
            88 218 rlineto
            4 9 47 callgsubr
            return
          </CharString>
          <CharString index="42">
            14 callgsubr
            -51 -27 45 59 46 24 110 33 57 hvcurveto
            60 34 49 34 43 hhcurveto
            6 53 0 -48 14 hvcurveto
            -25 -1 -22 -19 -24 vvcurveto
            -25 22 -5 9 10 37 6 52 47 -42 37 -61 -122 -126 -141 -148 return
          </CharString>
          <CharString index="43">
            759 440 rmoveto
            148 -82 95 -122 vhcurveto
            -298 -2 callgsubr
            294 hlineto
            185 189 212 228 hvcurveto
            -75 37 rmoveto
            -58 -28 -161 -63 -96 vhcurveto
            -77 -51 -80 -56 -93 hhcurveto
            -103 hlineto
            -29 -1 1 11 8 2 8 2 7 hvcurveto
            138 552 rlineto
            38 9 6 0 34 hhcurveto
            98 hlineto
            109 50 -80 -97 hvcurveto
            return
          </CharString>
          <CharString index="44">
            -56 callsubr
            1 5 1 2 hvcurveto
            return
          </CharString>
          <CharString index="45">
            682 105 rmoveto
            7 -8 8 -6 -4 -1 -1 -8 -6 vhcurveto
            -73 -49 -62 -28 -45 hhcurveto
            -60 -21 66 56 4 0 35 14 61 hvcurveto
            45 hlineto
            40 184 0 126 45 -37 38 -59 -55 -51 -31 -24 -28 hvcurveto
            2 7 5 19 7 vvcurveto
            14 -8 8 -14 vhcurveto
            0 -24 0 -6 -25 vhcurveto
            -336 -129 0 -177 -11 vvcurveto
            -66 59 -43 71 55 40 45 23 20 vhcurveto
            -3 -14 -7 -29 -4 vvcurveto
            -9 7 -12 16 10 14 5 21 6 vhcurveto
            12 47 rlineto
            -31 14 33 -42 61 hhcurveto
            107 75 102 13 hvcurveto
            -13 254 rmoveto
            -98 -136 -9 -65 vhcurveto
            -28 hlineto
            119 30 82 50 54 hhcurveto
            40 23 -27 -35 hvcurveto
            -309 -215 rmoveto
            -25 -6 -62 -109 -67 hhcurveto
            -28 -38 15 49 87 82 154 180 76 hvcurveto
            return
          </CharString>
          <CharString index="46">
            rmoveto
            57 -31 60 -72 -110 -62 -133 -28 -5 4 -4 6 7 2 4 10 3 vhcurveto
            85 29 68 38 50 hhcurveto
            54 31 -41 -51 hvcurveto
            -12 -5 -21 -3 vvcurveto
            -5 4 -4 6 16 0 45 8 vhcurveto
            endchar
          </CharString>
          <CharString index="47">
            rmoveto
            30 0 145 -125 -129 -125 -145 -147 -39 23 -115 111 60 46 39 53 33 vhcurveto
            -268 -62 -117 -37 -48 hhcurveto
            -25 -37 5 31 -14 hvcurveto
            35 3 12 26 17 vvcurveto
            19 -14 10 -17 -7 -40 -2 -59 -67 70 -10 35 87 75 68 68 52 vhcurveto
            97 129 24 174 72 vvcurveto
            -59 60 rmoveto
            -73 -44 -238 -137 -72 0 79 10 46 34 128 14 30 vhcurveto
            56 26 47 53 64 hhcurveto
            63 5 -75 -16 hvcurveto
            endchar
          </CharString>
          <CharString index="48">
            5 12 -14 5 -7 -10 rrcurveto
            -36 -24 -33 -20 -32 hhcurveto
            -36 -46 23 46 10 hvcurveto
            return
          </CharString>
          <CharString index="49">
            -47 callsubr
            -27 -90 -56 hhcurveto
            -15 -8 7 23 24 11 31 8 20 hvcurveto
            26 73 34 93 58 vvcurveto
            53 -23 49 -77 return
          </CharString>
          <CharString index="50">
            492 283 rmoveto
            41 -12 46 -28 32 vhcurveto
            80 111 rlineto
            8 11 0 4 0 vvcurveto
            6 -6 3 -3 -6 -2 -3 -8 -6 vhcurveto
            -80 -110 rlineto
            19 -24 -27 8 -28 hhcurveto
            -120 -123 -148 -147 -52 17 -40 23 -27 hvcurveto
            -81 -112 rlineto
            -7 -9 0 -4 0 vvcurveto
            -9 9 -1 0 4 1 1 22 17 vhcurveto
            72 98 rlineto
            -18 23 27 -9 29 hhcurveto
            121 122 150 145 hvcurveto
            -74 107 rmoveto
            -239 -328 rlineto
            -10 25 0 32 0 vvcurveto
            102 69 202 119 35 20 -24 -9 6 vhcurveto
            19 -79 rmoveto
            -111 -73 -192 -114 -24 -21 10 23 -16 vhcurveto
            239 328 rlineto
            9 -24 0 -21 -13 vvcurveto
            return
          </CharString>
          <CharString index="51">
            -88 callsubr
            8 return
          </CharString>
          <CharString index="52">
            28 -21 10 -19 -26 -9 -10 -7 -7 vhcurveto
            17 95 61 62 30 25 rrcurveto
            15 14 1 1 3 vvcurveto
            4 -4 6 -5 -17 -120 -117 -114 -23 6 -36 39 32 27 28 31 vhcurveto
            return
          </CharString>
          <CharString index="53">
            hstemhm
            98 62 hintmask 11010000
            -106 callsubr
            hintmask 00100000
            return
          </CharString>
          <CharString index="54">
            rlineto
            23 6 54 127 -49 callsubr
            return
          </CharString>
          <CharString index="55">
            rmoveto
            26 -18 10 -18 -85 callgsubr
            vhcurveto
            160 hmoveto
            26 -18 10 -18 -85 callgsubr
            vhcurveto
            endchar
          </CharString>
          <CharString index="56">
            vvcurveto
            65 callsubr
            vhcurveto
            9 -1 40 -4 -34 vvcurveto
            -62 -100 0 -27 -25 -2 0 -1 -6 vhcurveto
            -4 -1 -2 -4 -5 vvcurveto
            -8 6 -2 6 81 133 0 83 return
          </CharString>
          <CharString index="57">
            23 callgsubr
            hstem
            685 19 rmoveto
            10 -9 0 -10 -54 -4 10 20 -7 vhcurveto
            -120 322 167 192 66 75 50 4 36 2 rlinecurve
            8 1 3 9 9 vvcurveto
            9 -9 1 -3 vhcurveto
            -26 -30 -2 -27 hhcurveto
            -92 2 rlineto
            -6 -12 0 -18 -10 6 0 7 -1 hvcurveto
            21 -3 8 -13 -12 vvcurveto
            -16 -12 -16 -10 -11 vhcurveto
            -155 -176 -81 218 10 19 19 8 22 2 rlinecurve
            8 1 9 1 17 vvcurveto
            40 callsubr
            vhcurveto
            -34 -36 -2 -34 -32 -35 2 -31 hhcurveto
            -7 -11 -51 callgsubr
            17 50 4 -12 -19 7 hvcurveto
            105 -281 -211 -240 -59 -67 -55 -4 -22 -2 rlinecurve
            -10 -1 -9 0 -17 vvcurveto
            -10 7 -1 5 vhcurveto
            26 30 2 27 30 33 -2 29 hhcurveto
            7 89 callsubr
            -10 1 0 hvcurveto
            -8 1 -24 3 25 vvcurveto
            16 15 17 7 8 vhcurveto
            190 217 92 -245 rlineto
            1 -2 2 -7 -3 vvcurveto
            -5 -9 -20 -44 -5 vhcurveto
            -10 -1 -3 -9 -9 vvcurveto
            19 callgsubr
            vhcurveto
            33 36 2 34 32 35 -2 32 hhcurveto
            6 11 0 19 hvcurveto
            endchar
          </CharString>
          <CharString index="58">
            96 hhcurveto
            46 0 -50 -17 -62 -44 -120 -17 -49 hvcurveto
            -9 -25 -4 -9 -21 vvcurveto
            -48 31 -30 41 93 32 149 4 vhcurveto
            return
          </CharString>
          <CharString index="59">
            -73 callgsubr
            endchar
          </CharString>
          <CharString index="60">
            143 rmoveto
            79 callsubr
            -3 -15 -4 vhcurveto
            -34 -9 return
          </CharString>
          <CharString index="61">
            rmoveto
            82 -44 71 -82 -69 -51 -44 -4 -5 vhcurveto
            51 208 rlineto
            -15 35 29 0 15 hhcurveto
            108 83 78 14 7 -5 1 -3 hvcurveto
            0 -3 0 -9 -3 vhcurveto
            -20 -45 -42 -8 -39 hhcurveto
            -39 -40 9 18 -32 hvcurveto
            2 -5 -4 2 -3 hhcurveto
            -6 -2 -3 -13 -3 hvcurveto
            -76 -303 92 callgsubr
            return
          </CharString>
          <CharString index="62">
            700 0 55 649 -20 hstem
            181 82 399 82 vstem
            669 142 rmoveto
            7 callsubr
            -10 -1 -2 -8 -5 vhcurveto
            -4 -9 -5 -10 -6 -14 rrcurveto
            -52 -24 -3 -2 -55 hhcurveto
            -69 hlineto
            20 45 31 44 66 77 rrcurveto
            76 89 77 91 106 vvcurveto
            123 -99 74 -122 -167 -175 -138 -173 -57 17 -47 24 -72 vhcurveto
            17 -47 15 -48 -49 vvcurveto
            -17 -1 -1 -18 vhcurveto
            -56 hlineto
            -4 -34 0 5 -9 hvcurveto
            -4 3 0 26 17 vvcurveto
            30 vlineto
            8 1 0 8 -14 hhcurveto
            -13 -1 -5 -14 -1 hvcurveto
            -2 -27 -2 -65 -29 vvcurveto
            -12 7 0 18 vhcurveto
            121 hlineto
            19 1 1 6 3 hvcurveto
            5 10 9 53 46 vvcurveto
            38 -4 39 -4 38 vhcurveto
            -8 72 0 22 22 vvcurveto
            238 161 99 98 73 67 -48 -104 -102 -59 -97 -57 -96 vhcurveto
            -42 -69 -10 -20 -17 -32 rrcurveto
            -30 -62 -9 -41 119 callgsubr
            121 hlineto
            20 1 1 14 7 hvcurveto
            53 115 rlineto
            endchar
          </CharString>
          <CharString index="63">
            272 rmoveto
            39 -22 115 -112 -67 -44 -49 -43 -28 vhcurveto
            287 69 136 20 33 hhcurveto
            30 29 -9 -31 8 hvcurveto
            -49 -2 0 -43 0 vvcurveto
            -19 14 -10 17 5 42 0 62 62 -53 14 -41 -58 -92 -31 -131 -91 vhcurveto
            -86 -123 -19 -172 -52 vvcurveto
            -65 18 -112 112 return
          </CharString>
          <CharString index="64">
            8 callsubr
            74 73 144 -20 hstem
            110 62 vstem
            418 559 rmoveto
            21 -16 8 -14 -17 -12 -12 0 vhcurveto
            13 62 33 45 35 30 rrcurveto
            9 9 1 1 2 vvcurveto
            3 -3 4 -4 -13 -88 -90 -86 -16 4 -25 28 24 20 21 23 vhcurveto
            -53 -619 -20 callgsubr
          </CharString>
          <CharString index="65">
            rlineto
            -63 -33 callgsubr
            hvcurveto
            59 hlineto
            -71 -367 -12 -60 -2 -9 -16 -61 rlinecurve
            -42 -11 -12 -47 -3 callsubr
            -23 -23 -18 -33 -39 37 -23 41 81 47 126 161 31 vhcurveto
            62 319 rlineto
            return
          </CharString>
          <CharString index="66">
            vvcurveto
            -11 9 0 5 12 0 3 18 3 vhcurveto
            return
          </CharString>
          <CharString index="67">
            -8 callgsubr
            175 hmoveto
            -55 callsubr
            endchar
          </CharString>
          <CharString index="68">
            -115 rmoveto
            -59 callsubr
            return
          </CharString>
          <CharString index="69">
            hhcurveto
            8 11 0 19 return
          </CharString>
          <CharString index="70">
            -19 callgsubr
            34 38 2 35 36 38 -28 callsubr
            return
          </CharString>
          <CharString index="71">
            7 rmoveto
            2 vlineto
            -2 6 -6 8 -7 1 rrcurveto
            -10 -11 -4 -1 -10 hvcurveto
            -2 -13 -12 -1 -13 hhcurveto
            -7 -7 0 1 -7 hvcurveto
            43 169 rlineto
            2 9 4 12 11 vvcurveto
            14 -9 10 -16 -22 -10 -16 -19 -5 vhcurveto
            -15 -60 -17 -60 -13 -60 rrcurveto
            0 -52 15 -34 4 vhcurveto
            -29 4 -45 0 0 vvcurveto
            121 92 108 118 38 151 rrcurveto
            1 6 2 7 6 vvcurveto
            15 -1 -13 6 -12 hhcurveto
            -28 -6 -23 -19 -5 hvcurveto
            -34 -133 -88 -125 -107 -81 -13 -9 -13 -11 -15 -7 rrcurveto
            -11 -6 -22 -5 -14 vvcurveto
            -7 8 -9 7 9 9 8 4 8 vhcurveto
            8 18 31 0 25 hhcurveto
            47 43 -12 -12 45 hvcurveto
            -35 -141 -2 -8 -2 -8 -1 -8 rlinecurve
            -18 12 -8 13 32 4 30 24 6 vhcurveto
            32 126 rlineto
            23 hlineto
            29 60 6 14 hvcurveto
            endchar
          </CharString>
          <CharString index="72">
            rmoveto
            -73 callgsubr
            return
          </CharString>
          <CharString index="73">
            738 0 29 299 28 298 29 callgsubr
            -66 -267 rlineto
            -89 hlineto
            -8 -8 -7 -7 -1 hvcurveto
            81 callsubr
            89 hlineto
            -64 -256 -30 callgsubr
            294 hlineto
            185 189 212 228 hvcurveto
            -75 37 rmoveto
            -58 -28 -161 -63 -96 vhcurveto
            -77 -51 -80 -56 -93 hhcurveto
            -103 hlineto
            -29 -1 1 11 8 2 8 2 7 hvcurveto
            66 264 rlineto
            145 hlineto
            8 8 87 callgsubr
            7 2 -5 7 -8 hhcurveto
            -145 hlineto
            65 260 84 callgsubr
          </CharString>
          <CharString index="74">
            365 -30 callsubr
            return
          </CharString>
          <CharString index="75">
            6 callgsubr
            hintmask 11011000
            -96 callsubr
            hintmask 00100000
            return
          </CharString>
          <CharString index="76">
            48 2 1 43 0 vvcurveto
            15 -11 14 -20 -7 -40 -2 -58 -51 39 -33 51 104 87 106 95 24 vhcurveto
            return
          </CharString>
          <CharString index="77">
            609 rmoveto
            26 -18 10 -18 -85 callgsubr
            vhcurveto
            160 hmoveto
            26 -18 10 -18 -85 callgsubr
            vhcurveto
            return
          </CharString>
          <CharString index="78">
            rmoveto
            -59 callsubr
            6 104 callsubr
            8 6 9 6 9 6 rrcurveto
            -2 7 6 -1 7 hhcurveto
            92 32 149 4 79 callsubr
            -3 -15 -4 hvcurveto
            -34 -9 -26 -90 -57 hhcurveto
            -11 -12 5 24 26 14 36 18 49 hvcurveto
            59 162 rlineto
            9 25 2 8 18 vvcurveto
            51 -33 27 -39 -92 -33 -148 -5 -9 9 0 5 12 1 3 14 4 vhcurveto
            32 8 26 93 58 hhcurveto
            22 0 -19 -11 -26 -6 -17 -7 -18 hvcurveto
            -80 -217 rlineto
            -8 -22 0 -13 -9 vvcurveto
            -33 12 -20 17 -12 vhcurveto
            -50 -33 -49 -44 -10 -48 rrcurveto
            -38 callgsubr
            return
          </CharString>
          <CharString index="79">
            -2 35 -38 callsubr
            10 -8 0 return
          </CharString>
          <CharString index="80">
            663 0 29 289 24 312 29 hstem
            635 81 vstem
            716 537 rmoveto
            83 -66 63 -107 vhcurveto
            -286 hlineto
            -18 -9 8 callgsubr
            65 257 rlineto
            153 hlineto
            125 132 101 118 hvcurveto
            -81 24 rmoveto
            -18 -9 -94 -51 -56 vhcurveto
            -3 -4 -44 -48 -91 hhcurveto
            -126 hlineto
            68 274 rlineto
            38 9 7 0 33 hhcurveto
            87 hlineto
            82 39 -33 -60 hvcurveto
            endchar
          </CharString>
          <CharString index="81">
            27 callsubr
            -9 0 return
          </CharString>
          <CharString index="82">
            1 0 2 -1 1 vhcurveto
            -41 67 -24 78 -5 85 rrcurveto
            4 -4 3 -4 vhcurveto
            -4 hlineto
            -4 -4 -3 -4 hvcurveto
            -3 -82 10 -78 23 -73 -59 -72 -49 -78 -38 -82 rrcurveto
            -1 -1 0 -1 -1 vvcurveto
            -4 4 -4 4 vhcurveto
            4 hlineto
            3 3 2 2 1 hvcurveto
            48 85 63 79 76 68 rrcurveto
            1 1 1 2 3 vvcurveto
            return
          </CharString>
          <CharString index="83">
            -34 callgsubr
            -20 return
          </CharString>
          <CharString index="84">
            -21 451 -20 return
          </CharString>
          <CharString index="85">
            -303 -6 callsubr
            return
          </CharString>
          <CharString index="86">
            -18 -43 callgsubr
            return
          </CharString>
          <CharString index="87">
            hhcurveto
            -22 -5 21 19 13 5 28 3 13 hvcurveto
            return
          </CharString>
          <CharString index="88">
            497 279 rmoveto
            104 -64 58 -75 -122 -126 -141 -148 -89 46 -52 56 -16 vhcurveto
            -46 -31 -41 -41 -10 -44 rrcurveto
            -38 callgsubr
            -59 callsubr
            7 28 21 23 25 19 8 5 7 5 8 5 rrcurveto
            5 hlineto
            122 126 143 146 hvcurveto
            -64 38 rmoveto
            -43 -24 -113 -32 -55 vhcurveto
            -71 -41 -51 -25 -35 hhcurveto
            -42 -34 36 68 46 24 110 33 57 hvcurveto
            64 37 51 30 37 hhcurveto
            51 26 -47 -57 hvcurveto
            return
          </CharString>
          <CharString index="89">
            14 callsubr
            145 -85 113 -138 -201 -203 -238 -231 -130 70 -104 116 -19 vhcurveto
            -39 -29 -32 -36 -8 -38 rrcurveto
            -38 callgsubr
            -59 callsubr
            6 104 callsubr
            6 4 rcurveline
            5 hlineto
            198 205 232 235 hvcurveto
            -78 39 rmoveto
            -195 -139 -288 -181 -89 -58 82 122 61 23 164 81 115 vhcurveto
            94 67 81 42 64 hhcurveto
            83 68 -66 -131 hvcurveto
            return
          </CharString>
          <CharString index="90">
            663 0 29 310 56 callsubr
            return
          </CharString>
          <CharString index="91">
            rmoveto
            10 2 -6 8 -10 hhcurveto
            -6 -7 -3 -5 -4 hvcurveto
            -561 -644 -2 -2 -2 -4 -1 -3 rlinecurve
            -10 -2 6 -8 10 hhcurveto
            6 return
          </CharString>
          <CharString index="92">
            rlineto
            1 6 2 -78 callsubr
            return
          </CharString>
          <CharString index="93">
            225 rmoveto
            16 65 10 67 -27 52 rrcurveto
            43 -21 -49 19 -53 hhcurveto
            -54 -58 -19 -43 -43 hvcurveto
            -52 -52 -24 -67 -17 -65 -16 -65 -9 -67 26 -52 rrcurveto
            -43 22 48 -19 54 hhcurveto
            53 58 19 43 43 hvcurveto
            53 52 24 67 16 65 rrcurveto
            -72 hmoveto
            -14 -58 -18 -59 -39 -52 rrcurveto
            -33 -25 -37 -24 -37 hhcurveto
            -37 -26 24 33 -8 hvcurveto
            -13 52 12 59 14 58 15 58 17 59 39 52 rrcurveto
            33 25 38 24 37 hhcurveto
            37 25 -24 -33 9 hvcurveto
            13 -52 -12 -59 -15 -58 rrcurveto
            endchar
          </CharString>
          <CharString index="94">
            18 rmoveto
            10 -10 1 -8 vhcurveto
            -29 hlineto
            -26 -30 2 20 hvcurveto
            1 11 4 13 3 11 87 348 rcurveline
            14 3 6 23 -14 hhcurveto
            -11 -6 -8 -4 -8 hvcurveto
            -22 -39 -52 -8 -45 hhcurveto
            -11 -10 -6 -13 hvcurveto
            -11 1 11 1 11 hhcurveto
            34 30 6 7 30 hvcurveto
            -81 -323 rlineto
            -57 -14 -20 -4 -49 hhcurveto
            -30 hlineto
            -11 -5 -4 -9 -2 hvcurveto
            -1 -3 0 -2 1 -3 rrcurveto
            -6 2 6 -2 6 65 -3 4 66 hhcurveto
            54 42 -2 -2 17 hvcurveto
            17 18 -2 20 hvcurveto
            endchar
          </CharString>
          <CharString index="95">
            rlineto
            -31 -8 -7 -6 -38 hhcurveto
            -11 -10 0 -19 -8 7 -2 5 hvcurveto
            26 29 2 27 30 32 -2 29 hhcurveto
            45 callsubr
            11 -6 0 -18 -22 -26 0 15 9 1 7 47 184 hvcurveto
            -25 10 25 -35 47 hhcurveto
            109 115 154 145 hvcurveto
            -117 -181 rmoveto
            -70 -35 -41 -28 -31 hhcurveto
            -62 -6 95 0 3 1 3 2 8 hvcurveto
            47 189 rlineto
            31 8 61 82 55 hhcurveto
            36 19 -37 -53 -56 -34 -125 -20 -42 hvcurveto
            endchar
          </CharString>
          <CharString index="96">
            789 369 316 rmoveto
            7 -5 0 -12 vhcurveto
            -6 hlineto
            -51 -1 5 7 0 0 5 2 9 hvcurveto
            86 341 rlineto
            2 1 4 2 vvcurveto
            3 -3 3 -5 -3 -1 0 -7 -6 vhcurveto
            -28 -35 -39 -30 -52 -4 rrcurveto
            -8 -2 -6 0 -10 vvcurveto
            -5 1 4 -1 6 hhcurveto
            20 29 7 18 30 hvcurveto
            -72 -286 rlineto
            -21 -5 -6 -5 -54 hhcurveto
            -6 hlineto
            -13 -7 0 -12 1 hvcurveto
            -6 6 0 5 vhcurveto
            91 2 93 -2 rlineto
            6 8 0 11 hvcurveto
            return
          </CharString>
          <CharString index="97">
            450 -10 20 169 20 222 20 hstem
            149 34 242 63 vstem
            488 268 rmoveto
            101 -52 72 -85 -124 -82 -101 -14 -7 8 -8 6 3 1 1 9 8 vhcurveto
            72 53 75 28 51 hhcurveto
            66 9 -79 -32 -44 -7 -28 -10 -39 hvcurveto
            -36 hlineto
            -35 -188 0 -126 -45 37 -38 59 104 139 102 176 hvcurveto
            -86 -89 rmoveto
            -159 -40 -98 -10 -18 hhcurveto
            -40 -23 28 34 107 166 0 32 hvcurveto
            endchar
          </CharString>
          <CharString index="98">
            -2 callsubr
            -586 403 rmoveto
            hintmask 1010111100000000
            -123 -83 -140 -64 -35 -11 40 40 70 51 213 89 37 16 -48 -52 vhcurveto
            286 -403 82 callsubr
            hintmask 0100000010000000
            48 21 39 49 37 hhcurveto
            54 0 -96 -4 hvcurveto
            endchar
          </CharString>
          <CharString index="99">
            330 532 rmoveto
            26 1 -19 10 -18 hhcurveto
            -85 callgsubr
            hvcurveto
            190 hmoveto
            26 1 -19 10 -18 hhcurveto
            -85 callgsubr
            hvcurveto
            return
          </CharString>
          <CharString index="100">
            10 -8 0 -15 -56 0 8 9 return
          </CharString>
          <CharString index="101">
            113 rmoveto
            26 1 -19 10 -18 hhcurveto
            -85 callgsubr
            hvcurveto
            190 hmoveto
            26 1 -19 10 -18 hhcurveto
            -85 callgsubr
            hvcurveto
            return
          </CharString>
          <CharString index="102">
            -116 -81 -147 -67 -40 -6 53 27 50 27 97 16 39 vhcurveto
            return
          </CharString>
          <CharString index="103">
            450 326 -109 rmoveto
            43 -48 9 -12 2 vhcurveto
            4 14 6 29 4 14 rrcurveto
            6 -1 -8 0 -16 hhcurveto
            -11 hlineto
            -21 -1 -1 -5 -2 hvcurveto
            -3 -8 -12 -51 32 callgsubr
            vhcurveto
            endchar
          </CharString>
          <CharString index="104">
            -36 hhcurveto
            -4 -25 1 18 -13 hvcurveto
            37 7 4 30 8 vvcurveto
            19 -14 10 -17 return
          </CharString>
          <CharString index="105">
            -5 callsubr
            48 21 39 49 37 hhcurveto
            54 0 -96 -4 hvcurveto
            return
          </CharString>
          <CharString index="106">
            160 rmoveto
            32 70 48 172 95 vvcurveto
            28 0 140 -127 -237 -63 -448 -72 -59 16 -107 113 81 78 57 124 59 vhcurveto
            -59 17 rmoveto
            -43 -15 -44 -135 -96 hhcurveto
            -43 -31 36 62 79 74 308 43 76 hvcurveto
            62 36 48 23 34 hhcurveto
            27 49 -14 -83 -93 -76 -259 -6 -19 hvcurveto
            endchar
          </CharString>
          <CharString index="107">
            -259 -21 144 73 return
          </CharString>
          <CharString index="108">
            rlineto
            2 7 1 3 17 callgsubr
            -7 -1 -5 vhcurveto
            return
          </CharString>
          <CharString index="109">
            475 -204 20 51 73 50 36 callsubr
            return
          </CharString>
          <CharString index="110">
            10 callgsubr
            hvcurveto
            return
          </CharString>
          <CharString index="111">
            29 callsubr
            37 40 2 38 41 43 -2 40 hhcurveto
            18 callgsubr
            return
          </CharString>
          <CharString index="112">
            rmoveto
            -10 callgsubr
            return
          </CharString>
          <CharString index="113">
            -43 callgsubr
            8 0 16 return
          </CharString>
          <CharString index="114">
            10 -10 0 -3 return
          </CharString>
          <CharString index="115">
            450 -204 19 185 19 403 19 return
          </CharString>
          <CharString index="116">
            hstemhm
            112 callgsubr
            return
          </CharString>
          <CharString index="117">
            45 -3 -31 36 -46 -93 callsubr
            return
          </CharString>
          <CharString index="118">
            -121 -173 rmoveto
            -11 -6 -42 -82 -77 hhcurveto
            -52 -20 47 47 88 49 218 130 return
          </CharString>
          <CharString index="119">
            20 1 29 303 20 302 29 return
          </CharString>
          <CharString index="120">
            74 231 20 83 97 hstem
            82 32 104 25 109 32 vstem
            412 460 rmoveto
            27 -21 13 -19 -30 -29 -27 -30 -28 20 -12 20 30 29 28 29 vhcurveto
            21 -420 rmoveto
            19 -14 10 -17 -24 -21 -21 -24 -29 29 0 6 vhcurveto
            return
          </CharString>
          <CharString index="121">
            773 446 rmoveto
            return
          </CharString>
          <CharString index="122">
            -20 hstem
            19 callsubr
            return
          </CharString>
          <CharString index="123">
            rmoveto
            19 -16 0 -16 vhcurveto
            -243 hlineto
            62 250 rlineto
            1 6 2 4 3 vvcurveto
            9 -7 10 -12 -13 -5 -11 -14 -3 vhcurveto
            -64 -257 102 callgsubr
            244 hlineto
            -61 -244 return
          </CharString>
          <CharString index="124">
            hlineto
            -18 -9 -80 callgsubr
            return
          </CharString>
          <CharString index="125">
            -38 callsubr
            hvcurveto
            return
          </CharString>
          <CharString index="126">
            554 678 -104 callsubr
            return
          </CharString>
          <CharString index="127">
            168 367 -104 callsubr
            return
          </CharString>
          <CharString index="128">
            16 -1 -13 9 -14 hhcurveto
            hintmask 11000000
            -6 -1 -20 -4 -9 -22 -10 -16 rlinecurve
            -53 -88 rlineto
            -7 -12 -18 -19 -13 vvcurveto
            -8 8 -6 8 vhcurveto
            1 hlineto
            10 2 14 22 11 12 64 75 rcurveline
            13 15 22 19 19 vvcurveto
            return
          </CharString>
          <CharString index="129">
            377 0 29 625 29 return
          </CharString>
          <CharString index="130">
            636 -35 callsubr
            return
          </CharString>
          <CharString index="131">
            727 -21 90 callgsubr
            return
          </CharString>
          <CharString index="132">
            rlineto
            -35 -30 -17 -42 -33 vvcurveto
            -42 25 -27 32 67 42 74 21 9 -7 0 -6 -12 0 -2 -9 -3 vhcurveto
            -56 -19 -40 -17 -20 hhcurveto
            -22 -5 24 12 12 7 25 11 15 hvcurveto
            return
          </CharString>
          <CharString index="133">
            0 18 11 -7 0 return
          </CharString>
          <CharString index="134">
            672 rmoveto
            11 return
          </CharString>
          <CharString index="135">
            -58 callsubr
            -62 return
          </CharString>
          <CharString index="136">
            -85 callsubr
            10 0 4 hvcurveto
            return
          </CharString>
          <CharString index="137">
            hstemhm
            31 callgsubr
            return
          </CharString>
          <CharString index="138">
            143 rmoveto
            -87 callsubr
            18 4 18 4 17 hvcurveto
            79 319 rlineto
            9 -6 0 -16 vhcurveto
            return
          </CharString>
          <CharString index="139">
            757 -21 29 234 29 404 29 return
          </CharString>
          <CharString index="140">
            hstemhm
            153 57 -33 52 0 52 return
          </CharString>
          <CharString index="141">
            rlineto
            2 6 1 -78 callsubr
            -4 -2 -10 -1 -4 vhcurveto
            return
          </CharString>
          <CharString index="142">
            hstemhm
            34 callgsubr
            return
          </CharString>
          <CharString index="143">
            20 411 20 return
          </CharString>
          <CharString index="144">
            vvcurveto
            15 -12 9 -13 -28 -7 -25 -14 -4 vhcurveto
            return
          </CharString>
          <CharString index="145" raw="1">
            f40ada0a 0b  
          </CharString>
          <CharString index="146">
            97 callgsubr
            hstem
            return
          </CharString>
          <CharString index="147">
            10 -10 0 -4 return
          </CharString>
          <CharString index="148">
            -7 callsubr
            8 1 5 1 2 return
          </CharString>
          <CharString index="149">
            450 11 -21 309 75 67 -20 return
          </CharString>
          <CharString index="150">
            28 callgsubr
            16 vhcurveto
            return
          </CharString>
          <CharString index="151">
            72 0 -77 -13 -38 -29 -126 -25 -53 hvcurveto
            endchar
          </CharString>
          <CharString index="152">
            6 12 0 18 return
          </CharString>
          <CharString index="153">
            11 -21 431 20 87 return
          </CharString>
          <CharString index="154">
            4 48 callsubr
            return
          </CharString>
          <CharString index="155">
            rmoveto
            -2 callsubr
            return
          </CharString>
          <CharString index="156">
            rmoveto
            16 callgsubr
            vhcurveto
            -148 hlineto
            -17 -9 0 -17 3 callsubr
            148 hlineto
            18 8 40 callgsubr
          </CharString>
          <CharString index="157">
            300 -183 -21 645 -20 return
          </CharString>
          <CharString index="158">
            hlineto
            -145 -296 rlineto
            -7 -12 0 -2 -3 vvcurveto
            -9 8 -10 11 11 5 9 9 4 vhcurveto
            154 314 rlineto
            return
          </CharString>
          <CharString index="159">
            29 669 27 hstemhm
            68 callgsubr
            return
          </CharString>
          <CharString index="160">
            105 callgsubr
            -6 return
          </CharString>
          <CharString index="161">
            rmoveto
            19 -18 0 -13 vhcurveto
            -535 58 callgsubr
            535 hlineto
            12 19 0 18 hvcurveto
            return
          </CharString>
          <CharString index="162">
            72 callsubr
            hstemhm
            hintmask 00110000
            return
          </CharString>
          <CharString index="163">
            29 284 29 return
          </CharString>
          <CharString index="164">
            28 75 27 88 20 72 66 26 57 vstem
            return
          </CharString>
          <CharString index="165">
            -8 -2 5 -6 8 hhcurveto
            return
          </CharString>
          <CharString index="166">
            hstem
            580 266 rmoveto
            88 -68 27 -50 -82 -92 -80 -91 -65 48 -50 70 80 94 74 97 vhcurveto
            return
          </CharString>
          <CharString index="167">
            rlineto
            -5 vlineto
            -6 2 -7 7 vhcurveto
            1 hlineto
            9 1 2 return
          </CharString>
          <CharString index="168">
            -20 9 callgsubr
            return
          </CharString>
          <CharString index="169">
            105 callgsubr
            -5 hvcurveto
            return
          </CharString>
          <CharString index="170">
            600 0 31 623 29 return
          </CharString>
          <CharString index="171">
            hhcurveto
            107 callsubr
            return
          </CharString>
          <CharString index="172">
            -9 8 -1 4 return
          </CharString>
          <CharString index="173">
            49 rmoveto
            12 -10 16 -17 vhcurveto
            hintmask 11000000
            -5 -4 0 -1 -5 hvcurveto
            -34 -3 -47 -22 -4 hvcurveto
            return
          </CharString>
          <CharString index="174">
            -20 21 -20 hstemhm
            hintmask 00100000
            return
          </CharString>
          <CharString index="175">
            8 2 -5 6 -8 hhcurveto
            return
          </CharString>
          <CharString index="176">
            511 71 40 82 return
          </CharString>
          <CharString index="177">
            hlineto
            -3 -3 0 -1 -2 hvcurveto
            -14 -4 -2 -37 0 vvcurveto
            -2 vlineto
            -8 9 -1 6 vhcurveto
            return
          </CharString>
          <CharString index="178">
            -34 0 20 -21 hvcurveto
            38 8 0 33 3 vvcurveto
            19 -14 10 -17 -25 -21 -21 -29 return
          </CharString>
          <CharString index="179">
            78 callgsubr
            625 29 return
          </CharString>
          <CharString index="180">
            -20 30 callsubr
            return
          </CharString>
          <CharString index="181">
            81 callgsubr
            hstem
            return
          </CharString>
          <CharString index="182">
            403 97 193 -20 hstem
            return
          </CharString>
          <CharString index="183">
            89 callgsubr
            hstemhm
            return
          </CharString>
          <CharString index="184">
            46 callsubr
            -20 45 122 callgsubr
            return
          </CharString>
          <CharString index="185">
            24 callsubr
            51 return
          </CharString>
          <CharString index="186">
            9 -9 0 -4 -12 -1 return
          </CharString>
          <CharString index="187">
            393 hlineto
            20 1 1 return
          </CharString>
          <CharString index="188">
            -8 -2 4 -6 8 hhcurveto
            return
          </CharString>
          <CharString index="189">
            rmoveto
            -5 callsubr
            return
          </CharString>
          <CharString index="190">
            11 -1 19 -4 18 -5 rrcurveto
            -6 17 27 -8 21 hhcurveto
            35 9 28 5 return
          </CharString>
          <CharString index="191">
            rmoveto
            -75 hlineto
            231 926 rlineto
            75 hlineto
            -222 -886 rlineto
            endchar
          </CharString>
          <CharString index="192">
            863 0 29 285 29 311 29 return
          </CharString>
          <CharString index="193">
            376 52 22 57 return
          </CharString>
          <CharString index="194">
            -173 -21 180 29 -14 29 7 29 599 -20 hstemhm
            hintmask 00100000
            return
          </CharString>
          <CharString index="195">
            hlineto
            -4 -3 -3 -3 -2 hvcurveto
            -6 -12 rlineto
            -5 -3 3 -5 5 hhcurveto
            return
          </CharString>
          <CharString index="196">
            11 0 19 9 return
          </CharString>
          <CharString index="197">
            vvcurveto
            -19 14 -10 17 25 21 21 29 return
          </CharString>
          <CharString index="198">
            700 -21 29 667 29 return
          </CharString>
          <CharString index="199">
            0 callsubr
            42 return
          </CharString>
          <CharString index="200">
            -21 549 20 53 64 hstem
            return
          </CharString>
          <CharString index="201">
            -19 0 -18 -19 18 0 return
          </CharString>
          <CharString index="202">
            74 78 183 49 return
          </CharString>
          <CharString index="203">
            -8 -6 -8 -2 hvcurveto
            return
          </CharString>
          <CharString index="204">
            -6 hvcurveto
            -20 -5 13 -17 20 hhcurveto
            21 20 17 20 5 hvcurveto
            return
          </CharString>
          <CharString index="205">
            48 193 28 16 48 194 27 31 48 194 27 return
          </CharString>
          <CharString index="206">
            10 0 18 11 return
          </CharString>
          <CharString index="207">
            142 rmoveto
            10 return
          </CharString>
          <CharString index="208">
            hlineto
            -7 96 callsubr
            -7 -2 5 -7 7 hhcurveto
            return
          </CharString>
          <CharString index="209">
            -20 64 -44 -21 60 21 192 20 179 20 hstemhm
            return
          </CharString>
          <CharString index="210">
            hvcurveto
            -41 2 35 -34 60 hhcurveto
            89 85 63 71 -3 hvcurveto
            return
          </CharString>
          <CharString index="211">
            28 21 23 26 19 return
          </CharString>
          <CharString index="212">
            523 143 rmoveto
            return
          </CharString>
          <CharString index="213">
            0 -18 -11 7 0 return
          </CharString>
          <CharString index="214">
            -7 -11 0 -19 return
          </CharString>
          <CharString index="215">
            7 2 -5 7 -7 hhcurveto
            -8 -8 -7 -7 -2 hvcurveto
            return
          </CharString>
          <CharString index="216">
            115 callgsubr
            hstemhm
            return
          </CharString>
          <CharString index="217">
            87 97 callgsubr
            hstemhm
            return
          </CharString>
          <CharString index="218">
            20 145 69 31 -20 return
          </CharString>
          <CharString index="219">
            0 29 625 29 hstemhm
            return
          </CharString>
          <CharString index="220">
            27 120 20 145 27 -27 66 hintmask 11111101
            return
          </CharString>
          <CharString index="221">
            686 -20 hstem
            116 59 311 57 vstem
            return
          </CharString>
          <CharString index="222">
            33 177 -21 callgsubr
            return
          </CharString>
          <CharString index="223">
            727 -211 47 164 29 205 29 return
          </CharString>
          <CharString index="224">
            500 -211 47 154 20 431 -20 return
          </CharString>
          <CharString index="225">
            377 -211 47 164 29 625 29 return
          </CharString>
          <CharString index="226">
            550 -21 29 669 27 return
          </CharString>
          <CharString index="227">
            -11 -6 0 -12 -6 return
          </CharString>
          <CharString index="228">
            -3 -13 -1 -2 return
          </CharString>
          <CharString index="229">
            39 158 rlineto
            5 1 -2 3 -5 hhcurveto
            return
          </CharString>
          <CharString index="230">
            -8 -2 hvcurveto
            -31 -10 -28 -37 -44 hhcurveto
            -22 return
          </CharString>
          <CharString index="231">
            325 11 75 callgsubr
            return
          </CharString>
          <CharString index="232">
            -21 callgsubr
            98 62 return
          </CharString>
          <CharString index="233">
            rmoveto
            16 -4 25 -28 -24 -20 -21 -23 vhcurveto
            return
          </CharString>
          <CharString index="234">
            112 128 return
          </CharString>
          <CharString index="235">
            -3 -3 -4 -1 return
          </CharString>
          <CharString index="236">
            29 620 29 return
          </CharString>
        <CharString name=".notdef">
          280 endchar
        </CharString>
        <CharString name="A">
          -24 callsubr
          hstem
          -106 callgsubr
          endchar
        </CharString>
        <CharString name="AE">
          85 callsubr
          hstem
          -77 callgsubr
          endchar
        </CharString>
        <CharString name="AE.dup">
          85 callsubr
          hstem
          -77 callgsubr
          endchar
        </CharString>
        <CharString name="AEacute">
          85 callsubr
          82 76 callsubr
          hintmask 11100000
          -77 callgsubr
          hintmask 00011000
          232 260 -104 callgsubr
        </CharString>
        <CharString name="Aacute">
          -24 callsubr
          71 76 callsubr
          hintmask 11100000
          -106 callgsubr
          hintmask 00011000
          227 274 -104 callgsubr
        </CharString>
        <CharString name="Abreve">
          -24 callsubr
          50 33 137 -20 hstemhm
          hintmask 11100000
          -106 callgsubr
          hintmask 00011000
          20 callgsubr
          endchar
        </CharString>
        <CharString name="Abreveacute">
          -24 callsubr
          50 33 314 -20 hstemhm
          hintmask 11100000
          -106 callgsubr
          hintmask 00011000
          20 callgsubr
          5 155 -104 callgsubr
        </CharString>
        <CharString name="Abrevedotbelow">
          -24 callsubr
          50 33 137 -20 hstemhm
          -106 callgsubr
          20 callgsubr
          -349 -1048 -97 callgsubr
          endchar
        </CharString>
        <CharString name="Abrevegrave">
          -24 callsubr
          50 33 137 -20 hstemhm
          hintmask 11100000
          -106 callgsubr
          hintmask 00011000
          20 callgsubr
          -22 46 rmoveto
          -2 -8 -12 -8 -5 -1 -5 -1 -5 2 -3 2 -130 97 rcurveline
          -7 3 -11 8 6 15 rrcurveto
          18 5 18 13 18 hhcurveto
          13 9 -9 0 hvcurveto
          106 -120 7 -6 0 -2 -2 -3 rlinecurve
          endchar
        </CharString>
        <CharString name="Abrevehookabove">
          -24 callsubr
          50 33 348 -20 hstemhm
          hintmask 11100000
          -106 callgsubr
          hintmask 00011000
          20 callgsubr
          -8 152 -107 callsubr
        </CharString>
        <CharString name="Abrevetilde">
          -24 callsubr
          50 33 177 122 callgsubr
          -106 callgsubr
          hintmask 00010100
          235 309 -16 callgsubr
          hintmask 00001001
          -87 callgsubr
          hintmask 00000010
          -3 3 -6 6 4 2 0 13 13 vhcurveto
          hintmask 00001001
          -92 callsubr
        </CharString>
        <CharString name="Acaron">
          -24 callsubr
          hstemhm
          -106 callgsubr
          219 238 -74 callsubr
        </CharString>
        <CharString name="Acircumflex">
          -24 callsubr
          hstemhm
          -106 callgsubr
          200 157 -67 callsubr
        </CharString>
        <CharString name="Acircumflexacute">
          -24 callsubr
          336 -20 -25 callgsubr
          200 157 -103 callsubr
          25 246 -104 callgsubr
        </CharString>
        <CharString name="Acircumflexdotbelow">
          -24 callsubr
          hstemhm
          -106 callgsubr
          200 157 -103 callsubr
          -314 -896 -97 callgsubr
          endchar
        </CharString>
        <CharString name="Acircumflexgrave">
          -24 callsubr
          hstemhm
          -106 callgsubr
          200 157 -77 callsubr
        </CharString>
        <CharString name="Acircumflexhookabove">
          -24 callsubr
          370 -20 -25 callgsubr
          200 157 -103 callsubr
          99 243 -107 callsubr
        </CharString>
        <CharString name="Acircumflextilde">
          -24 callsubr
          199 122 callgsubr
          -106 callgsubr
          hintmask 00001000
          200 157 -103 callsubr
          68 227 rmoveto
          8 -10 1 0 -5 -7 -6 -6 -6 vhcurveto
          hintmask 00010010
          -87 callgsubr
          hintmask 00000100
          -3 3 -6 6 4 2 0 13 13 vhcurveto
          hintmask 00010010
          -92 callsubr
        </CharString>
        <CharString name="Adblgrave">
          -24 callsubr
          71 97 callgsubr
          hstemhm
          hintmask 11100000
          -106 callgsubr
          hintmask 00011000
          152 162 -102 callsubr
        </CharString>
        <CharString name="Adieresis">
          -24 callsubr
          40 87 -25 callgsubr
          18 189 -70 callgsubr
        </CharString>
        <CharString name="Adotbelow">
          -24 callsubr
          hstemhm
          -106 callgsubr
          -114 -739 -97 callgsubr
          endchar
        </CharString>
        <CharString name="Agrave">
          -24 callsubr
          71 76 callsubr
          hintmask 11100000
          -106 callgsubr
          hintmask 00011000
          132 165 -76 callgsubr
        </CharString>
        <CharString name="Ahookabove">
          -24 callsubr
          82 129 callgsubr
          hstemhm
          hintmask 11100000
          -106 callgsubr
          hintmask 00011000
          187 302 -107 callsubr
        </CharString>
        <CharString name="Alpha">
          -24 callsubr
          hstem
          -106 callgsubr
          endchar
        </CharString>
        <CharString name="Amacron">
          -24 callsubr
          60 28 -25 callgsubr
          229 176 -82 callsubr
        </CharString>
        <CharString name="Aogonek">
          116 callsubr
          hstem
          56 188 vstem
          -37 callgsubr
          endchar
        </CharString>
        <CharString name="Aogonekacute">
          116 callsubr
          502 76 callsubr
          56 188 hintmask 11100100
          -37 callgsubr
          hintmask 00011000
          227 274 -104 callgsubr
        </CharString>
        <CharString name="Aring">
          -34 callgsubr
          99 callgsubr
          hstemhm
          472 100 callgsubr
          hintmask 11100000
          -106 callgsubr
          hintmask 00111100
          134 229 -70 callsubr
          endchar
        </CharString>
        <CharString name="Aringacute">
          -34 callgsubr
          99 callgsubr
          177 -20 hstemhm
          472 100 callgsubr
          hintmask 11100000
          -106 callgsubr
          hintmask 00111110
          134 229 -70 callsubr
          67 213 -104 callgsubr
        </CharString>
        <CharString name="Atilde">
          -24 callsubr
          40 122 callgsubr
          -106 callgsubr
          hintmask 00001000
          229 225 rmoveto
          8 -10 1 0 -5 -7 -6 -6 -6 vhcurveto
          hintmask 00010010
          -87 callgsubr
          hintmask 00000100
          -3 3 -6 6 4 2 0 13 13 vhcurveto
          hintmask 00010010
          -92 callsubr
        </CharString>
        <CharString name="B">
          -31 callgsubr
        </CharString>
        <CharString name="Beta">
          -31 callgsubr
        </CharString>
        <CharString name="C">
          91 callsubr
          hstem
          148 79 vstem
          -73 callsubr
          endchar
        </CharString>
        <CharString name="Cacute">
          91 callsubr
          61 76 callsubr
          148 79 hintmask 11001000
          -73 callsubr
          hintmask 00110000
          3 432 -104 callgsubr
        </CharString>
        <CharString name="Ccaron">
          91 callsubr
          hstemhm
          148 79 vstemhm
          -73 callsubr
          -5 396 -74 callsubr
        </CharString>
        <CharString name="Ccedilla">
          91 callsubr
          hstem
          148 79 vstem
          734 438 rmoveto
          61 244 rlineto
          1 3 1 10 0 vvcurveto
          9 -9 0 0 vhcurveto
          0 -6 0 -7 -9 vhcurveto
          -65 -80 rlineto
          59 -32 -51 30 -65 hhcurveto
          -202 -212 -224 -237 -139 73 -88 96 -28 hvcurveto
          -5 -17 -6 -29 -2 -51 callsubr
          43 -48 9 -12 2 vhcurveto
          2 8 3 14 3 12 rrcurveto
          10 hlineto
          -56 callgsubr
          endchar
        </CharString>
        <CharString name="Ccircumflex">
          91 callsubr
          hstemhm
          148 79 vstemhm
          -73 callsubr
          -24 315 -67 callsubr
        </CharString>
        <CharString name="Cdotaccent">
          91 callsubr
          51 97 hstemhm
          148 79 hintmask 11010000
          -73 callsubr
          hintmask 00100000
          -98 374 -97 callgsubr
          endchar
        </CharString>
        <CharString name="Chi">
          -50 callsubr
        </CharString>
        <CharString name="D">
          738 0 29 625 29 hstem
          684 75 vstem
          -64 callsubr
          endchar
        </CharString>
        <CharString name="Dcaron">
          738 112 callsubr
          684 75 vstemhm
          -64 callsubr
          -27 357 -74 callsubr
        </CharString>
        <CharString name="Dcroat">
          -34 callsubr
        </CharString>
        <CharString name="Ddotbelow">
          738 112 callsubr
          684 75 vstemhm
          -64 callsubr
          -359 -620 -97 callgsubr
          endchar
        </CharString>
        <CharString name="Delta">
          800 0 63 651 -20 hstem
          734 9 rmoveto
          0 0 4 -2 10 vhcurveto
          -135 670 rlineto
          17 -3 -1 4 -16 hhcurveto
          -7 -8 0 -15 -10 hvcurveto
          -477 -680 rlineto
          -2 -2 -4 -7 -4 vvcurveto
          -5 1 -1 18 vhcurveto
          623 hlineto
          16 7 0 9 hvcurveto
          -91 54 rmoveto
          -507 hlineto
          394 561 rlineto
          endchar
        </CharString>
        <CharString name="Dlinebelow">
          738 -165 28 137 29 625 29 hstemhm
          684 75 hintmask 01110000
          -64 callsubr
          hintmask 10000000
          -246 -624 -82 callsubr
        </CharString>
        <CharString name="E">
          -17 callsubr
          hstem
          -107 callgsubr
          464 -66 callsubr
          endchar
        </CharString>
        <CharString name="Eacute">
          -17 callsubr
          84 76 callsubr
          hintmask 11100000
          -107 callgsubr
          464 -66 callsubr
          hintmask 00011000
          11 624 -104 callgsubr
        </CharString>
        <CharString name="Ebreve">
          -17 callsubr
          63 33 137 -20 hstemhm
          hintmask 11100000
          -107 callgsubr
          464 -66 callsubr
          hintmask 00011000
          19 659 -88 callgsubr
        </CharString>
        <CharString name="Ecaron">
          -17 callsubr
          hstemhm
          -107 callgsubr
          464 -66 callsubr
          3 588 -74 callsubr
        </CharString>
        <CharString name="Ecircumflex">
          -52 callgsubr
          endchar
        </CharString>
        <CharString name="Ecircumflexacute">
          -17 callsubr
          349 -20 -71 callgsubr
          35 callgsubr
          25 246 -104 callgsubr
        </CharString>
        <CharString name="Ecircumflexdotbelow">
          -52 callgsubr
          -313 -896 -97 callgsubr
          endchar
        </CharString>
        <CharString name="Ecircumflexgrave">
          -52 callgsubr
          -2 137 rmoveto
          -2 -8 -12 -8 -5 -1 -5 -1 -5 2 -3 2 -130 97 rcurveline
          -7 3 -11 8 6 15 rrcurveto
          18 5 18 13 18 hhcurveto
          13 9 -9 0 hvcurveto
          106 -120 7 -6 0 -2 -2 -3 rlinecurve
          endchar
        </CharString>
        <CharString name="Ecircumflexhookabove">
          -17 callsubr
          383 -20 -71 callgsubr
          35 callgsubr
          99 243 -107 callsubr
        </CharString>
        <CharString name="Ecircumflextilde">
          -17 callsubr
          212 122 callgsubr
          -107 callgsubr
          464 -66 callsubr
          hintmask 00001000
          35 callgsubr
          68 227 rmoveto
          8 -10 1 0 -5 -7 -6 -6 -6 vhcurveto
          hintmask 00010010
          -87 callgsubr
          hintmask 00000100
          -3 3 -6 6 4 2 0 13 13 vhcurveto
          hintmask 00010010
          -92 callsubr
        </CharString>
        <CharString name="Edblgrave">
          -17 callsubr
          84 97 callgsubr
          hstemhm
          hintmask 11100000
          -107 callgsubr
          464 -66 callsubr
          hintmask 00011000
          -39 512 -102 callsubr
        </CharString>
        <CharString name="Edieresis">
          -17 callsubr
          53 87 -71 callgsubr
          -198 539 -70 callgsubr
        </CharString>
        <CharString name="Edotaccent">
          -17 callsubr
          74 97 -71 callgsubr
          -90 566 -97 callgsubr
          endchar
        </CharString>
        <CharString name="Edotbelow">
          -17 callsubr
          hstemhm
          -107 callgsubr
          464 -66 callsubr
          -329 -389 -97 callgsubr
          endchar
        </CharString>
        <CharString name="Egrave">
          -17 callsubr
          84 76 callsubr
          hintmask 11100000
          -107 callgsubr
          464 -66 callsubr
          hintmask 00011000
          -84 515 -76 callgsubr
        </CharString>
        <CharString name="Ehookabove">
          -17 callsubr
          95 129 callgsubr
          hstemhm
          hintmask 11100000
          -107 callgsubr
          464 -66 callsubr
          hintmask 00011000
          -29 652 -107 callsubr
        </CharString>
        <CharString name="Emacron">
          -17 callsubr
          73 28 -71 callgsubr
          13 526 -82 callsubr
        </CharString>
        <CharString name="Eng">
          727 -21 74 -53 29 625 29 -7 28 hstemhm
          hintmask 00010000
          781 342 rmoveto
          189 48 -76 173 -177 hhcurveto
          -72 -72 -36 -55 -54 hvcurveto
          hintmask 01100000
          18 70 rlineto
          -1 -13 -13 -1 -12 -38 -39 2 -37 hhcurveto
          -8 -11 106 callsubr
          17 59 0 -7 -11 0 0 -8 -4 -16 hvcurveto
          -135 -540 rlineto
          -36 -9 -6 -7 -68 hhcurveto
          -14 -11 callgsubr
          36 39 2 37 38 40 -2 37 -38 callsubr
          10 -7 0 -19 -28 -29 0 17 6 0 2 2 9 hvcurveto
          124 497 rlineto
          hintmask 10010000
          68 50 76 48 78 hhcurveto
          145 23 -169 -165 -42 hvcurveto
          -34 -138 -40 -158 -96 -33 rrcurveto
          0 0 2 1 1 vhcurveto
          20 5 -13 17 -20 hhcurveto
          -21 -20 -17 -20 -5 hvcurveto
          -20 -6 13 -17 20 hhcurveto
          155 103 185 178 44 hvcurveto
          endchar
        </CharString>
        <CharString name="Eogonek">
          663 -211 47 164 29 310 56 callsubr
          hstem
          -107 callgsubr
          336 hlineto
          -54 -26 -44 -43 30 callgsubr
          -59 callsubr
          9 40 46 31 40 24 rrcurveto
          89 -66 callsubr
          endchar
        </CharString>
        <CharString name="Eogonekacute">
          663 -211 47 164 29 310 56 callsubr
          84 76 callsubr
          hintmask 11110000
          -107 callgsubr
          336 hlineto
          -54 -26 -44 -43 30 callgsubr
          -59 callsubr
          9 40 46 31 40 24 rrcurveto
          89 -66 callsubr
          hintmask 00001100
          11 624 -104 callgsubr
        </CharString>
        <CharString name="Epsilon">
          -17 callsubr
          hstem
          -107 callgsubr
          464 -66 callsubr
          endchar
        </CharString>
        <CharString name="Ereversed">
          -17 callsubr
          hstem
          613 10 rmoveto
          19 9 -9 0 -18 hhcurveto
          -61 -2 8 35 9 hvcurveto
          136 543 3 14 1 2 2 3 rlinecurve
          10 5 4 8 55 hhcurveto
          16 8 0 10 5 hvcurveto
          19 9 -9 0 -17 hhcurveto
          -451 hlineto
          -17 -8 0 -11 -5 hvcurveto
          -2 -3 -2 -8 -1 -3 -65 -177 rcurveline
          -18 -6 -1 -3 12 hhcurveto
          5 9 0 11 5 hvcurveto
          3 5 3 10 2 5 11 32 10 20 5 9 rrcurveto
          61 30 32 41 120 hhcurveto
          125 hlineto
          32 6 -1 -35 -8 hvcurveto
          -62 -248 rlineto
          -83 hlineto
          -82 -6 24 76 18 hvcurveto
          14 4 0 3 -12 hhcurveto
          -3 -10 0 -10 -5 hvcurveto
          -2 -4 -2 -6 -1 -4 -55 -222 rcurveline
          -13 -3 -1 -4 12 hhcurveto
          4 10 0 10 5 hvcurveto
          1 3 1 6 0 vvcurveto
          2 8 7 28 9 18 rrcurveto
          28 14 16 16 67 hhcurveto
          87 hlineto
          -70 -278 -3 -14 -1 -2 -2 -4 rlinecurve
          -11 -5 -2 -1 -29 hhcurveto
          -122 hlineto
          -149 -12 57 134 12 hvcurveto
          11 2 20 -1 2 vhcurveto
          3 -1 -3 0 -5 hhcurveto
          -3 -10 0 -10 -5 hvcurveto
          0 -2 -3 -9 vvcurveto
          -21 -218 rlineto
          -15 -2 1 -1 20 hhcurveto
          464 hlineto
          16 8 0 10 5 hvcurveto
          endchar
        </CharString>
        <CharString name="Eta">
          33 callgsubr
          hstem
          66 765 vstem
          -98 callsubr
          endchar
        </CharString>
        <CharString name="Eth">
          -34 callsubr
        </CharString>
        <CharString name="Etilde">
          -17 callsubr
          53 122 callgsubr
          -107 callgsubr
          464 -66 callsubr
          hintmask 00001000
          13 575 rmoveto
          8 -10 1 0 -5 -7 -6 -6 -6 vhcurveto
          hintmask 00010010
          -87 callgsubr
          hintmask 00000100
          -3 3 -6 6 4 2 0 13 13 vhcurveto
          hintmask 00010010
          -92 callsubr
        </CharString>
        <CharString name="Euro">
          564 -21 28 267 28 80 28 266 28 hstem
          649 538 rmoveto
          122 callsubr
          -3 hlineto
          -3 -2 -1 -2 -2 hvcurveto
          -45 -44 rlineto
          29 -19 -32 18 -41 hhcurveto
          -75 -77 -45 -62 -59 hvcurveto
          -53 -56 -39 -64 -25 -67 rrcurveto
          -45 88 callsubr
          45 hlineto
          -4 -14 -4 -13 -4 -13 -3 -14 -3 -13 -2 -13 rrcurveto
          -42 88 callsubr
          48 hlineto
          -8 -67 6 -65 25 -56 rrcurveto
          -61 29 53 -46 75 hhcurveto
          42 41 18 29 34 hvcurveto
          22 -44 rlineto
          -2 1 2 -1 3 hhcurveto
          3 hlineto
          4 5 4 4 1 hvcurveto
          122 callsubr
          -10 hlineto
          -4 -4 -3 -4 -1 hvcurveto
          -72 -25 -61 -67 -68 hhcurveto
          -59 -38 42 53 -16 hvcurveto
          -17 52 4 60 11 60 rrcurveto
          238 hlineto
          4 98 callgsubr
          -243 hlineto
          9 40 11 40 rlineto
          268 hlineto
          3 98 callgsubr
          -270 hlineto
          19 60 26 59 43 52 rrcurveto
          53 42 59 42 59 hhcurveto
          68 28 -66 -73 -12 hvcurveto
          -4 2 -3 5 vhcurveto
          10 hlineto
          4 4 4 4 2 hvcurveto
          endchar
        </CharString>
        <CharString name="F">
          638 0 29 297 29 297 29 hstem
          cntrmask 11100000
          692 479 rmoveto
          24 177 rlineto
          3 2 8 3 vvcurveto
          11 -8 0 -17 vhcurveto
          -438 4 callsubr
          4 0 2 4 14 hvcurveto
          64 257 rlineto
          84 hlineto
          63 10 -15 -28 -16 -6 -27 -3 -11 hvcurveto
          -2 -9 rlineto
          -11 9 0 5 11 2 3 14 3 vhcurveto
          58 236 rlineto
          -1 callgsubr
          -3 -14 -4 vhcurveto
          -75 -19 -16 -25 -83 hhcurveto
          -79 hlineto
          121 callgsubr
          35 9 7 1 32 hhcurveto
          115 hlineto
          105 24 -30 -68 -25 -3 -18 -3 -23 hvcurveto
          -2 -14 0 -2 -3 -41 callsubr
          endchar
        </CharString>
        <CharString name="G">
          32 callsubr
          hstem
          148 80 vstem
          -95 callgsubr
          endchar
        </CharString>
        <CharString name="Gacute">
          32 callsubr
          61 76 callsubr
          148 80 hintmask 11100100
          -95 callgsubr
          hintmask 00011000
          -20 609 -104 callgsubr
        </CharString>
        <CharString name="Gamma">
          613 0 29 623 29 hstem
          667 479 rmoveto
          24 177 rlineto
          3 2 8 3 vvcurveto
          11 -8 0 -17 vhcurveto
          -413 4 callsubr
          0 0 8 4 15 hvcurveto
          136 544 rlineto
          35 9 7 1 32 hhcurveto
          96 hlineto
          112 11 -40 -55 -4 0 -27 -5 -36 hvcurveto
          -1 -4 -2 -14 -3 -41 callsubr
          endchar
        </CharString>
        <CharString name="Gbreve">
          32 callsubr
          40 33 137 -20 hstemhm
          148 80 hintmask 11100100
          -95 callgsubr
          hintmask 00011000
          -12 644 -88 callgsubr
        </CharString>
        <CharString name="Gcaron">
          32 callsubr
          hstemhm
          148 80 vstemhm
          -95 callgsubr
          -28 573 -74 callsubr
        </CharString>
        <CharString name="Gcedilla">
          757 92 callsubr
          29 234 29 404 29 hstem
          148 80 vstem
          -95 callgsubr
          -363 -365 rmoveto
          -93 callgsubr
        </CharString>
        <CharString name="Gcircumflex">
          32 callsubr
          hstemhm
          148 80 vstemhm
          -95 callgsubr
          -47 492 -67 callsubr
        </CharString>
        <CharString name="Gcommaaccent">
          757 92 callsubr
          29 234 29 404 29 hstemhm
          148 80 hintmask 00111100
          -95 callgsubr
          hintmask 11000000
          -363 -365 rmoveto
          -93 callgsubr
        </CharString>
        <CharString name="Gdotaccent">
          32 callsubr
          51 97 hstemhm
          148 80 hintmask 11101000
          -95 callgsubr
          hintmask 00010000
          -121 551 -97 callgsubr
          endchar
        </CharString>
        <CharString name="H">
          33 callgsubr
          hstem
          66 765 vstem
          -98 callsubr
          endchar
        </CharString>
        <CharString name="H_uni0303">
          33 callgsubr
          51 -21 callgsubr
          66 765 hintmask 11100001
          -98 callsubr
          hintmask 00001000
          -113 149 rmoveto
          8 -10 1 0 -5 -7 -6 -6 -6 vhcurveto
          hintmask 00010010
          -87 callgsubr
          hintmask 00000100
          -3 3 -6 6 4 2 0 13 13 vhcurveto
          hintmask 00010010
          -92 callsubr
        </CharString>
        <CharString name="Hbar">
          21 callgsubr
          312 29 129 28 127 29 hstem
          66 765 vstem
          792 513 rmoveto
          95 callgsubr
          -75 hlineto
          21 85 rlineto
          34 9 6 8 62 hhcurveto
          17 9 62 callsubr
          -35 -37 -2 -36 -37 -38 2 -36 -81 callsubr
          -24 -96 rlineto
          -275 hlineto
          21 85 rlineto
          34 9 6 8 62 hhcurveto
          17 9 62 callsubr
          -35 -37 -2 -36 -37 -38 2 -36 -81 callsubr
          -24 -96 rlineto
          -74 hlineto
          -8 -8 -7 -7 -2 hvcurveto
          58 callsubr
          74 hlineto
          -106 -427 -88 callsubr
          hvcurveto
          2 15 71 280 127 callgsubr
          -67 -269 -63 callsubr
          110 438 rlineto
          75 hlineto
          8 7 87 callgsubr
          -199 -143 rmoveto
          -275 hlineto
          32 129 127 callgsubr
          endchar
        </CharString>
        <CharString name="Hbrevebelow">
          727 110 callgsubr
          86 29 312 56 callsubr
          hstemhm
          66 765 hintmask 00111100
          -98 callsubr
          hintmask 11000000
          -353 -747 -88 callgsubr
        </CharString>
        <CharString name="Hcircumflex">
          33 callgsubr
          hstemhm
          66 765 vstemhm
          -98 callsubr
          -142 81 -67 callsubr
        </CharString>
        <CharString name="Hdieresis">
          33 callgsubr
          51 87 hstemhm
          66 765 hintmask 11101000
          -98 callsubr
          hintmask 00010000
          -324 -6 callsubr
          endchar
        </CharString>
        <CharString name="Hdotbelow">
          33 callgsubr
          hstemhm
          66 765 vstemhm
          -98 callsubr
          -456 -815 -97 callgsubr
          endchar
        </CharString>
        <CharString name="I">
          22 callsubr
          hstem
          62 423 vstem
          -103 callgsubr
          endchar
        </CharString>
        <CharString name="I_J">
          853 0 -21 21 29 41 88 496 29 108 callgsubr
          -46 93 hintmask 01111000
          -103 callgsubr
          625 653 rmoveto
          11 -9 0 -4 vhcurveto
          -32 -36 -2 -33 -40 -41 2 -39 hhcurveto
          -9 -11 0 -18 3 callsubr
          8 hlineto
          40 33 0 -21 -4 -2 -8 -1 -4 hvcurveto
          -118 -473 rlineto
          -69 -17 -56 -76 -56 hhcurveto
          -38 -38 24 48 -6 hvcurveto
          -1 3 2 0 7 hhcurveto
          hintmask 10110100
          33 21 30 23 21 -16 14 -21 -4 -52 0 -73 -68 51 -38 60 91 87 78 84 21 hvcurveto
          118 476 rlineto
          31 8 8 6 42 hhcurveto
          12 10 40 callgsubr
        </CharString>
        <CharString name="Iacute">
          22 callsubr
          82 76 callsubr
          62 423 hintmask 11001000
          -103 callgsubr
          hintmask 00110000
          219 851 -104 callgsubr
        </CharString>
        <CharString name="Ibreve">
          22 callsubr
          61 33 137 -20 108 callgsubr
          hintmask 11001000
          -103 callgsubr
          hintmask 00110000
          227 886 -88 callgsubr
        </CharString>
        <CharString name="Icaron">
          22 callsubr
          108 callgsubr
          vstemhm
          -103 callgsubr
          211 815 -74 callsubr
        </CharString>
        <CharString name="Icircumflex">
          22 callsubr
          108 callgsubr
          vstemhm
          -103 callgsubr
          192 734 -67 callsubr
        </CharString>
        <CharString name="Idblgrave">
          22 callsubr
          82 97 callgsubr
          108 callgsubr
          hintmask 11001000
          -103 callgsubr
          hintmask 00110000
          169 739 -102 callsubr
        </CharString>
        <CharString name="Idieresis">
          22 callsubr
          51 87 108 callgsubr
          hintmask 11010000
          -103 callgsubr
          hintmask 00100000
          10 766 -70 callgsubr
        </CharString>
        <CharString name="Idieresisacute">
          22 callsubr
          51 87 81 76 callsubr
          62 423 hintmask 11000100
          -103 callgsubr
          hintmask 00111000
          10 766 rmoveto
          26 1 -19 10 -18 hhcurveto
          -85 callgsubr
          hvcurveto
          190 hmoveto
          26 1 -19 10 -18 hhcurveto
          -85 callgsubr
          hvcurveto
          53 222 -104 callgsubr
        </CharString>
        <CharString name="Idotaccent">
          22 callsubr
          72 97 108 callgsubr
          hintmask 11010000
          -103 callgsubr
          hintmask 00100000
          118 793 -97 callgsubr
          endchar
        </CharString>
        <CharString name="Idotbelow">
          22 callsubr
          108 callgsubr
          vstemhm
          -103 callgsubr
          -122 -162 -97 callgsubr
          endchar
        </CharString>
        <CharString name="Igrave">
          22 callsubr
          82 76 callsubr
          62 423 hintmask 11001000
          -103 callgsubr
          hintmask 00110000
          124 742 -76 callgsubr
        </CharString>
        <CharString name="Ihookabove">
          22 callsubr
          93 129 callgsubr
          108 callgsubr
          hintmask 11001000
          -103 callgsubr
          hintmask 00110000
          179 879 -107 callsubr
        </CharString>
        <CharString name="Imacron">
          22 callsubr
          71 28 108 callgsubr
          hintmask 11010000
          -103 callgsubr
          hintmask 00100000
          221 753 -82 callsubr
        </CharString>
        <CharString name="Imacron.alt">
          22 callsubr
          71 28 108 callgsubr
          hintmask 11010000
          -103 callgsubr
          hintmask 00100000
          150 753 49 callgsubr
        </CharString>
        <CharString name="Iogonek">
          118 callsubr
          hstem
          62 423 vstem
          -27 callgsubr
          endchar
        </CharString>
        <CharString name="Iogonekacute">
          118 callsubr
          82 76 callsubr
          62 423 hintmask 11100100
          -27 callgsubr
          hintmask 00011000
          252 985 -104 callgsubr
        </CharString>
        <CharString name="Iota">
          22 callsubr
          hstem
          62 423 vstem
          -103 callgsubr
          endchar
        </CharString>
        <CharString name="Itilde">
          22 callsubr
          51 -21 callgsubr
          62 423 hintmask 11000010
          -103 callgsubr
          hintmask 00010000
          221 802 -95 callsubr
        </CharString>
        <CharString name="J">
          91 callgsubr
          hstem
          100 93 vstem
          -58 callgsubr
          endchar
        </CharString>
        <CharString name="J_uni030C.cap">
          513.42857 0 -21 91 88 329 -21 144 73 -29 29 hstemhm
          100 93 hintmask 11001100
          -58 callgsubr
          102 -30 126 callsubr
          hintmask 00110000
          -21 16 -8 14 17 12 12 0 vhcurveto
          -13 -62 -33 -45 -35 -30 rrcurveto
          -9 -9 -1 -1 -2 vvcurveto
          -3 3 -4 4 13 88 90 86 vhcurveto
          endchar
        </CharString>
        <CharString name="Jacute">
          91 callgsubr
          82 76 callsubr
          100 93 hintmask 11100100
          -58 callgsubr
          hintmask 00011000
          58 198 -104 callgsubr
        </CharString>
        <CharString name="Jcircumflex">
          91 callgsubr
          hstemhm
          100 93 vstemhm
          -58 callgsubr
          31 81 -67 callsubr
        </CharString>
        <CharString name="K">
          752 0 29 625 29 hstem
          -83 callgsubr
          endchar
        </CharString>
        <CharString name="Kappa">
          752 0 29 625 29 hstem
          -83 callgsubr
          endchar
        </CharString>
        <CharString name="Kcedilla">
          752 72 callsubr
          hstem
          -83 callgsubr
          -307 -123 rmoveto
          -93 callgsubr
        </CharString>
        <CharString name="Kcommaaccent">
          752 55 callsubr
          -83 callgsubr
          hintmask 11000000
          -307 -123 rmoveto
          -93 callgsubr
        </CharString>
        <CharString name="L">
          613 0 29 625 29 hstem
          -92 callgsubr
          endchar
        </CharString>
        <CharString name="L_uni0303">
          613 0 29 625 29 51 -21 callgsubr
          hintmask 11000000
          -92 callgsubr
          hintmask 00010000
          17 804 -95 callsubr
        </CharString>
        <CharString name="Lacute">
          613 0 29 625 29 82 76 callsubr
          hintmask 11000000
          -92 callgsubr
          hintmask 00110000
          15 853 -104 callgsubr
        </CharString>
        <CharString name="Lambda">
          677 0 29 685 -20 hstem
          627 19 rmoveto
          10 -8 0 -12 -43 -1 8 24 -1 vhcurveto
          -30 629 rlineto
          21 -1 -2 3 -13 hhcurveto
          -8 -7 -1 -15 -8 hvcurveto
          -320 -587 -41 -75 -37 -4 -22 -3 rlinecurve
          -8 -1 -9 -1 -16 vvcurveto
          -6 3 -5 8 vhcurveto
          0 17 2 53 vhcurveto
          26 29 -2 25 hhcurveto
          6 89 callsubr
          -8 1 -5 hvcurveto
          -21 2 -18 10 22 vvcurveto
          10 3 10 10 18 vhcurveto
          265 483 24 -509 1 -20 1 -25 -68 -1 rlinecurve
          -8 -11 callgsubr
          33 35 2 33 hhcurveto
          68 27 -2 0 hvcurveto
          6 11 0 19 hvcurveto
          endchar
        </CharString>
        <CharString name="Lcaron">
          613 0 29 458 -21 144 73 -29 29 hstemhm
          hintmask 10010000
          -92 callgsubr
          91 625 126 callsubr
          hintmask 01100000
          -21 16 -8 14 17 12 12 0 vhcurveto
          -13 -62 -33 -45 -35 -30 rrcurveto
          -9 -9 -1 -1 -2 vvcurveto
          -3 3 -4 4 13 88 90 86 vhcurveto
          endchar
        </CharString>
        <CharString name="Lcedilla">
          613 72 callsubr
          hstem
          -92 callgsubr
          -214 -121 rmoveto
          -93 callgsubr
        </CharString>
        <CharString name="Lcommaaccent">
          613 55 callsubr
          -92 callgsubr
          hintmask 11000000
          -214 -121 rmoveto
          -93 callgsubr
        </CharString>
        <CharString name="Ldot">
          613 0 29 329 97 199 29 hstem
          -92 callgsubr
          115 398 -97 callgsubr
          endchar
        </CharString>
        <CharString name="Ldotbelow">
          613 112 callsubr
          -92 callgsubr
          -212 -160 -97 callgsubr
          endchar
        </CharString>
        <CharString name="Ldotbelowmacron">
          613 0 29 625 29 71 28 hstemhm
          hintmask 11000000
          -92 callgsubr
          -212 -160 -97 callgsubr
          hintmask 00100000
          234 915 -82 callsubr
        </CharString>
        <CharString name="Lslash">
          613 0 29 625 29 hstem
          229 274 vstem
          607 234 rmoveto
          1 3 2 6 3 vvcurveto
          7 -6 3 -7 -11 -1 -1 -25 -9 vhcurveto
          -82 -29 -43 -119 -155 hhcurveto
          -82 hlineto
          -29 -1 1 11 8 2 8 2 7 hvcurveto
          79 313 170 134 -20 26 -137 -107 44 178 rlineto
          37 9 7 9 76 hhcurveto
          7 36 callgsubr
          -8 0 -8 hvcurveto
          -40 -42 -2 -40 -39 -40 2 -38 hhcurveto
          -8 -11 -82 callgsubr
          -1 -3 -1 -6 hvcurveto
          -67 -270 -106 -83 22 -25 72 57 -58 -230 -30 callgsubr
          413 hlineto
          21 1 0 17 6 hvcurveto
          endchar
        </CharString>
        <CharString name="M">
          877 0 29 625 29 hstem
          -67 callgsubr
          endchar
        </CharString>
        <CharString name="Mdotbelow">
          877 112 callsubr
          -67 callgsubr
          -527 -815 -97 callgsubr
          endchar
        </CharString>
        <CharString name="Mu">
          877 0 29 625 29 hstem
          -67 callgsubr
          endchar
        </CharString>
        <CharString name="N">
          23 callgsubr
          hstem
          -99 callgsubr
          endchar
        </CharString>
        <CharString name="Nacute">
          23 callgsubr
          82 76 callsubr
          hintmask 11000000
          -99 callgsubr
          hintmask 00110000
          -115 198 -104 callgsubr
        </CharString>
        <CharString name="Ncaron">
          23 callgsubr
          hstemhm
          -99 callgsubr
          -123 162 -74 callsubr
        </CharString>
        <CharString name="Ncedilla">
          727 72 callsubr
          hstem
          -99 callgsubr
          -458 -776 rmoveto
          -93 callgsubr
        </CharString>
        <CharString name="Ncommaaccent">
          727 55 callsubr
          -99 callgsubr
          hintmask 11000000
          -458 -776 rmoveto
          -93 callgsubr
        </CharString>
        <CharString name="Ndotaccent">
          23 callgsubr
          51 97 hstemhm
          hintmask 11000000
          -99 callgsubr
          hintmask 00100000
          -221 119 -97 callgsubr
          endchar
        </CharString>
        <CharString name="Ndotbelow">
          23 callgsubr
          hstemhm
          -99 callgsubr
          -456 -815 -97 callgsubr
          endchar
        </CharString>
        <CharString name="Ntilde">
          23 callgsubr
          51 -21 callgsubr
          hintmask 11000000
          -99 callgsubr
          hintmask 00010000
          -113 149 -95 callsubr
        </CharString>
        <CharString name="Nu">
          23 callgsubr
          hstem
          -99 callgsubr
          endchar
        </CharString>
        <CharString name="O">
          -4 callgsubr
          22 hstem
          112 callgsubr
          vstem
          -100 callsubr
          endchar
        </CharString>
        <CharString name="OE">
          -54 callgsubr
        </CharString>
        <CharString name="OE.dup">
          -54 callgsubr
        </CharString>
        <CharString name="Oacute">
          -4 callgsubr
          22 61 -21 157 79 callgsubr
          hintmask 11001100
          -100 callsubr
          hintmask 00110000
          32 385 -104 callgsubr
        </CharString>
        <CharString name="Obreve">
          -4 callgsubr
          22 40 33 137 79 callgsubr
          hintmask 11001100
          -100 callsubr
          hintmask 00110000
          40 420 -88 callgsubr
        </CharString>
        <CharString name="Ocaron">
          -4 callgsubr
          22 9 callsubr
          vstemhm
          -100 callsubr
          24 349 -74 callsubr
        </CharString>
        <CharString name="Ocircumflex">
          -4 callgsubr
          22 9 callsubr
          vstemhm
          -100 callsubr
          5 268 -67 callsubr
        </CharString>
        <CharString name="Ocircumflexacute">
          -4 callgsubr
          22 326 79 callgsubr
          hintmask 11011000
          -100 callsubr
          hintmask 00100000
          5 268 -103 callsubr
          25 246 -104 callgsubr
        </CharString>
        <CharString name="Ocircumflexdotbelow">
          -4 callgsubr
          22 9 callsubr
          vstemhm
          -100 callsubr
          5 268 -103 callsubr
          -313 -896 -97 callgsubr
          endchar
        </CharString>
        <CharString name="Ocircumflexgrave">
          -4 callgsubr
          22 9 callsubr
          vstemhm
          -100 callsubr
          5 268 -77 callsubr
        </CharString>
        <CharString name="Ocircumflexhookabove">
          -4 callgsubr
          22 360 79 callgsubr
          hintmask 11011000
          -100 callsubr
          hintmask 00100000
          5 268 -103 callsubr
          99 243 -107 callsubr
        </CharString>
        <CharString name="Ocircumflextilde">
          -4 callgsubr
          22 189 -21 callgsubr
          146 82 467 78 hintmask 11000011
          -100 callsubr
          hintmask 00010000
          5 268 -103 callsubr
          68 227 -95 callsubr
        </CharString>
        <CharString name="Odblgrave">
          -4 callgsubr
          22 61 -21 189 79 callgsubr
          hintmask 11001100
          -100 callsubr
          hintmask 00110000
          -18 273 -102 callsubr
        </CharString>
        <CharString name="Odieresis">
          -4 callgsubr
          22 30 87 9 callsubr
          hintmask 11011000
          -100 callsubr
          hintmask 00100000
          -177 300 -70 callgsubr
        </CharString>
        <CharString name="Odotbelow">
          -4 callgsubr
          22 9 callsubr
          vstemhm
          -100 callsubr
          -308 -628 -97 callgsubr
          endchar
        </CharString>
        <CharString name="Ograve">
          -4 callgsubr
          22 61 -21 157 79 callgsubr
          hintmask 11001100
          -100 callsubr
          hintmask 00110000
          -63 276 -76 callgsubr
        </CharString>
        <CharString name="Ohookabove">
          -4 callgsubr
          22 72 -21 211 79 callgsubr
          hintmask 11001100
          -100 callsubr
          hintmask 00110000
          -8 413 -107 callsubr
        </CharString>
        <CharString name="Ohorn">
          -4 callgsubr
          98 hstem
          13 callgsubr
          77 vstem
          -90 callsubr
          endchar
        </CharString>
        <CharString name="Ohornacute">
          -4 callgsubr
          98 121 -20 25 callgsubr
          77 hintmask 11011000
          -90 callsubr
          hintmask 00100000
          26 515 -104 callgsubr
        </CharString>
        <CharString name="Ohorndotbelow">
          -4 callgsubr
          98 25 callgsubr
          77 vstemhm
          -90 callsubr
          -289 -498 -97 callgsubr
          endchar
        </CharString>
        <CharString name="Ohorngrave">
          -4 callgsubr
          98 121 -20 25 callgsubr
          77 hintmask 11011000
          -90 callsubr
          hintmask 00100000
          -44 406 -76 callgsubr
        </CharString>
        <CharString name="Ohornhookabove">
          -4 callgsubr
          98 186 -20 25 callgsubr
          77 hintmask 11011000
          -90 callsubr
          hintmask 01100000
          11 543 -107 callsubr
        </CharString>
        <CharString name="Ohorntilde">
          -4 callgsubr
          98 -46 -21 callgsubr
          146 82 467 77 hintmask 11000011
          -90 callsubr
          hintmask 00010000
          53 466 -95 callsubr
        </CharString>
        <CharString name="Ohungarumlaut">
          -4 callgsubr
          22 61 -21 189 79 callgsubr
          hintmask 11001100
          -100 callsubr
          hintmask 00110000
          -92 423 -80 callsubr
        </CharString>
        <CharString name="Omacron">
          -4 callgsubr
          22 50 28 9 callsubr
          hintmask 11011000
          -100 callsubr
          hintmask 00100000
          34 287 -82 callsubr
        </CharString>
        <CharString name="Omega">
          -45 callsubr
        </CharString>
        <CharString name="Omicron">
          -4 callgsubr
          22 hstem
          112 callgsubr
          vstem
          -100 callsubr
          endchar
        </CharString>
        <CharString name="Oogonek">
          -4 callgsubr
          22 hstem
          112 callgsubr
          vstem
          -18 callsubr
          endchar
        </CharString>
        <CharString name="Oogonekacute">
          -4 callgsubr
          22 61 -21 157 79 callgsubr
          hintmask 11001100
          -18 callsubr
          hintmask 00110000
          32 385 -104 callgsubr
        </CharString>
        <CharString name="Orogate">
          750 112 callgsubr
          vstem
          14 callsubr
          141 -81 111 -132 6 vhcurveto
          41 165 rlineto
          5 -4 4 -16 -7 vhcurveto
          -41 -167 rlineto
          -198 -8 -196 -234 -227 vvcurveto
          -140 81 -110 132 -6 vhcurveto
          -41 -164 rlineto
          -5 4 -4 15 6 vhcurveto
          42 167 rlineto
          195 7 199 229 231 vvcurveto
          -78 39 rmoveto
          -195 -139 -288 -181 -89 -58 82 122 61 23 164 81 115 vhcurveto
          94 67 81 42 64 hhcurveto
          83 68 -66 -131 hvcurveto
          endchar
        </CharString>
        <CharString name="Oslash">
          73 callgsubr
          hstem
          146 67 493 67 vstem
          -60 callgsubr
          endchar
        </CharString>
        <CharString name="Oslash.dup">
          73 callgsubr
          hstem
          146 67 493 67 vstem
          -60 callgsubr
          endchar
        </CharString>
        <CharString name="Oslashacute">
          73 callgsubr
          43 76 callsubr
          146 67 493 67 hintmask 11110011
          -60 callgsubr
          hintmask 00001100
          21 385 -104 callgsubr
        </CharString>
        <CharString name="Otilde">
          -4 callgsubr
          22 30 -21 callgsubr
          146 82 467 78 hintmask 11000011
          -100 callsubr
          hintmask 00010000
          34 336 -95 callsubr
        </CharString>
        <CharString name="P">
          -27 callsubr
        </CharString>
        <CharString name="Phi">
          700 0 29 125 -20 520 29 hstem
          155 80 399 80 vstem
          714 380 rmoveto
          97 -85 63 -109 11 vhcurveto
          7 27 12 47 4 7 rrcurveto
          12 6 7 10 70 hhcurveto
          7 hlineto
          17 10 53 callsubr
          hvcurveto
          -127 -2 -129 2 rlineto
          -9 -11 -50 callgsubr
          8 0 16 hvcurveto
          7 hlineto
          37 33 0 -20 -8 -1 -5 -1 -2 hvcurveto
          -14 -54 -4 -13 -1 -1 -6 -2 rlinecurve
          -209 -32 -79 -133 -82 vvcurveto
          -79 66 -77 125 -13 vhcurveto
          -11 -45 rlineto
          -51 -13 -2 -8 -81 67 callgsubr
          127 2 128 -2 rlineto
          18 callgsubr
          9 6 24 14 51 hvcurveto
          157 12 141 115 120 vvcurveto
          -269 149 rmoveto
          -94 -375 rlineto
          -70 10 -46 39 74 vvcurveto
          15 8 211 202 26 vhcurveto
          189 -123 rmoveto
          -54 -27 -176 -186 -23 vhcurveto
          94 377 rlineto
          88 -12 31 -51 -61 vvcurveto
          endchar
        </CharString>
        <CharString name="Pi">
          21 callgsubr
          623 29 hstem
          667 19 rmoveto
          41 callsubr
          vhcurveto
          137 548 rlineto
          35 9 8 8 59 hhcurveto
          18 9 80 callgsubr
          hvcurveto
          -551 hlineto
          -17 -9 0 -19 -10 8 0 16 55 0 -8 -10 -3 0 -2 -4 -14 hvcurveto
          -135 -543 -63 callsubr
          148 591 rlineto
          276 hlineto
          -145 -580 -57 callgsubr
          35 37 2 36 36 39 -2 35 18 callsubr
          endchar
        </CharString>
        <CharString name="Psi">
          750 0 29 504 22 99 29 hstem
          229 66 vstem
          810 545 rmoveto
          16 callgsubr
          vhcurveto
          -26 hlineto
          -39 -44 -8 -134 -35 hvcurveto
          -15 -57 -44 -166 -137 -34 113 452 rcurveline
          37 9 7 9 76 hhcurveto
          7 hlineto
          17 10 53 callsubr
          hvcurveto
          -127 -2 -129 2 rlineto
          -9 -11 -50 callgsubr
          8 0 16 hvcurveto
          7 hlineto
          37 33 0 -20 -8 -1 -5 -1 -2 hvcurveto
          -116 -464 rlineto
          -65 17 -17 58 61 vvcurveto
          34 6 36 11 48 vhcurveto
          12 47 0 19 10 vvcurveto
          70 -39 0 -23 vhcurveto
          -26 hlineto
          -16 -8 0 -10 -8 7 -1 4 -1 hvcurveto
          12 -2 20 -2 -46 vvcurveto
          -26 -8 -35 -4 -13 vhcurveto
          -4 -17 -10 -44 -42 vvcurveto
          -86 39 -73 103 -15 vhcurveto
          -7 -29 -12 -49 -6 -8 rrcurveto
          -9 -6 -7 -10 -69 67 callgsubr
          127 2 128 -2 rlineto
          18 callgsubr
          6 6 23 3 14 hvcurveto
          4 13 0 2 6 26 170 21 68 135 31 112 16 60 18 66 55 8 rrcurveto
          6 1 6 1 8 vvcurveto
          endchar
        </CharString>
        <CharString name="Q">
          750 -194 86 87 22 126 20 535 22 hstem
          146 78 91 20 114 39 207 78 vstem
          679 -1 rmoveto
          7 -4 3 -6 -6 -2 -4 -11 -3 vhcurveto
          -57 -18 -45 -45 -47 hhcurveto
          -45 -15 28 86 hvcurveto
          195 88 90 207 145 vvcurveto
          145 -85 113 -138 -201 -203 -238 -231 -144 86 -112 138 31 30 5 10 29 vhcurveto
          -9 -63 -2 -10 -26 vvcurveto
          -23 0 -66 75 51 33 36 32 21 vhcurveto
          31 49 19 71 5 vvcurveto
          16 481 rmoveto
          -92 -46 -247 -162 -102 vhcurveto
          49 -2 -10 59 -65 hhcurveto
          -54 -41 -58 -46 -17 2 -5 4 -9 hvcurveto
          -71 30 -26 81 79 vvcurveto
          47 17 162 92 134 vhcurveto
          71 49 81 66 82 hhcurveto
          91 59 -82 -120 hvcurveto
          -231 -455 rmoveto
          -7 -13 -36 -17 -40 hhcurveto
          -9 -31 0 42 37 33 47 42 48 8 -33 -37 -10 -1 -12 -1 -10 hvcurveto
          endchar
        </CharString>
        <CharString name="R">
          12 callgsubr
          hstem
          69 callsubr
          vstem
          -102 callgsubr
          endchar
        </CharString>
        <CharString name="Racute">
          12 callgsubr
          82 76 callsubr
          69 callsubr
          hintmask 11110011
          -102 callgsubr
          hintmask 00001100
          87 312 -104 callgsubr
        </CharString>
        <CharString name="Rcaron">
          12 callgsubr
          hstemhm
          69 callsubr
          vstemhm
          -102 callgsubr
          79 276 -74 callsubr
        </CharString>
        <CharString name="Rcedilla">
          713 92 callsubr
          12 callsubr
          hstem
          69 callsubr
          vstem
          -102 callgsubr
          -255 -662 rmoveto
          -93 callgsubr
        </CharString>
        <CharString name="Rcommaaccent">
          713 92 callsubr
          12 callsubr
          hstemhm
          69 callsubr
          hintmask 00111111
          -102 callgsubr
          hintmask 11000000
          -255 -662 rmoveto
          -93 callgsubr
        </CharString>
        <CharString name="Rdblgrave">
          12 callgsubr
          82 97 callgsubr
          hstemhm
          69 callsubr
          hintmask 11110011
          -102 callgsubr
          hintmask 00001100
          12 200 -102 callsubr
        </CharString>
        <CharString name="Rdotaccent">
          12 callgsubr
          72 97 hstemhm
          69 callsubr
          hintmask 11110110
          -102 callgsubr
          hintmask 00001000
          -14 254 -97 callgsubr
          endchar
        </CharString>
        <CharString name="Rdotbelow">
          12 callgsubr
          hstemhm
          69 callsubr
          vstemhm
          -102 callgsubr
          -253 -701 -97 callgsubr
          endchar
        </CharString>
        <CharString name="Rdotbelowmacron">
          12 callgsubr
          71 28 hstemhm
          69 callsubr
          hintmask 11110110
          -102 callgsubr
          -253 -701 -97 callgsubr
          hintmask 00001000
          342 915 -82 callsubr
        </CharString>
        <CharString name="Rho">
          -27 callsubr
        </CharString>
        <CharString name="S">
          119 callsubr
          hstem
          68 callgsubr
          vstem
          526 237 rmoveto
          -98 callgsubr
          rlineto
          -41 27 45 -32 79 hhcurveto
          121 127 callsubr
          130 hvcurveto
          endchar
        </CharString>
        <CharString name="S_S">
          1100 -21 29 669 27 hstem
          68 callgsubr
          222 62 205 61 vstem
          526 237 rmoveto
          -98 callgsubr
          rlineto
          -41 27 45 -32 79 hhcurveto
          121 127 callsubr
          130 hvcurveto
          550 hmoveto
          -98 callgsubr
          rlineto
          -41 27 45 -32 79 hhcurveto
          121 127 callsubr
          130 hvcurveto
          endchar
        </CharString>
        <CharString name="Sacute">
          119 callsubr
          61 76 callsubr
          68 callgsubr
          hintmask 11001100
          526 237 rmoveto
          -98 callgsubr
          rlineto
          -41 27 45 -32 79 hhcurveto
          121 127 callsubr
          130 hvcurveto
          hintmask 00110000
          101 633 -104 callgsubr
        </CharString>
        <CharString name="Scaron">
          550 -21 52 callsubr
          vstemhm
          526 237 rmoveto
          -98 callgsubr
          rlineto
          -41 27 45 -32 79 hhcurveto
          121 127 callsubr
          130 hvcurveto
          hintmask 00010000
          93 597 -74 callsubr
        </CharString>
        <CharString name="Scedilla">
          119 callsubr
          hstem
          68 callgsubr
          vstem
          526 237 rmoveto
          -98 callgsubr
          20 -31 31 -26 48 -11 rlinecurve
          -5 -17 -5 -25 -2 -51 callsubr
          43 -48 9 -12 2 vhcurveto
          2 8 3 14 3 12 rrcurveto
          118 5 108 125 128 vvcurveto
          endchar
        </CharString>
        <CharString name="Scircumflex">
          550 -21 52 callsubr
          vstemhm
          526 237 rmoveto
          -98 callgsubr
          rlineto
          -41 27 45 -32 79 hhcurveto
          121 127 callsubr
          130 hvcurveto
          74 516 -67 callsubr
        </CharString>
        <CharString name="Sdotbelow">
          550 -21 52 callsubr
          vstemhm
          526 237 rmoveto
          -98 callgsubr
          rlineto
          -41 27 45 -32 79 hhcurveto
          121 127 callsubr
          130 hvcurveto
          -239 -380 -97 callgsubr
          endchar
        </CharString>
        <CharString name="Sigma">
          700 0 38 616 29 hstem
          679 222 rmoveto
          7 callsubr
          -10 -1 -1 -22 -9 vhcurveto
          -138 -53 -55 -33 -154 hhcurveto
          -244 hlineto
          292 288 rlineto
          11 10 0 2 4 vvcurveto
          -3 13 -111 299 rlineto
          219 hlineto
          139 32 -31 -85 -4 0 -22 -4 -33 hvcurveto
          -1 -5 0 -4 0 77 callgsubr
          13 0 3 19 3 vhcurveto
          24 176 rlineto
          25 3 -5 0 -21 hhcurveto
          -476 hlineto
          -17 -10 0 -19 hvcurveto
          132 -359 -284 -280 rlineto
          -11 -10 0 -2 119 callgsubr
          476 hlineto
          21 1 0 17 6 hvcurveto
          69 193 rlineto
          endchar
        </CharString>
        <CharString name="T">
          53 callgsubr
          hstem
          -96 callgsubr
          endchar
        </CharString>
        <CharString name="T_uni0303">
          53 callgsubr
          56 -21 callgsubr
          hintmask 11000000
          -96 callgsubr
          hintmask 00010000
          -56 347 -95 callsubr
        </CharString>
        <CharString name="T_uni0308">
          53 callgsubr
          56 87 hstemhm
          hintmask 11000000
          -96 callgsubr
          hintmask 00100000
          -267 311 -70 callgsubr
        </CharString>
        <CharString name="Tau">
          53 callgsubr
          hstem
          -96 callgsubr
          endchar
        </CharString>
        <CharString name="Tcaron">
          53 callgsubr
          hstemhm
          -96 callgsubr
          -66 360 -74 callsubr
        </CharString>
        <CharString name="Tcedilla">
          53 callgsubr
          hstem
          760 474 rmoveto
          30 181 rlineto
          2 10 0 2 0 vvcurveto
          11 -7 0 -17 vhcurveto
          -502 hlineto
          -21 -2 0 -16 -5 hvcurveto
          -61 -184 rlineto
          -1 -3 -2 -7 43 callgsubr
          10 1 1 20 8 vhcurveto
          149 50 22 24 136 hhcurveto
          34 hlineto
          23 0 -4 -7 -6 121 callsubr
          hvcurveto
          -135 -541 rlineto
          -37 -9 -8 -10 -85 hhcurveto
          -12 hlineto
          -18 -9 64 callgsubr
          8 hvcurveto
          113 2 rlineto
          -4 -10 -11 -49 24 callgsubr
          4 14 6 28 3 15 115 -2 rcurveline
          10 11 26 callsubr
          -17 hvcurveto
          -12 hlineto
          -17 -16 1 2 -16 hvcurveto
          -19 2 -10 1 16 vvcurveto
          5 0 2 2 10 vhcurveto
          136 544 7 28 6 5 8 2 rlinecurve
          2 7 29 0 18 hhcurveto
          87 41 -6 -69 -30 -8 -51 -3 -16 hvcurveto
          -2 -11 rlineto
          -11 76 callgsubr
          3 16 3 vhcurveto
          endchar
        </CharString>
        <CharString name="Tdotbelow">
          53 callgsubr
          hstemhm
          -96 callgsubr
          -398 -617 -97 callgsubr
          endchar
        </CharString>
        <CharString name="Theta">
          750 0 -21 331 64 330 -20 hstem
          146 76 475 76 vstem
          14 callsubr
          145 -85 113 -138 -201 -203 -238 -231 -144 86 -112 138 198 205 232 235 vhcurveto
          -76 32 rmoveto
          -219 -147 -259 -175 -82 -71 65 138 216 147 265 176 75 77 -57 -149 vhcurveto
          -81 -184 rmoveto
          22 90 3 14 rlineto
          0 0 10 -13 -12 -1 -5 -8 -2 vhcurveto
          -6 -21 rlineto
          -278 hlineto
          1 3 4 21 0 vvcurveto
          0 0 10 -13 -12 -2 -4 -14 -3 vhcurveto
          -22 -90 -3 -14 rlineto
          0 0 -10 13 12 1 5 8 2 vhcurveto
          6 21 rlineto
          278 hlineto
          -1 -3 -4 -21 0 vvcurveto
          0 0 -10 13 12 2 4 14 3 vhcurveto
          endchar
        </CharString>
        <CharString name="Thorn">
          613 178 29 316 29 hstem
          551 83 vstem
          634 410 rmoveto
          42 -21 100 -136 vhcurveto
          -117 hlineto
          7 26 12 47 2 5 rrcurveto
          15 6 6 9 54 hhcurveto
          23 8 0 19 40 callsubr
          1 hvcurveto
          -2 -35 -36 -1 -35 hhcurveto
          -36 -36 1 2 -36 hvcurveto
          -7 -1 -11 0 -19 vvcurveto
          -10 9 0 15 26 28 0 -16 -4 -1 -11 -1 -4 vhcurveto
          -137 -545 rlineto
          -35 -9 -2 -10 -63 hhcurveto
          -19 -10 0 -18 -11 9 0 5 -1 hvcurveto
          2 35 36 1 35 hhcurveto
          36 36 -1 -2 36 hvcurveto
          7 1 11 0 19 vvcurveto
          10 -9 0 -15 -53 -2 6 11 5 10 40 6 22 vhcurveto
          1 6 12 48 3 11 rrcurveto
          126 hlineto
          130 111 120 112 hvcurveto
          -83 6 rmoveto
          -98 -77 -111 -103 vhcurveto
          -97 hlineto
          79 316 rlineto
          101 hlineto
          22 28 0 -29 23 hvcurveto
          10 -12 14 -24 -42 vvcurveto
          endchar
        </CharString>
        <CharString name="Tlinebelow">
          700 -165 28 137 129 callsubr
          hstemhm
          hintmask 01100000
          -96 callgsubr
          hintmask 10000000
          -285 -621 -82 callsubr
        </CharString>
        <CharString name="U">
          24 callsubr
          hstem
          200 68 vstem
          -105 callsubr
          endchar
        </CharString>
        <CharString name="U_uni032F">
          727 -215 -21 137 33 45 90 callgsubr
          113 callgsubr
          hintmask 00111000
          -105 callsubr
          hintmask 11000000
          -362 -855 -61 callsubr
        </CharString>
        <CharString name="Uacute">
          24 callsubr
          82 76 callsubr
          200 68 hintmask 11001000
          -105 callsubr
          hintmask 00110000
          -94 198 -104 callgsubr
        </CharString>
        <CharString name="Ubreve">
          24 callsubr
          61 33 137 -20 113 callgsubr
          hintmask 11001000
          -105 callsubr
          hintmask 00110000
          -86 233 -88 callgsubr
        </CharString>
        <CharString name="Ucaron">
          24 callsubr
          113 callgsubr
          vstemhm
          -105 callsubr
          -102 162 -74 callsubr
        </CharString>
        <CharString name="Ucircumflex">
          24 callsubr
          113 callgsubr
          vstemhm
          -105 callsubr
          -121 81 -67 callsubr
        </CharString>
        <CharString name="Udblgrave">
          24 callsubr
          82 97 callgsubr
          113 callgsubr
          hintmask 11001000
          -105 callsubr
          hintmask 00110000
          -144 86 -102 callsubr
        </CharString>
        <CharString name="Udieresis">
          78 callsubr
          87 113 callgsubr
          hintmask 11010000
          -105 callsubr
          hintmask 00100000
          -22 callsubr
          endchar
        </CharString>
        <CharString name="Udieresisacute">
          78 callsubr
          87 81 76 callsubr
          200 68 hintmask 11000100
          -105 callsubr
          hintmask 00111000
          -22 callsubr
          53 222 -104 callgsubr
        </CharString>
        <CharString name="Udieresiscaron">
          78 callsubr
          87 113 callgsubr
          hintmask 11010000
          -105 callsubr
          hintmask 00100000
          -22 callsubr
          45 186 -74 callsubr
        </CharString>
        <CharString name="Udieresisgrave">
          78 callsubr
          87 81 76 callsubr
          200 68 hintmask 11000100
          -105 callsubr
          hintmask 00111000
          -22 callsubr
          -42 113 -76 callgsubr
        </CharString>
        <CharString name="Udotbelow">
          24 callsubr
          113 callgsubr
          vstemhm
          -105 callsubr
          -434 -815 -97 callgsubr
          endchar
        </CharString>
        <CharString name="Ugrave">
          24 callsubr
          82 76 callsubr
          200 68 hintmask 11001000
          -105 callsubr
          hintmask 00110000
          -189 89 -76 callgsubr
        </CharString>
        <CharString name="Uhookabove">
          24 callsubr
          93 129 callgsubr
          113 callgsubr
          hintmask 11001000
          -105 callsubr
          hintmask 00110000
          -134 226 -107 callsubr
        </CharString>
        <CharString name="Uhorn">
          24 callsubr
          hstem
          -100 callgsubr
          endchar
        </CharString>
        <CharString name="Uhornacute">
          24 callsubr
          82 76 callsubr
          hintmask 11000000
          -100 callgsubr
          hintmask 00110000
          -137 151 -104 callgsubr
        </CharString>
        <CharString name="Uhorndotbelow">
          24 callsubr
          hstemhm
          -100 callgsubr
          -474 -862 -97 callgsubr
          endchar
        </CharString>
        <CharString name="Uhorngrave">
          24 callsubr
          82 76 callsubr
          hintmask 11000000
          -100 callgsubr
          hintmask 00110000
          -207 42 -76 callgsubr
        </CharString>
        <CharString name="Uhornhookabove">
          24 callsubr
          93 129 callgsubr
          hstemhm
          hintmask 11000000
          -100 callgsubr
          hintmask 00110000
          -152 179 -107 callsubr
        </CharString>
        <CharString name="Uhorntilde">
          78 callsubr
          -21 callgsubr
          hintmask 11000000
          -100 callgsubr
          hintmask 00010000
          -110 102 -95 callsubr
        </CharString>
        <CharString name="Uhungarumlaut">
          24 callsubr
          82 97 callgsubr
          113 callgsubr
          hintmask 11001000
          -105 callsubr
          hintmask 00110000
          -218 236 -80 callsubr
        </CharString>
        <CharString name="Umacron">
          24 callsubr
          71 28 113 callgsubr
          hintmask 11010000
          -105 callsubr
          hintmask 00100000
          -92 100 -82 callsubr
        </CharString>
        <CharString name="Uogonek">
          727 -211 47 143 90 callgsubr
          hstem
          200 68 vstem
          831 -26 callsubr
          -4 vhcurveto
          -27 -31 -2 -28 hhcurveto
          -59 -29 2 0 hvcurveto
          107 callsubr
          -9 8 -1 7 hvcurveto
          37 -1 20 -11 -30 vvcurveto
          -9 -2 -12 -2 -6 vhcurveto
          -89 -358 rlineto
          -115 -29 -100 -104 -101 hhcurveto
          -57 -50 40 86 23 4 32 6 22 hvcurveto
          100 401 rlineto
          34 9 6 8 62 hhcurveto
          17 9 62 callsubr
          -35 -37 -2 -36 -37 -38 2 -36 -81 callsubr
          -98 -394 rlineto
          -8 -32 0 -19 -15 vvcurveto
          -99 57 -62 71 -18 vhcurveto
          -39 -30 -34 -36 -8 -39 rrcurveto
          -38 callgsubr
          -59 callsubr
          6 104 callsubr
          6 4 rcurveline
          12 hlineto
          121 110 125 117 29 hvcurveto
          90 362 16 63 42 6 37 2 rlinecurve
          4 11 1 17 hvcurveto
          endchar
        </CharString>
        <CharString name="Upsilon">
          750 0 29 610 65 hstem
          449 46 292 30 vstem
          817 599 rmoveto
          60 -27 45 -59 -144 -73 -181 -54 -22 vhcurveto
          -1 hlineto
          4 28 0 28 5 vvcurveto
          36 0 138 -125 -107 -51 -141 -18 -8 8 0 3 12 2 5 11 4 vhcurveto
          46 15 44 40 53 hhcurveto
          77 19 -63 -67 -41 -8 -56 -10 -40 hvcurveto
          -75 -300 rlineto
          -34 -9 -9 -9 -74 67 callgsubr
          129 2 131 -2 rlineto
          18 callgsubr
          3 0 2 4 15 hvcurveto
          74 300 rlineto
          30 7 60 240 145 hhcurveto
          51 20 -38 -32 hvcurveto
          -7 -3 -12 -5 vvcurveto
          -8 8 0 3 22 0 34 28 vhcurveto
          endchar
        </CharString>
        <CharString name="Uring">
          24 callsubr
          31 99 callgsubr
          113 callgsubr
          226 100 callgsubr
          hintmask 11001000
          -105 callsubr
          hintmask 00110110
          -186 153 -70 callsubr
          endchar
        </CharString>
        <CharString name="Utilde">
          78 callsubr
          -21 callgsubr
          200 68 hintmask 11000010
          -105 callsubr
          hintmask 00010000
          -92 149 -95 callsubr
        </CharString>
        <CharString name="V">
          727 0 -21 675 29 hstem
          853 673 rmoveto
          10 -12 0 0 vhcurveto
          -22 -27 -2 -23 -27 -29 2 -26 hhcurveto
          -6 -11 0 -19 -9 8 -1 5 hvcurveto
          6 -1 31 -2 -29 vvcurveto
          -12 -8 -14 -3 -5 vhcurveto
          -300 -503 -52 520 -2 18 -2 27 61 1 rlinecurve
          15 9 62 callsubr
          -33 -35 -2 -34 -32 -34 2 -31 hhcurveto
          -6 -11 64 callgsubr
          10 48 3 -7 -29 3 hvcurveto
          60 -617 rlineto
          -18 2 2 -4 13 hhcurveto
          13 2 3 13 8 hvcurveto
          346 576 29 48 24 29 55 6 rlinecurve
          10 1 8 1 17 vvcurveto
          endchar
        </CharString>
        <CharString name="W">
          93 callgsubr
          hstem
          -86 callsubr
          endchar
        </CharString>
        <CharString name="Wacute">
          93 callgsubr
          82 76 callsubr
          hintmask 11000000
          -86 callsubr
          hintmask 00110000
          -262 197 -104 callgsubr
        </CharString>
        <CharString name="Wcircumflex">
          93 callgsubr
          hstemhm
          -86 callsubr
          -289 80 -67 callsubr
        </CharString>
        <CharString name="Wdieresis">
          93 callgsubr
          51 87 hstemhm
          hintmask 11000000
          -86 callsubr
          hintmask 00100000
          -471 112 -70 callgsubr
        </CharString>
        <CharString name="Wgrave">
          93 callgsubr
          82 76 callsubr
          hintmask 11000000
          -86 callsubr
          hintmask 00110000
          -357 88 -76 callgsubr
        </CharString>
        <CharString name="X">
          -50 callsubr
        </CharString>
        <CharString name="Xi">
          650 0 59 97 -20 164 -21 44 59 44 -20 213 59 hstem
          715 536 rmoveto
          24 118 rlineto
          1 4 1 4 5 vvcurveto
          11 -7 0 -17 vhcurveto
          -450 hlineto
          -21 -1 -1 -16 -5 hvcurveto
          -31 -101 rlineto
          -5 -14 69 callgsubr
          10 0 4 11 1 2 19 6 vhcurveto
          1 5 14 45 9 8 rrcurveto
          7 6 50 0 11 hhcurveto
          309 hlineto
          16 4 0 -1 18 hvcurveto
          23 -2 1 -1 -10 vvcurveto
          -13 -7 -37 -1 -2 vhcurveto
          0 -1 -6 -3 vvcurveto
          -11 9 0 5 7 5 3 0 vhcurveto
          -96 -403 rmoveto
          2 8 1 5 0 vvcurveto
          -1 callgsubr
          -2 -20 -5 vhcurveto
          -9 -28 -12 -40 -11 -3 rrcurveto
          -4 -19 -29 0 -18 hhcurveto
          -312 hlineto
          -16 -4 0 1 -18 hvcurveto
          -26 2 -1 1 9 vvcurveto
          5 2 19 7 39 vhcurveto
          2 6 0 5 0 vvcurveto
          7 callsubr
          -13 -1 -4 -17 -3 vhcurveto
          -22 -111 rlineto
          -2 -11 0 -3 0 43 callsubr
          460 hlineto
          21 1 1 17 5 hvcurveto
          -10 279 rmoveto
          26 106 rlineto
          2 8 1 2 3 vvcurveto
          40 callsubr
          -11 -1 -3 -15 -4 vhcurveto
          -3 -10 -2 -7 -2 -9 rrcurveto
          -292 hlineto
          8 34 rlineto
          40 callsubr
          -12 -1 -4 -13 -3 vhcurveto
          -27 -106 92 callgsubr
          -10 10 0 3 12 0 3 15 4 vhcurveto
          3 8 2 9 2 9 rrcurveto
          292 hlineto
          -7 -28 0 -2 -4 77 callgsubr
          9 4 0 18 4 vhcurveto
          endchar
        </CharString>
        <CharString name="Y">
          23 callgsubr
          hstem
          -99 callsubr
          endchar
        </CharString>
        <CharString name="Yacute">
          23 callgsubr
          82 76 callsubr
          hintmask 11000000
          -99 callsubr
          hintmask 00110000
          -144 197 -104 callgsubr
        </CharString>
        <CharString name="Ycircumflex">
          23 callgsubr
          hstemhm
          -99 callsubr
          -171 80 -67 callsubr
        </CharString>
        <CharString name="Ydieresis">
          23 callgsubr
          51 87 hstemhm
          hintmask 11000000
          -99 callsubr
          hintmask 00100000
          -353 112 -70 callgsubr
        </CharString>
        <CharString name="Ydotbelow">
          23 callgsubr
          hstemhm
          -99 callsubr
          -485 -816 -97 callgsubr
          endchar
        </CharString>
        <CharString name="Ygrave">
          23 callgsubr
          82 76 callsubr
          hintmask 11000000
          -99 callsubr
          hintmask 00110000
          -239 88 -76 callgsubr
        </CharString>
        <CharString name="Yhookabove">
          23 callgsubr
          93 129 callgsubr
          hstemhm
          hintmask 11000000
          -99 callsubr
          hintmask 00110000
          -184 225 -107 callsubr
        </CharString>
        <CharString name="Ytilde">
          23 callgsubr
          51 -21 callgsubr
          hintmask 11000000
          -99 callsubr
          hintmask 00010000
          -142 148 -95 callsubr
        </CharString>
        <CharString name="Z">
          63 callsubr
          hstem
          -78 callgsubr
          endchar
        </CharString>
        <CharString name="Zacute">
          63 callsubr
          82 76 callsubr
          hintmask 11000000
          -78 callgsubr
          hintmask 00110000
          132 852 -104 callgsubr
        </CharString>
        <CharString name="Zcaron">
          63 callsubr
          hstemhm
          -78 callgsubr
          124 816 -74 callsubr
        </CharString>
        <CharString name="Zdotaccent">
          63 callsubr
          72 97 hstemhm
          hintmask 11000000
          -78 callgsubr
          hintmask 00100000
          31 794 -97 callgsubr
          endchar
        </CharString>
        <CharString name="Zdotbelow">
          63 callsubr
          hstemhm
          -78 callgsubr
          -208 -161 -97 callgsubr
          endchar
        </CharString>
        <CharString name="Zeta">
          63 callsubr
          hstem
          -78 callgsubr
          endchar
        </CharString>
        <CharString name="a">
          -23 callgsubr
          hstem
          98 62 vstem
          -106 callsubr
          endchar
        </CharString>
        <CharString name="aacute">
          -23 callgsubr
          107 97 callgsubr
          hstemhm
          98 62 hintmask 11001000
          -106 callsubr
          hintmask 00110000
          145 358 -94 callsubr
        </CharString>
        <CharString name="abreve">
          62 callgsubr
          33 137 -20 hstemhm
          98 62 hintmask 11001000
          -106 callsubr
          hintmask 00110000
          20 callsubr
          endchar
        </CharString>
        <CharString name="abreveacute">
          62 callgsubr
          33 314 -20 hstemhm
          98 62 hintmask 11001000
          -106 callsubr
          hintmask 00110000
          20 callsubr
          5 155 -104 callgsubr
        </CharString>
        <CharString name="abrevedotbelow">
          62 callgsubr
          33 137 -20 hstemhm
          98 62 vstemhm
          -106 callsubr
          20 callsubr
          -292 -821 -97 callgsubr
          endchar
        </CharString>
        <CharString name="abrevegrave">
          62 callgsubr
          33 137 -20 hstemhm
          98 62 hintmask 11001000
          -106 callsubr
          hintmask 00110000
          20 callsubr
          -22 46 rmoveto
          -2 -8 -12 -8 -5 -1 -5 -1 -5 2 -3 2 -130 97 rcurveline
          -7 3 -11 8 6 15 rrcurveto
          18 5 18 13 18 hhcurveto
          13 9 -9 0 hvcurveto
          106 -120 7 -6 0 -2 -2 -3 rlinecurve
          endchar
        </CharString>
        <CharString name="abrevehookabove">
          62 callgsubr
          33 348 -20 hstemhm
          98 62 hintmask 11001000
          -106 callsubr
          hintmask 00110000
          20 callsubr
          -8 152 -107 callsubr
        </CharString>
        <CharString name="abrevetilde">
          62 callgsubr
          115 callsubr
          98 62 hintmask 11000001
          -106 callsubr
          hintmask 00101000
          168 367 -16 callgsubr
          hintmask 00010010
          -87 callgsubr
          hintmask 00000100
          -3 3 -6 6 4 2 0 13 13 vhcurveto
          hintmask 00010010
          -92 callsubr
        </CharString>
        <CharString name="acaron">
          -23 callgsubr
          hstemhm
          98 62 vstemhm
          -106 callsubr
          169 355 -69 callgsubr
        </CharString>
        <CharString name="acircumflex">
          -23 callgsubr
          hstemhm
          98 62 vstemhm
          -106 callsubr
          135 226 -75 callsubr
          endchar
        </CharString>
        <CharString name="acircumflexacute">
          -23 callgsubr
          394 -20 -54 callsubr
          135 227 -103 callsubr
          25 246 -104 callgsubr
        </CharString>
        <CharString name="acircumflexdotbelow">
          -23 callgsubr
          hstemhm
          98 62 vstemhm
          -106 callsubr
          135 226 -75 callsubr
          -259 -680 -97 callgsubr
          endchar
        </CharString>
        <CharString name="acircumflexgrave">
          -23 callgsubr
          hstemhm
          98 62 vstemhm
          -106 callsubr
          135 227 -77 callsubr
        </CharString>
        <CharString name="acircumflexhookabove">
          -23 callgsubr
          428 -20 -54 callsubr
          135 227 -103 callsubr
          99 243 -107 callsubr
        </CharString>
        <CharString name="acircumflextilde">
          -23 callgsubr
          257 125 callsubr
          hintmask 11000010
          -106 callsubr
          hintmask 00010000
          135 227 -103 callsubr
          68 227 -95 callsubr
        </CharString>
        <CharString name="acute">
          500 528 39 callsubr
          531 669 -94 callsubr
        </CharString>
        <CharString name="acute.cap">
          500 512 89 callgsubr
          hstem
          539 617 -104 callgsubr
        </CharString>
        <CharString name="acute.dup">
          500 528 39 callsubr
          531 669 -94 callsubr
        </CharString>
        <CharString name="acute.ts1">
          500 528 39 callsubr
          542 669 rmoveto
          3 vlineto
          13 -1 -11 11 -13 hhcurveto
          -5 hlineto
          -13 -2 -8 -9 -9 -9 -18 -18 rcurveline
          -118 -121 -3 -3 -5 -4 -2 -5 rlinecurve
          -3 vlineto
          -7 7 -7 7 -1 vhcurveto
          11 22 23 11 15 hvcurveto
          119 94 rlineto
          11 9 14 9 16 vvcurveto
          endchar
        </CharString>
        <CharString name="adblgrave">
          -23 callgsubr
          107 97 callgsubr
          hstemhm
          98 62 hintmask 11001000
          -106 callsubr
          hintmask 00110000
          108 210 -102 callsubr
        </CharString>
        <CharString name="adieresis">
          -23 callgsubr
          137 87 -54 callsubr
          -21 298 -52 callsubr
        </CharString>
        <CharString name="adotbelow">
          -23 callgsubr
          hstemhm
          98 62 vstemhm
          -106 callsubr
          -124 -454 -97 callgsubr
          endchar
        </CharString>
        <CharString name="ae">
          700 -10 20 222 20 169 20 hstem
          92 67 510 34 vstem
          -62 callsubr
          endchar
        </CharString>
        <CharString name="ae.dup">
          700 -10 20 222 20 169 20 hstem
          92 67 510 34 vstem
          -62 callsubr
          endchar
        </CharString>
        <CharString name="aeacute">
          700 -10 20 222 20 169 20 110 callsubr
          92 67 510 34 hintmask 11100110
          -62 callsubr
          hintmask 00011000
          210 278 -94 callsubr
        </CharString>
        <CharString name="agrave">
          -23 callgsubr
          107 97 callgsubr
          hstemhm
          98 62 hintmask 11001000
          -106 callsubr
          hintmask 00110000
          51 211 rmoveto
          -72 callgsubr
        </CharString>
        <CharString name="ahookabove">
          62 callgsubr
          129 callgsubr
          hstemhm
          98 62 hintmask 11001000
          -106 callsubr
          hintmask 00110000
          112 328 -107 callsubr
        </CharString>
        <CharString name="amacron">
          -23 callgsubr
          167 28 -54 callsubr
          177 295 -82 callsubr
        </CharString>
        <CharString name="ampersand">
          750 -21 20 313 20 110 20 64 73 23 73 0 20 hstemhm
          124 70 0 15 187 28 69 15 -15 28 169 29 hintmask 1111100111010000
          719 313 rmoveto
          70 -28 48 -29 36 vhcurveto
          100 74 28 111 14 vvcurveto
          8 -5 20 -26 -25 -19 -23 -21 0 0 -28 33 vhcurveto
          -37 -94 -67 -43 -40 -25 rrcurveto
          -63 -40 -60 -38 -71 vvcurveto
          -49 30 -20 29 25 19 20 23 25 -19 4 -11 -11 -22 -6 -25 -8 vhcurveto
          -2 7 -3 6 11 vvcurveto
          61 39 25 91 57 vhcurveto
          52 -64 0 -56 -20 vvcurveto
          -91 -63 -220 -252 -85 -96 39 119 50 27 92 26 47 vhcurveto
          -13 13 29 -21 39 hhcurveto
          55 41 49 42 28 -18 31 -45 -42 -43 -26 -9 -13 hvcurveto
          94 3 55 174 97 hhcurveto
          27 48 -14 -82 hvcurveto
          -49 -3 -35 -9 -29 27 0 4 hvcurveto
          hintmask 0000010100100000
          47 2 59 18 58 -34 54 -69 -102 -107 -131 -129 -31 6 -22 5 -13 hvcurveto
          hintmask 1110001010010000
          -62 -65 -34 -94 -55 vvcurveto
          -102 88 -94 160 273 74 230 104 vhcurveto
          -323 94 rmoveto
          -39 -29 -36 -37 -32 -21 24 26 -8 vhcurveto
          22 19 33 38 41 hhcurveto
          16 18 -8 -27 hvcurveto
          endchar
        </CharString>
        <CharString name="anglearc">
          750 -30 -21 602 -20 hstem
          679 18 rmoveto
          2 8 -3 6 -6 3 -116 53 rcurveline
          32 51 24 55 14 56 13 56 4 55 -6 51 143 53 rcurveline
          7 3 6 6 2 8 3 13 -11 9 -13 -5 -142 -54 rcurveline
          -7 36 -13 33 -16 30 rrcurveto
          4 -3 -4 3 -6 hhcurveto
          -10 -10 -8 -10 -2 hvcurveto
          -1 -4 0 -4 2 -3 15 -28 11 -30 7 -32 -442 -165 rcurveline
          -7 -3 -7 -6 -1 -8 -2 -8 3 -6 5 -3 360 -165 rcurveline
          -23 -32 -26 -30 -29 -28 -3 128 callsubr
          -4 rrcurveto
          -10 -2 6 -8 10 hhcurveto
          5 6 3 4 4 hvcurveto
          33 30 28 33 25 36 116 -54 rcurveline
          11 -5 15 9 3 13 rrcurveto
          -89 232 rmoveto
          -13 -51 -22 -50 -29 -47 -323 148 rcurveline
          397 148 6 -47 -4 -50 -12 -51 rlinecurve
          endchar
        </CharString>
        <CharString name="angleleft">
          400 -229 -21 1000 67 callsubr
          266 -233 rmoveto
          4 vlineto
          15 -2 18 -2 15 vhcurveto
          -36 406 rlineto
          -1 4 0 5 5 vvcurveto
          6 vlineto
          1 5 3 5 3 4 12 21 rcurveline
          258 439 rlineto
          3 5 2 5 5 vvcurveto
          9 -1 -8 8 -9 hhcurveto
          hintmask 11000000
          -5 -1 -14 -4 -10 -25 -8 -14 rlinecurve
          -247 -420 rlineto
          -7 -12 -12 -13 -15 vvcurveto
          -5 1 -6 1 -5 vhcurveto
          4 -45 36 -406 rlineto
          -13 3 -17 16 9 9 8 9 1 vhcurveto
          endchar
        </CharString>
        <CharString name="angleright">
          400 81 callgsubr
          hstemhm
          258 38 -37 37 4 37 hintmask 01010000
          337 255 rmoveto
          22 -3 25 -3 22 vhcurveto
          -32 370 -3 27 rlineto
          13 -4 16 -16 vhcurveto
          -4 hlineto
          hintmask 00100000
          -8 -2 -5 -6 -1 -8 rrcurveto
          hintmask 10011000
          -6 1 -5 -6 vvcurveto
          3 -30 31 -359 rlineto
          3 -22 4 -23 -22 vvcurveto
          -12 -13 -15 -6 -11 vhcurveto
          -255 -434 -4 -6 -4 -5 -1 -7 rlinecurve
          -2 vlineto
          -10 9 -9 10 16 9 26 15 9 vhcurveto
          207 352 40 68 12 20 rlineto
          5 8 3 7 9 vvcurveto
          endchar
        </CharString>
        <CharString name="aogonek">
          117 callsubr
          hstem
          98 62 229 79 vstem
          -39 callgsubr
          endchar
        </CharString>
        <CharString name="aogonekacute">
          117 callsubr
          107 97 callgsubr
          hstemhm
          98 62 229 79 hintmask 11100110
          -39 callgsubr
          hintmask 00011000
          145 358 -94 callsubr
        </CharString>
        <CharString name="aring">
          -23 callgsubr
          106 99 callgsubr
          hstemhm
          98 62 152 100 callgsubr
          hintmask 11001000
          -106 callsubr
          hintmask 00110110
          77 327 -70 callsubr
          endchar
        </CharString>
        <CharString name="aringacute">
          -23 callgsubr
          106 99 callgsubr
          177 -20 hstemhm
          98 62 153 100 callgsubr
          hintmask 11000100
          -106 callsubr
          hintmask 00111011
          78 327 -70 callsubr
          67 213 -104 callgsubr
        </CharString>
        <CharString name="asciicircum">
          556 583 -21 hstem
          707 584 rmoveto
          -243 160 -323 -160 6 -22 301 123 242 -123 rlineto
          endchar
        </CharString>
        <CharString name="asciitilde">
          556 193 43 28 43 hstem
          627 290 0 callgsubr
        </CharString>
        <CharString name="asciitilde.low">
          556 0 43 28 43 hstem
          579 97 0 callgsubr
        </CharString>
        <CharString name="asterisk">
          500 340 -21 431 -20 hstem
          192 382 vstem
          527 446 rmoveto
          9 -6 3 -10 7 vhcurveto
          -110 69 149 72 rlineto
          9 4 15 7 17 vvcurveto
          8 -5 11 -14 -8 -5 -3 -3 -4 vhcurveto
          -140 -94 54 164 rlineto
          1 4 3 7 5 vvcurveto
          10 -9 7 -10 -25 -4 -24 -9 -2 vhcurveto
          -28 -163 -89 88 rlineto
          11 -11 -3 0 -5 hhcurveto
          -17 -14 -17 -13 -4 1 -6 14 -9 hvcurveto
          111 -69 -149 -72 rlineto
          -9 -4 -15 -7 -17 vvcurveto
          -19 18 0 7 vhcurveto
          151 100 -52 -161 rlineto
          -5 -14 0 -2 -3 vvcurveto
          -15 13 -2 5 26 4 23 9 1 vhcurveto
          28 165 89 -89 rlineto
          -11 11 3 0 6 hhcurveto
          14 16 15 15 hvcurveto
          endchar
        </CharString>
        <CharString name="asterisk.math">
          500 57 -21 430 -20 hstem
          455 163 rmoveto
          4 vlineto
          -4 12 -18 7 -10 7 -92 58 rcurveline
          140 67 rlineto
          14 7 17 7 19 vvcurveto
          10 -8 8 -10 -20 -42 -36 -18 -28 vhcurveto
          -22 -14 -23 -14 -21 -16 5 20 8 19 6 20 26 79 rcurveline
          3 12 8 15 13 vvcurveto
          10 -9 7 -9 -30 -2 -34 -23 -4 vhcurveto
          -19 -110 rlineto
          -1 -9 -3 -10 -9 vvcurveto
          -64 63 -20 20 rlineto
          6 -6 -8 10 -10 hhcurveto
          -15 -15 -16 -15 hvcurveto
          -4 vlineto
          4 -12 18 -7 10 -7 92 -58 rcurveline
          -140 -67 rlineto
          -14 -7 -17 -7 -19 vvcurveto
          -10 8 -8 10 20 42 36 18 28 vhcurveto
          22 14 23 14 21 16 -5 -20 -8 -19 -6 -20 -26 -79 rcurveline
          -3 -12 -8 -15 -13 vvcurveto
          -10 9 -7 9 30 2 34 23 4 vhcurveto
          19 110 rlineto
          1 9 3 10 9 vvcurveto
          64 -63 20 -20 rlineto
          -6 6 8 -10 10 hhcurveto
          15 15 16 15 hvcurveto
          endchar
        </CharString>
        <CharString name="at">
          750 -10 20 119 20 396 20 119 20 hstem
          149 28 97 57 213 57 145 28 vstem
          764 359 rmoveto
          5 25 5 33 31 vvcurveto
          147 -89 109 -137 -196 -203 -225 -232 -144 83 -113 147 31 59 2 21 80 vhcurveto
          25 6 116 35 15 vvcurveto
          8 -6 0 -17 -15 -2 0 -7 -14 vhcurveto
          -36 -81 -87 -24 -89 hhcurveto
          -134 -68 109 126 221 190 218 180 119 80 -97 -138 -47 -38 -253 -89 -7 -11 1 24 9 3 12 0 hvcurveto
          65 262 rlineto
          1 4 1 6 4 vvcurveto
          9 -7 0 -16 vhcurveto
          -25 hlineto
          59 -19 -44 26 -47 hhcurveto
          -117 -122 -138 -141 -106 67 -51 67 68 50 50 18 18 hvcurveto
          -59 50 -9 21 71 42 68 162 36 vhcurveto
          -163 71 rmoveto
          -41 -162 -8 -30 -22 -24 -23 -21 rlinecurve
          -40 -45 -38 -4 -13 hhcurveto
          -68 -12 86 35 126 94 149 88 74 17 -87 -13 -4 -1 -3 -2 -8 hvcurveto
          endchar
        </CharString>
        <CharString name="atilde">
          -23 callgsubr
          132 125 callsubr
          hintmask 11000010
          -106 callsubr
          hintmask 00010000
          173 329 -95 callsubr
        </CharString>
        <CharString name="b">
          450 65 callgsubr
          hstem
          114 52 220 63 vstem
          449 60 callgsubr
          71 286 1 callsubr
          -101 -405 2 callgsubr
        </CharString>
        <CharString name="backslash">
          500 74 callsubr
          386 -230 rmoveto
          0 1 5 -2 13 vhcurveto
          -105 940 rlineto
          11 -1 -1 11 -14 hhcurveto
          -11 -12 -9 -11 -2 hvcurveto
          0 -2 -5 2 -13 vhcurveto
          105 -940 rlineto
          -11 1 2 -11 14 hhcurveto
          11 11 9 11 3 hvcurveto
          endchar
        </CharString>
        <CharString name="baht">
          688 0 29 316 20 289 29 hstem
          580 82 vstem
          662 220 rmoveto
          78 -59 49 -78 10 vhcurveto
          107 21 88 82 88 vvcurveto
          70 -55 65 -109 vhcurveto
          -35 hlineto
          7 28 rlineto
          8 2 -5 6 -7 hhcurveto
          -8 96 callsubr
          -7 -28 rlineto
          -234 -2 callgsubr
          229 hlineto
          -7 -28 rlineto
          58 callsubr
          7 8 87 callgsubr
          7 28 rlineto
          60 hlineto
          137 115 114 106 hvcurveto
          -23 333 rmoveto
          -87 -79 -101 -114 vhcurveto
          -5 hlineto
          73 289 rlineto
          29 hlineto
          79 17 -59 -42 hvcurveto
          -153 101 rmoveto
          -73 -289 rlineto
          -98 hlineto
          62 251 rlineto
          38 9 7 0 33 hhcurveto
          154 -422 rmoveto
          -105 -86 -98 -106 vhcurveto
          -31 hlineto
          79 316 rlineto
          44 hlineto
          78 22 -62 -51 hvcurveto
          -251 -203 rmoveto
          -64 hlineto
          -29 -1 1 11 4 0 2 4 14 hvcurveto
          70 284 rlineto
          99 hlineto
          endchar
        </CharString>
        <CharString name="bar">
          278 74 callsubr
          105 -217 rmoveto
          3 callgsubr
          endchar
        </CharString>
        <CharString name="bigcircle">
          -61 callgsubr
          endchar
        </CharString>
        <CharString name="blanksymbol">
          450 65 callgsubr
          hstem
          114 52 220 63 vstem
          449 60 callgsubr
          45 182 84 72 3 2 2 4 1 3 rlinecurve
          68 callsubr
          -4 -4 -1 -3 -3 hvcurveto
          -58 -49 16 62 1 callsubr
          -19 -76 -99 -86 rlineto
          -3 -2 -3 -3 -4 vvcurveto
          81 callsubr
          4 4 2 3 4 hvcurveto
          73 62 -72 -287 2 callgsubr
        </CharString>
        <CharString name="braceleft">
          500 -229 -21 487 24 489 -20 hstem
          612 739 rmoveto
          11 3 -8 0 -12 hhcurveto
          -100 -102 -51 -72 -20 hvcurveto
          -46 -183 -23 -94 -4 -16 -33 -28 rlinecurve
          -18 -14 -34 -27 -64 -4 rrcurveto
          -7 -7 -1 -10 -2 hvcurveto
          -3 -10 6 0 10 -1 42 -3 80 -21 -25 -100 -50 -198 rcurveline
          -14 -58 -9 -34 43 -37 rrcurveto
          -30 36 63 -8 31 hhcurveto
          12 8 0 11 2 hvcurveto
          3 10 -6 0 -10 1 rrcurveto
          -78 5 -25 45 36 vvcurveto
          -1 11 1 2 9 35 37 150 rcurveline
          8 30 12 51 1 10 3 66 -57 26 -36 11 126 34 18 71 7 28 45 180 rcurveline
          18 72 5 22 31 25 22 18 29 24 71 4 5 1 5 4 2 6 rrcurveto
          endchar
        </CharString>
        <CharString name="braceright">
          500 -229 -21 510 -21 511 -20 hstem
          490 250 rmoveto
          2 10 -6 0 -10 1 -42 3 -80 21 25 100 50 198 rcurveline
          14 58 9 34 -43 37 rrcurveto
          29 -36 -61 9 -32 hhcurveto
          -10 -10 0 -11 -3 hvcurveto
          -3 -10 6 0 10 -1 rrcurveto
          78 -5 26 -45 -36 vvcurveto
          -11 -1 -2 -8 -35 vhcurveto
          -38 -150 -7 -30 -13 -51 -1 -10 rlinecurve
          -3 -66 57 -26 37 -11 -127 -34 -18 -71 -7 -28 -45 -180 rcurveline
          -18 -72 -5 -22 -30 -25 -23 -18 -29 -24 -71 -4 -5 -1 -5 -4 -2 -6 rrcurveto
          -11 -2 10 0 10 hhcurveto
          100 101 51 72 20 hvcurveto
          46 183 24 94 4 16 33 28 rlinecurve
          17 14 34 27 64 4 rrcurveto
          7 7 1 10 3 hvcurveto
          endchar
        </CharString>
        <CharString name="bracketleft">
          300 -250 37 926 37 hstem
          199 -224 rmoveto
          11 -7 0 -17 vhcurveto
          -60 hlineto
          231 926 rlineto
          65 hlineto
          17 12 0 27 16 callgsubr
          hvcurveto
          -75 hlineto
          -22 -1 -1 -16 -4 hvcurveto
          -240 -960 rlineto
          -2 -6 -1 -4 119 callgsubr
          75 hlineto
          17 12 0 26 hvcurveto
          endchar
        </CharString>
        <CharString name="bracketright">
          300 -250 37 926 37 hstem
          110 -233 rmoveto
          240 960 rlineto
          2 6 1 4 3 vvcurveto
          16 callgsubr
          vhcurveto
          -75 hlineto
          -17 -12 0 -26 3 callsubr
          60 hlineto
          -231 -926 rlineto
          -65 hlineto
          -17 -12 0 -27 -10 8 0 16 hvcurveto
          75 hlineto
          22 1 1 16 4 hvcurveto
          endchar
        </CharString>
        <CharString name="breve">
          120 callgsubr
          137 15 callsubr
          endchar
        </CharString>
        <CharString name="breve.cap">
          500 491 33 137 -20 hstem
          547 652 -88 callgsubr
        </CharString>
        <CharString name="breve.ts1">
          600 523 33 138 -20 21 -20 hstemhm
          282 20 hintmask 11010000
          653 675 rmoveto
          1 2 0 4 3 vvcurveto
          5 -2 5 -6 vhcurveto
          -1 hlineto
          -10 -2 -14 -8 -3 hvcurveto
          -74 -27 -91 -42 -78 hhcurveto
          -57 -75 29 74 hvcurveto
          1 8 3 8 8 vvcurveto
          3 vlineto
          hintmask 00100000
          5 -1 -4 4 -5 hhcurveto
          hintmask 11010000
          -3 -1 -10 -3 0 -18 -1 -9 rlinecurve
          -9 vlineto
          -88 76 -44 75 93 98 60 92 29 vhcurveto
          endchar
        </CharString>
        <CharString name="brokenbar">
          278 74 callsubr
          245 343 rmoveto
          93 374 rlineto
          14 4 5 19 -20 hhcurveto
          -20 -5 -19 -14 -4 hvcurveto
          -93 -374 rlineto
          -9 -2 8 -5 10 hhcurveto
          10 12 5 9 2 hvcurveto
          -140 -560 rmoveto
          93 374 rlineto
          9 2 -8 5 -10 hhcurveto
          -10 -12 -5 -9 -2 hvcurveto
          -93 -374 rlineto
          22 callgsubr
          endchar
        </CharString>
        <CharString name="bullet">
          750 95 286 59 callsubr
          endchar
        </CharString>
        <CharString name="c">
          42 callsubr
          hstem
          110 64 209 78 vstem
          -65 callsubr
          -102 61 -60 80 124 82 101 14 vhcurveto
          endchar
        </CharString>
        <CharString name="cacute">
          42 callsubr
          107 97 callgsubr
          hstemhm
          110 64 209 78 hintmask 11100110
          -65 callsubr
          -102 61 -60 80 124 82 101 14 vhcurveto
          hintmask 00011000
          72 564 -94 callsubr
        </CharString>
        <CharString name="caron">
          500 555 666 -69 callgsubr
        </CharString>
        <CharString name="caron.cap">
          500 531 581 -74 callsubr
        </CharString>
        <CharString name="caron.ts1">
          600 564 -21 155 -20 hstem
          643 682 rmoveto
          7 -4 7 -6 2 vhcurveto
          -2 hlineto
          -10 -17 -14 -6 -11 hvcurveto
          -45 -26 -44 -31 -47 -23 rrcurveto
          -3 -3 -4 -2 -4 hhcurveto
          -2 hlineto
          -7 2 -14 13 -8 8 rrcurveto
          21 -25 -60 61 -17 hhcurveto
          -2 hlineto
          -8 -1 -6 -8 -7 vvcurveto
          -14 33 -26 17 -15 vhcurveto
          27 -24 24 -29 27 -24 rrcurveto
          -3 4 4 -4 4 hhcurveto
          1 hlineto
          9 26 19 12 16 hvcurveto
          123 81 rlineto
          9 8 22 7 12 vvcurveto
          endchar
        </CharString>
        <CharString name="ccaron">
          42 callsubr
          hstemhm
          110 64 209 78 vstemhm
          -65 callsubr
          -102 61 -60 80 124 82 101 14 vhcurveto
          96 561 -69 callgsubr
        </CharString>
        <CharString name="ccedilla">
          42 callsubr
          hstem
          110 64 209 78 vstem
          -65 callsubr
          -77 34 -53 51 -21 vhcurveto
          -3 -11 -11 -47 24 callgsubr
          3 11 4 19 3 15 rrcurveto
          124 1 81 100 14 vvcurveto
          endchar
        </CharString>
        <CharString name="ccircumflex">
          42 callsubr
          hstemhm
          110 64 209 78 vstemhm
          -65 callsubr
          -102 61 -60 80 124 82 101 14 vhcurveto
          62 432 -75 callsubr
          endchar
        </CharString>
        <CharString name="cdotaccent">
          42 callsubr
          132 97 hstemhm
          110 64 209 78 hintmask 11101100
          -65 callsubr
          -102 61 -60 80 124 82 101 14 vhcurveto
          hintmask 00010000
          -9 505 -97 callgsubr
          endchar
        </CharString>
        <CharString name="cedilla">
          -4 callsubr
        </CharString>
        <CharString name="cedilla.dup">
          -4 callsubr
        </CharString>
        <CharString name="cent">
          450 11 -21 309 75 68 -21 66 callgsubr
          -49 -66 -68 -29 -50 -4 103 410 rcurveline
          17 -2 35 -8 11 -38 rrcurveto
          -25 -1 -22 -19 -24 vvcurveto
          -25 22 -5 9 10 37 6 52 43 -36 35 -53 5 vhcurveto
          4 19 rlineto
          108 callsubr
          -4 -19 rlineto
          -118 -10 -116 -136 -142 vvcurveto
          -93 51 -59 70 -9 vhcurveto
          -4 -19 rlineto
          81 callsubr
          8 8 87 callgsubr
          4 18 rlineto
          120 4 78 97 14 vvcurveto
          -119 314 rmoveto
          -102 -407 rlineto
          -40 8 -22 41 53 vvcurveto
          46 24 110 33 57 vhcurveto
          29 51 40 33 38 8 rrcurveto
          endchar
        </CharString>
        <CharString name="cent.oldstyle">
          450 -10 20 289 75 47 20 66 callgsubr
          -72 -53 -75 -28 -51 hhcurveto
          -16 -14 4 8 -11 hvcurveto
          184 391 15 -7 14 -12 6 -21 rlinecurve
          -25 -1 -22 -19 -24 vvcurveto
          -25 22 -5 9 10 37 6 52 34 -22 28 -34 14 vhcurveto
          11 23 rlineto
          8 4 -5 9 -9 hhcurveto
          -7 -6 -5 -6 -3 hvcurveto
          -11 -23 rlineto
          1 -7 -7 1 -7 hhcurveto
          -122 -126 -141 -148 -67 26 -49 41 -25 hvcurveto
          -17 -36 rlineto
          -9 -4 5 -8 8 hhcurveto
          7 7 5 6 3 hvcurveto
          14 30 rlineto
          -6 16 17 -3 18 hhcurveto
          124 82 101 14 hvcurveto
          -87 315 rmoveto
          -178 -377 rlineto
          -12 18 -6 25 28 vvcurveto
          46 24 110 33 57 vhcurveto
          60 34 49 34 43 hhcurveto
          2 5 0 -1 6 hvcurveto
          endchar
        </CharString>
        <CharString name="centigrade">
          900 -20 29 475 37 126 37 -8 29 hstemhm
          347 80 hintmask 10011000
          935 441 rmoveto
          53 214 3 12 4 12 2 12 rlinecurve
          4 vlineto
          6 -3 4 -6 -14 -40 -61 -28 -25 vhcurveto
          60 -26 -62 29 -61 hhcurveto
          -232 -181 -260 -199 -119 65 -147 173 hvcurveto
          12 hlineto
          136 8 111 118 37 122 rrcurveto
          1 4 2 5 4 vvcurveto
          2 vlineto
          6 -1 -5 2 -5 hhcurveto
          -23 -1 -33 -19 -8 hvcurveto
          -95 -40 -92 -95 -109 hhcurveto
          -56 -49 25 46 -33 hvcurveto
          -26 38 -9 44 45 vvcurveto
          47 9 46 12 45 vhcurveto
          26 107 51 101 90 67 rrcurveto
          32 42 56 24 54 hhcurveto
          106 36 -96 -81 -16 0 -17 -2 -16 hvcurveto
          -1 -5 -2 -7 -6 vvcurveto
          -8 5 -3 8 vhcurveto
          6 hlineto
          9 2 1 11 2 7 rrcurveto
          -562 163 rmoveto
          hintmask 01100000
          39 -25 41 -59 vhcurveto
          -8 hlineto
          -58 -7 -54 -52 -60 vvcurveto
          -41 27 -40 56 vhcurveto
          8 hlineto
          58 6 55 53 61 vvcurveto
          -38 -6 rmoveto
          -39 -4 -39 -38 -39 hhcurveto
          -27 -20 16 32 hvcurveto
          39 5 37 39 41 hhcurveto
          23 24 -14 -28 -3 -1 -4 0 hvcurveto
          endchar
        </CharString>
        <CharString name="circumflex">
          500 521 537 -75 callsubr
          endchar
        </CharString>
        <CharString name="circumflex.cap">
          500 512 500 -67 callsubr
        </CharString>
        <CharString name="circumflex.dup">
          500 521 537 -75 callsubr
          endchar
        </CharString>
        <CharString name="colon">
          300 0 97 237 97 hstem
          112 183 59 callgsubr
          -84 -334 5 callsubr
          endchar
        </CharString>
        <CharString name="colonmonetary">
          700 675 29 hstem
          148 79 vstem
          734 438 rmoveto
          61 244 rlineto
          1 3 1 10 0 vvcurveto
          9 -9 0 0 vhcurveto
          0 -6 0 -7 -9 vhcurveto
          -65 -80 -30 55 -46 30 -59 4 rlinecurve
          2 7 rlineto
          68 callsubr
          -7 96 callsubr
          -2 -7 rlineto
          -197 -11 -202 -219 -231 vvcurveto
          -161 99 -93 119 -9 vhcurveto
          -2 -8 rlineto
          58 callsubr
          7 8 87 callgsubr
          2 7 104 4 75 74 8 7 rlinecurve
          87 86 16 90 0 vvcurveto
          9 -8 0 -6 -8 -4 -1 -9 -3 vhcurveto
          -45 -152 -116 -78 -93 -1 167 667 rcurveline
          1 hlineto
          -63 callgsubr
          -195 235 rmoveto
          -166 -663 rlineto
          -79 11 -67 64 123 vvcurveto
          28 11 171 97 134 vhcurveto
          45 62 78 58 81 12 rrcurveto
          endchar
        </CharString>
        <CharString name="comma">
          300 -172 -21 193 97 hstem
          112 102 vstem
          214 42 rmoveto
          22 -6 33 -37 -32 -27 -28 -31 -28 21 -10 19 23 16 15 0 vhcurveto
          -17 -82 -45 -60 -46 -40 rrcurveto
          -12 -12 -1 -1 -3 vvcurveto
          -4 4 -6 5 17 118 120 115 vhcurveto
          endchar
        </CharString>
        <CharString name="copyleft">
          -61 callgsubr
          -139 -62 rmoveto
          148 74 -63 141 -126 hhcurveto
          -41 -41 -19 -37 -39 hvcurveto
          -16 50 rlineto
          -1 6 -4 0 0 vvcurveto
          0 -6 0 -2 -6 vhcurveto
          0 -3 -6 -2 vvcurveto
          -38 -153 rlineto
          -10 -3 1 -1 6 hhcurveto
          3 5 0 6 3 hvcurveto
          3 6 3 9 6 15 5 9 rlinecurve
          27 13 51 87 81 hhcurveto
          58 36 -40 -43 11 hvcurveto
          19 -84 -47 -107 -9 -18 rrcurveto
          -85 -42 -72 -40 -57 hhcurveto
          -58 -49 49 95 20 hvcurveto
          6 1 -2 1 -5 hhcurveto
          -4 -5 0 -6 -3 hvcurveto
          0 -18 -56 27 -54 vhcurveto
          -4 3 25 -49 68 hhcurveto
          80 98 59 106 54 hvcurveto
          endchar
        </CharString>
        <CharString name="copyright">
          -61 callgsubr
          -135 60 rmoveto
          38 153 rlineto
          1 2 0 6 0 vvcurveto
          6 -5 0 0 vhcurveto
          0 -4 0 -5 -6 vhcurveto
          -40 -50 rlineto
          37 -20 -32 19 -41 hhcurveto
          -126 -133 -141 -148 -106 69 -59 79 69 49 49 4 5 hvcurveto
          54 54 10 56 0 vvcurveto
          6 -5 0 -3 -5 -3 -1 -5 -2 vhcurveto
          -96 -28 -73 -49 -58 hhcurveto
          -57 -52 40 85 18 7 107 61 84 hvcurveto
          43 32 57 40 58 hhcurveto
          80 8 -87 -27 -10 -2 -14 -1 -9 hvcurveto
          -6 vlineto
          -6 5 0 3 6 1 1 10 3 vhcurveto
          endchar
        </CharString>
        <CharString name="copyright.alt">
          646 -107 36 58 18 497 36 hstem
          646 215 rmoveto
          198 -125 125 -198 -198 -125 -125 -198 -198 125 -124 198 198 125 124 198 vhcurveto
          -36 hmoveto
          -176 -111 -110 -176 -176 -111 110 176 176 111 111 176 176 111 -111 -176 vhcurveto
          -71 215 rmoveto
          1 2 0 6 0 vvcurveto
          6 -6 0 0 vhcurveto
          0 -3 0 -5 -6 vhcurveto
          -41 -51 rlineto
          38 -20 -32 19 -41 hhcurveto
          -127 -134 -142 -149 -107 70 -59 80 68 50 49 4 5 hvcurveto
          55 55 10 56 0 vvcurveto
          6 -5 0 -4 -5 -2 -1 -5 -2 vhcurveto
          -97 -29 -73 -49 -59 hhcurveto
          -57 -52 40 86 18 7 107 61 85 hvcurveto
          43 32 58 41 57 hhcurveto
          82 7 -87 -28 -9 -1 -15 -2 -9 hvcurveto
          -6 vlineto
          -6 5 0 3 7 1 1 10 2 vhcurveto
          endchar
        </CharString>
        <CharString name="currency">
          750 64 36 300 36 hstem
          600 40 rmoveto
          12 9 -4 9 -7 9 -49 65 rcurveline
          34 32 26 41 11 45 12 45 -6 41 -18 32 76 60 rcurveline
          13 11 15 12 -13 10 -15 10 -14 -12 -14 -11 -68 -54 rcurveline
          26 -25 -37 16 -45 hhcurveto
          -45 -45 -16 -26 -38 hvcurveto
          -45 59 -3 4 -2 3 -2 2 rlinecurve
          -7 4 -13 1 -11 -9 -11 -9 3 -9 8 -10 48 -64 rcurveline
          -33 -32 -25 -40 -11 -44 -12 -45 6 -41 18 -32 -78 -62 rcurveline
          -10 -9 -17 -13 13 -10 15 -10 16 13 11 9 70 56 rcurveline
          -26 25 37 -16 45 hhcurveto
          44 45 15 26 38 hvcurveto
          41 -55 7 -10 1 -1 3 -2 rlinecurve
          9 -6 14 3 7 6 rrcurveto
          -13 210 rmoveto
          -83 -20 -84 -67 -83 hhcurveto
          -83 -50 67 83 21 hvcurveto
          83 20 84 67 83 hhcurveto
          83 50 -67 -83 -21 hvcurveto
          endchar
        </CharString>
        <CharString name="cwm">
          0 endchar
        </CharString>
        <CharString name="cwmascender">
          0 endchar
        </CharString>
        <CharString name="cwmcapital">
          0 endchar
        </CharString>
        <CharString name="d">
          39 callgsubr
          hstem
          108 62 vstem
          -72 callsubr
          endchar
        </CharString>
        <CharString name="dagger">
          444 -195 -21 613 67 241 -20 hstem
          495 430 rmoveto
          13 3 -1 21 -31 hhcurveto
          -21 -31 -8 -6 -22 hvcurveto
          -4 -1 -26 -7 -21 -2 6 20 8 28 27 65 15 37 15 37 9 37 rrcurveto
          8 2 8 33 -33 hhcurveto
          -34 -8 -32 -9 -2 hvcurveto
          -9 -35 -5 -58 -2 -24 -5 -46 -5 -32 -6 -29 -11 1 -19 4 -17 5 rrcurveto
          6 -18 118 callgsubr
          -3 0 88 callgsubr
          -25 -8 -20 -11 -25 -32 -72 -2 -8 -13 -53 -38 -151 -31 -168 -15 -95 rrcurveto
          -14 -2 -1 -6 11 hhcurveto
          12 1 5 13 6 hvcurveto
          18 50 16 53 15 51 20 63 31 103 24 96 13 54 2 7 4 71 rrcurveto
          23 3 21 4 27 vhcurveto
          83 callsubr
          2 hvcurveto
          endchar
        </CharString>
        <CharString name="daggerdbl">
          444 -184 -21 194 66 389 67 194 -20 hstem
          506 477 rmoveto
          13 4 -1 21 -31 hhcurveto
          -21 -31 -8 -6 -23 hvcurveto
          -3 -1 -27 -7 -20 -2 8 30 16 34 6 14 15 33 17 40 7 28 rrcurveto
          7 1 8 32 -34 hhcurveto
          -10 -23 -3 -36 -9 hvcurveto
          -5 -20 -4 -29 -1 -35 -4 -41 -2 -28 -5 -26 -11 1 -19 4 -18 5 rrcurveto
          6 -17 118 callgsubr
          -4 1 88 callgsubr
          -30 -16 -34 -6 -14 -15 -33 -17 -40 -7 -28 rrcurveto
          -35 -8 21 -4 11 hhcurveto
          30 10 25 14 3 hvcurveto
          5 20 4 29 1 35 4 41 2 28 5 26 83 callsubr
          1 hvcurveto
          -113 -455 rmoveto
          17 4 -8 16 -21 hhcurveto
          -20 -18 -3 -8 -33 hvcurveto
          -28 -8 -7 -2 -23 -2 9 28 10 24 18 42 25 56 5 23 2 5 rrcurveto
          35 8 -21 4 -11 hhcurveto
          -30 -10 -25 -14 -3 hvcurveto
          -8 -29 -2 -43 -3 -34 rrcurveto
          -11 -2 -31 -6 -30 vhcurveto
          -22 2 -3 1 -37 11 rrcurveto
          9 -30 -17 0 -7 hhcurveto
          -25 -14 -20 -13 -3 hvcurveto
          -15 -4 5 -18 24 hhcurveto
          24 26 6 4 12 hvcurveto
          41 10 8 1 17 2 -9 -28 -10 -24 -17 -42 -25 -56 -6 -23 -1 -5 rrcurveto
          -35 -9 21 -4 11 hhcurveto
          30 10 25 14 4 hvcurveto
          7 29 3 43 2 34 rrcurveto
          11 3 31 5 30 vhcurveto
          23 -2 2 -1 38 -11 rrcurveto
          -9 30 18 0 5 hhcurveto
          24 15 18 15 4 hvcurveto
          endchar
        </CharString>
        <CharString name="dblbracketleft">
          412 -249 37 926 37 hstem
          310 -223 rmoveto
          8 -6 4 -10 vhcurveto
          -5 -5 -1 -5 hhcurveto
          -53 hlineto
          231 926 rlineto
          77 hlineto
          12 5 12 15 8 -7 2 -7 hvcurveto
          -208 hlineto
          -13 -2 -11 -11 -2 hvcurveto
          -230 -917 rlineto
          -3 -16 -8 -17 -17 vvcurveto
          -10 8 -1 7 vhcurveto
          206 hlineto
          15 3 12 14 hvcurveto
          -121 11 84 callsubr
        </CharString>
        <CharString name="dblbracketright">
          412 -249 37 926 37 hstem
          454 690 rmoveto
          3 16 8 17 17 vvcurveto
          10 -8 1 -7 vhcurveto
          -206 hlineto
          -14 -4 -15 -11 -9 9 -3 8 hvcurveto
          5 5 1 5 hhcurveto
          52 hlineto
          -231 -926 rlineto
          -76 hlineto
          -12 -5 -12 -15 -8 7 -2 7 hvcurveto
          207 hlineto
          13 2 11 11 2 hvcurveto
          -33 15 84 callsubr
        </CharString>
        <CharString name="dblgrave.ts1">
          500 530 -21 188 -20 hstem
          343 523 rmoveto
          15 callgsubr
          150 hmoveto
          15 callgsubr
          endchar
        </CharString>
        <CharString name="dblverticalbar">
          386 74 callsubr
          105 -217 rmoveto
          3 callgsubr
          108 hmoveto
          3 callgsubr
          endchar
        </CharString>
        <CharString name="dcaron">
          39 callgsubr
          57 -21 144 73 hstem
          108 62 vstem
          -72 callsubr
          256 342 rmoveto
          -93 callgsubr
        </CharString>
        <CharString name="dcroat">
          39 callgsubr
          94 28 hstem
          108 62 vstem
          523 143 rmoveto
          -87 callsubr
          13 5 28 3 13 hvcurveto
          108 431 rlineto
          49 61 callgsubr
          -49 hlineto
          27 108 -15 callsubr
          -5 -2 -8 -1 -4 vhcurveto
          -14 -55 rlineto
          -118 hlineto
          -8 -8 -7 -7 -2 hvcurveto
          58 callsubr
          118 hlineto
          -38 -155 rlineto
          32 -14 -25 29 -43 -26 callgsubr
          -173 -20 rmoveto
          -27 -7 -60 -86 -58 hhcurveto
          -53 -2 78 12 50 32 118 16 40 hvcurveto
          62 26 45 51 43 hhcurveto
          61 6 -93 -3 hvcurveto
          -3 -14 rlineto
          endchar
        </CharString>
        <CharString name="ddotbelow">
          39 callgsubr
          hstemhm
          108 62 vstemhm
          -72 callsubr
          -134 -454 -97 callgsubr
          endchar
        </CharString>
        <CharString name="degree">
          375 433 36 178 36 hstem
          452 558 rmoveto
          69 17 -42 56 -69 hhcurveto
          -69 -70 -56 -69 -17 hvcurveto
          -69 -17 42 -56 69 hhcurveto
          69 70 56 69 17 hvcurveto
          -36 hmoveto
          -49 -12 -50 -40 -49 hhcurveto
          -49 -30 40 49 12 hvcurveto
          49 12 50 40 49 hhcurveto
          49 30 -40 -49 -12 hvcurveto
          endchar
        </CharString>
        <CharString name="diameter">
          750 -30 36 488 36 hstem
          807 532 rmoveto
          10 3 -6 8 -10 hhcurveto
          -5 -5 -2 -3 -4 hvcurveto
          -105 -85 rlineto
          44 -39 -58 26 -70 hhcurveto
          -155 -157 -125 -155 -38 hvcurveto
          -18 -71 10 -65 31 -49 -106 -85 rcurveline
          -4 -4 -3 -4 -1 -5 rrcurveto
          -10 -3 6 -8 10 hhcurveto
          5 5 2 3 4 hvcurveto
          106 85 rlineto
          -43 39 58 -26 71 hhcurveto
          154 157 125 155 39 hvcurveto
          17 71 -10 65 -31 49 105 84 rcurveline
          4 4 3 4 1 5 rrcurveto
          -125 -282 rmoveto
          -135 -34 -137 -109 -134 hhcurveto
          -61 -50 22 37 -34 hvcurveto
          430 344 26 -42 9 -56 -15 -61 rlinecurve
          -39 185 rmoveto
          -430 -345 -26 43 -9 56 16 61 rlinecurve
          135 33 137 109 135 hhcurveto
          60 50 -22 -37 34 hvcurveto
          endchar
        </CharString>
        <CharString name="died">
          500 -5 -21 368 35 -30 35 221 -20 hstemhm
          hintmask 00100000
          551 371 rmoveto
          3 vlineto
          5 -1 -5 3 -5 hhcurveto
          -6 hlineto
          -9 -10 -1 -1 -9 hvcurveto
          hintmask 01010000
          -142 -3 7 20 4 20 5 20 rlinecurve
          32 108 13 39 rlineto
          1 3 1 3 3 vvcurveto
          9 -9 1 -8 vhcurveto
          -26 hlineto
          -21 2 -21 -15 -2 hvcurveto
          -9 -49 -8 -48 -13 -49 -3 -15 -5 -14 -2 -15 rrcurveto
          hintmask 00100000
          -52 -51 5 -52 hhcurveto
          -13 -2 -2 -21 -6 vvcurveto
          hintmask 01000000
          -7 6 -4 7 vhcurveto
          hintmask 10100000
          50 49 5 50 hhcurveto
          -19 -85 -26 -85 -24 -85 -28 -96 rcurveline
          -1 -3 -1 -4 -3 vvcurveto
          -2 vlineto
          -10 12 0 7 vhcurveto
          7 7 1 7 hhcurveto
          6 hlineto
          20 4 63 32 7 hvcurveto
          43 189 12 51 rlineto
          13 3 0 24 17 hhcurveto
          32 hlineto
          hintmask 01000000
          44 45 -5 44 hhcurveto
          16 2 19 10 hvcurveto
          endchar
        </CharString>
        <CharString name="dieresis">
          500 558 87 hstem
          -33 callsubr
          endchar
        </CharString>
        <CharString name="dieresis.cap">
          500 481 87 hstem
          -8 callsubr
          endchar
        </CharString>
        <CharString name="dieresis.dup">
          500 558 87 hstem
          -33 callsubr
          endchar
        </CharString>
        <CharString name="dieresis.ts1">
          500 594 -21 91 67 callsubr
          538 628 rmoveto
          21 -15 16 -21 vhcurveto
          hintmask 11000000
          -3 -3 0 -1 -3 hvcurveto
          -25 -3 -24 -24 -27 vvcurveto
          -21 17 -16 21 29 27 25 30 vhcurveto
          -174 hmoveto
          21 -18 15 -21 vhcurveto
          -6 hlineto
          -25 -3 -24 -23 -27 vvcurveto
          -23 16 -15 24 vhcurveto
          4 hlineto
          26 4 24 24 27 vvcurveto
          endchar
        </CharString>
        <CharString name="discount">
          500 11 114 -103 -21 626 114 9 -20 21 -20 hstemhm
          272 118 -93 117 hintmask 00001000
          606 732 rmoveto
          3 vlineto
          9 -1 -8 7 -9 hhcurveto
          hintmask 01010000
          -4 -1 -13 -4 -11 -21 -8 -13 rlinecurve
          -159 -221 -146 -230 -158 -221 rrcurveto
          -4 -6 -5 -7 -8 vvcurveto
          -10 9 -8 10 vhcurveto
          15 2 13 24 9 14 440 641 rcurveline
          10 14 20 21 15 vvcurveto
          -216 -38 rmoveto
          hintmask 10100100
          -36 -33 -31 -36 -25 -24 19 29 34 29 27 32 5 vhcurveto
          3 2 1 3 hhcurveto
          27 22 -21 -27 hvcurveto
          24 -618 rmoveto
          -35 -33 -29 -34 -1 vhcurveto
          -5 hlineto
          hintmask 10000010
          -29 -16 24 25 35 32 29 34 1 hvcurveto
          3 hlineto
          28 20 -23 -26 hvcurveto
          endchar
        </CharString>
        <CharString name="divide">
          750 59 97 76 37 76 97 hstem
          cntrmask 11100000
          736 250 54 callsubr
          -214 153 5 callsubr
          -71 -286 5 callsubr
          endchar
        </CharString>
        <CharString name="divorced">
          500 -83 -21 140 40 350 40 140 -20 21 -20 hstemhm
          -91 38 260 32 146 32 259 39 hintmask 0110111110000000
          239 316 rmoveto
          66 -30 84 -84 vhcurveto
          -9 hlineto
          -121 -14 -86 -153 -104 vvcurveto
          -30 vlineto
          -60 6 31 -69 79 hhcurveto
          8 hlineto
          117 12 89 149 119 vvcurveto
          476 -7 rmoveto
          67 -16 63 -76 25 vhcurveto
          1 -8 -9 1 -8 hhcurveto
          -9 hlineto
          -126 -14 -72 -159 -6 -106 rrcurveto
          -66 28 -85 85 vhcurveto
          8 hlineto
          127 12 82 164 97 vvcurveto
          -287 288 rmoveto
          9 -2 -12 1 -7 hhcurveto
          hintmask 1111011110000000
          -6 -6 -1 -5 hhcurveto
          -8 hlineto
          -3 -2 0 -1 -2 hvcurveto
          -11 -4 1 -24 -3 -14 -34 -184 -49 -180 -51 -180 -24 -84 rcurveline
          -3 -10 -4 -9 -10 vvcurveto
          -4 vlineto
          -4 2 5 -2 4 hhcurveto
          32 hlineto
          21 -1 27 15 3 hvcurveto
          38 206 53 208 60 197 rrcurveto
          4 14 10 19 15 vvcurveto
          -222 -293 rmoveto
          -7 -77 -32 -81 -66 -45 rrcurveto
          -14 -21 -26 -11 -25 hhcurveto
          -14 -14 3 8 -12 hvcurveto
          -15 12 rlineto
          -19 23 -8 27 30 vvcurveto
          95 63 152 112 vhcurveto
          5 hlineto
          58 -7 22 -48 -50 vvcurveto
          -6 0 -5 -1 -6 vhcurveto
          469 -1 rmoveto
          -92 -10 -56 -135 -107 hhcurveto
          -54 -31 49 58 97 67 146 110 47 35 -39 -62 -7 0 -8 -1 -7 hvcurveto
          endchar
        </CharString>
        <CharString name="dlinebelow">
          500 -165 28 127 36 callsubr
          hstemhm
          108 62 hintmask 01110000
          -72 callsubr
          hintmask 10000000
          -21 -458 -82 callsubr
        </CharString>
        <CharString name="dollar">
          490 -35 -21 197 83 260 83 107 29 47 -20 hstem
          573 560 rmoveto
          6 81 -47 57 -97 6 11 46 rcurveline
          -29 hlineto
          -11 -46 -116 -9 -104 -103 -9 -107 rlinecurve
          -5 -63 29 -35 9 -12 26 -32 32 -8 43 -12 -76 -304 rcurveline
          -64 4 -61 29 5 93 rrcurveto
          -3 6 6 -1 6 hhcurveto
          23 25 19 29 3 hvcurveto
          18 1 -9 17 -26 hhcurveto
          -50 -5 -57 -24 -2 hvcurveto
          -9 -110 75 -39 68 -4 -11 -46 rcurveline
          29 hlineto
          8 31 4 14 1 1 2 1 rlinecurve
          148 22 73 125 8 90 2 22 3 48 -36 46 -28 37 -37 9 -34 8 68 277 rcurveline
          124 -6 -1 -85 -20 vvcurveto
          1 -4 -5 2 -8 hhcurveto
          -24 -24 -20 -28 -3 hvcurveto
          -20 -1 11 -15 24 hhcurveto
          49 6 56 20 2 hvcurveto
          -242 -154 rmoveto
          -28 7 -78 20 7 87 6 65 65 78 95 11 rrcurveto
          36 -481 rmoveto
          -6 -76 -69 -85 -95 -12 73 295 rcurveline
          20 -4 85 -17 -8 -101 rrcurveto
          endchar
        </CharString>
        <CharString name="dollar.oldstyle">
          598 -34 -21 45 30 122 84 258 83 108 29 47 -20 hstem
          138 52 335 52 33 23 vstem
          577 219 rmoveto
          83 -58 53 -74 27 vhcurveto
          -15 4 rlineto
          0 45 263 2 23 vhcurveto
          49 -14 58 -9 20 -56 rrcurveto
          3 -9 3 -9 -9 vvcurveto
          1 -5 -6 0 -5 hhcurveto
          -27 -21 -19 -28 -18 10 -14 22 -4 hvcurveto
          50 5 41 31 91 -75 46 -76 7 hvcurveto
          8 51 rlineto
          -29 hlineto
          -7 -47 rlineto
          -76 hlineto
          7 47 rlineto
          -29 hlineto
          -8 -53 rlineto
          -92 -12 -118 -84 -108 vvcurveto
          -82 78 -64 72 -10 vhcurveto
          -52 -313 -59 13 -65 23 -8 84 rlinecurve
          -2 5 6 -1 6 hhcurveto
          26 22 20 28 19 -11 12 -24 5 hvcurveto
          -2 hlineto
          -36 -14 -33 -33 hvcurveto
          -13 vlineto
          -93 67 -39 82 -19 vhcurveto
          -9 -51 rlineto
          29 hlineto
          8 48 rlineto
          -2 10 11 -1 10 hhcurveto
          15 15 2 1 15 hvcurveto
          -8 -48 rlineto
          31 hlineto
          8 53 12 2 12 4 10 4 rlinecurve
          87 29 90 81 101 vvcurveto
          -175 175 rmoveto
          -73 19 45 259 19 3 rlineto
          56 hlineto
          -148 -256 rmoveto
          -45 7 -66 42 56 vvcurveto
          79 84 50 69 15 vhcurveto
          182 -481 rmoveto
          -81 -81 -58 -74 -19 vhcurveto
          46 274 rlineto
          50 -14 59 -38 -64 vvcurveto
          -185 -164 rmoveto
          0 -22 -3 -18 vhcurveto
          -12 -12 1 -12 hhcurveto
          52 309 72 -19 rlineto
          endchar
        </CharString>
        <CharString name="dong">
          500 -28 28 656 28 hstem
          506 171 rmoveto
          8 -9 0 -4 -11 -1 -1 -22 -6 vhcurveto
          -79 -19 -18 -33 -27 hhcurveto
          -20 -5 20 18 13 5 26 2 12 hvcurveto
          103 410 rlineto
          46 hlineto
          8 7 6 7 2 hvcurveto
          95 callgsubr
          -46 hlineto
          25 102 rlineto
          1 6 2 4 2 vvcurveto
          9 -6 1 -16 -1 vhcurveto
          -95 -9 rlineto
          -13 -9 -1 -18 -9 8 0 13 48 0 -9 -9 -5 -2 -7 -1 -4 hvcurveto
          -13 -52 rlineto
          -113 hlineto
          -7 -8 -7 -7 -1 hvcurveto
          -7 -2 4 -6 8 hhcurveto
          112 hlineto
          -36 -147 rlineto
          30 -13 -24 28 -41 hhcurveto
          -103 -110 -146 -138 -85 45 -60 65 38 39 25 43 37 hvcurveto
          -58 10 43 -10 22 hhcurveto
          37 19 28 27 12 hvcurveto
          16 34 12 54 3 vvcurveto
          -46 -185 rmoveto
          8 2 -5 6 -7 hhcurveto
          -376 hlineto
          -8 -7 -6 -8 -2 hvcurveto
          81 callsubr
          376 hlineto
          7 8 87 callgsubr
          -119 166 rmoveto
          -26 -6 -57 -82 -56 hhcurveto
          -50 -2 74 12 47 31 112 15 38 hvcurveto
          59 24 43 49 41 hhcurveto
          58 6 -89 -3 hvcurveto
          -3 -13 rlineto
          endchar
        </CharString>
        <CharString name="dotaccent">
          300 553 97 hstem
          350 610 -97 callgsubr
          endchar
        </CharString>
        <CharString name="dotaccent.alt">
          300 339 565 -97 callgsubr
          endchar
        </CharString>
        <CharString name="dotaccent.cap">
          300 481 97 hstem
          333 538 -97 callgsubr
          endchar
        </CharString>
        <CharString name="dotlessi">
          300 -48 callgsubr
          hstem
          34 callgsubr
          vstem
          323 143 -101 callsubr
          endchar
        </CharString>
        <CharString name="dotlessj">
          50 callsubr
          hstem
          107 callgsubr
          vstem
          -71 callsubr
          endchar
        </CharString>
        <CharString name="e">
          -28 callgsubr
          hstem
          114 63 242 34 vstem
          -101 callgsubr
          endchar
        </CharString>
        <CharString name="eacute">
          -28 callgsubr
          87 -21 189 61 callsubr
          hintmask 11100110
          -101 callgsubr
          hintmask 00011000
          87 310 -94 callsubr
        </CharString>
        <CharString name="ebreve">
          -28 callgsubr
          76 33 137 61 callsubr
          hintmask 11100110
          -101 callgsubr
          hintmask 00011000
          110 319 -88 callgsubr
        </CharString>
        <CharString name="ecaron">
          -28 callgsubr
          9 callgsubr
          vstemhm
          -101 callgsubr
          111 307 -69 callgsubr
        </CharString>
        <CharString name="ecircumflex">
          -28 callgsubr
          9 callgsubr
          vstemhm
          -101 callgsubr
          77 178 -75 callsubr
          endchar
        </CharString>
        <CharString name="ecircumflexacute">
          -28 callgsubr
          374 61 callsubr
          hintmask 11101100
          -101 callgsubr
          hintmask 00010000
          77 179 -103 callsubr
          25 246 -104 callgsubr
        </CharString>
        <CharString name="ecircumflexdotbelow">
          -28 callgsubr
          9 callgsubr
          vstemhm
          -101 callgsubr
          77 178 -75 callsubr
          -259 -680 -97 callgsubr
          endchar
        </CharString>
        <CharString name="ecircumflexgrave">
          -28 callgsubr
          9 callgsubr
          vstemhm
          -101 callgsubr
          77 179 -77 callsubr
        </CharString>
        <CharString name="ecircumflexhookabove">
          -28 callgsubr
          408 61 callsubr
          hintmask 11101100
          -101 callgsubr
          hintmask 00010100
          77 179 -103 callsubr
          99 243 -107 callsubr
        </CharString>
        <CharString name="ecircumflextilde">
          -28 callgsubr
          237 -21 callgsubr
          114 63 242 34 hintmask 1110000110000000
          -101 callgsubr
          hintmask 0000100000000000
          77 179 -103 callsubr
          68 227 rmoveto
          8 -10 1 0 -5 -7 -6 -6 -6 vhcurveto
          hintmask 0001001010000000
          -87 callgsubr
          hintmask 0000010000000000
          -3 3 -6 6 4 2 0 13 13 vhcurveto
          hintmask 0001001000000000
          -92 callsubr
        </CharString>
        <CharString name="edblgrave">
          -28 callgsubr
          87 -21 189 61 callsubr
          hintmask 11100110
          -101 callgsubr
          hintmask 00011000
          50 162 -102 callsubr
        </CharString>
        <CharString name="edieresis">
          -28 callgsubr
          117 87 9 callgsubr
          hintmask 11101100
          -101 callgsubr
          hintmask 00010000
          -79 250 -52 callsubr
        </CharString>
        <CharString name="edotaccent">
          -28 callgsubr
          112 97 9 callgsubr
          hintmask 11101100
          -101 callgsubr
          hintmask 00010000
          6 251 -97 callgsubr
          endchar
        </CharString>
        <CharString name="edotbelow">
          -28 callgsubr
          9 callgsubr
          vstemhm
          -101 callgsubr
          -182 -502 -97 callgsubr
          endchar
        </CharString>
        <CharString name="egrave">
          -28 callgsubr
          87 -21 189 61 callsubr
          hintmask 11100110
          -101 callgsubr
          hintmask 00011000
          -7 163 rmoveto
          -72 callgsubr
        </CharString>
        <CharString name="ehookabove">
          -28 callgsubr
          76 -21 211 61 callsubr
          hintmask 11100110
          -101 callgsubr
          hintmask 00011000
          54 280 -107 callsubr
        </CharString>
        <CharString name="eight">
          500 -21 27 635 24 hstem
          96 46 67 51 168 55 19 42 vstem
          483 -59 callgsubr
        </CharString>
        <CharString name="eight.oldstyle">
          508 -21 27 635 24 hstem
          100 46 67 51 168 55 19 42 vstem
          487 -59 callgsubr
        </CharString>
        <CharString name="eight.prop">
          508 -21 27 635 24 hstem
          100 46 67 51 168 55 19 42 vstem
          487 -59 callgsubr
        </CharString>
        <CharString name="eight.taboldstyle">
          500 -21 27 635 24 hstem
          96 46 67 51 168 55 19 42 vstem
          483 -59 callgsubr
        </CharString>
        <CharString name="ellipsis">
          658 0 97 hstem
          212 58 5 callsubr
          179 hmoveto
          -10 callgsubr
          179 hmoveto
          -10 callgsubr
          endchar
        </CharString>
        <CharString name="emacron">
          -28 callgsubr
          147 28 9 callgsubr
          hintmask 11101100
          -101 callgsubr
          hintmask 00010000
          119 247 -82 callsubr
        </CharString>
        <CharString name="emdash">
          1000 277 -21 hstem
          117 898 vstem
          1015 266 rmoveto
          16 callgsubr
          vhcurveto
          -850 124 callgsubr
          850 hlineto
          15 9 0 10 hvcurveto
          endchar
        </CharString>
        <CharString name="emdash.alt">
          700 278 -21 hstem
          715 268 rmoveto
          8 -8 1 -8 vhcurveto
          -569 hlineto
          -3 -2 0 -1 -2 hvcurveto
          -4 -2 -2 -3 -4 vvcurveto
          -6 5 -4 6 vhcurveto
          572 hlineto
          6 9 3 8 hvcurveto
          endchar
        </CharString>
        <CharString name="endash">
          500 277 -21 hstem
          92 448 vstem
          540 266 rmoveto
          16 callgsubr
          vhcurveto
          -400 124 callgsubr
          400 hlineto
          15 9 0 10 hvcurveto
          endchar
        </CharString>
        <CharString name="eng">
          486 -215 60 596 -20 hstem
          450 57 vstem
          507 339 rmoveto
          -84 callsubr
          -77 -42 -79 -20 -79 hvcurveto
          -27 -107 -34 -135 -41 -47 rrcurveto
          9 -3 -8 6 -11 hhcurveto
          -17 -17 -14 -16 -4 hvcurveto
          -17 -4 10 -13 17 hhcurveto
          115 46 181 153 38 hvcurveto
          18 74 41 74 72 vvcurveto
          endchar
        </CharString>
        <CharString name="eogonek">
          450 441 -20 hstem
          -22 callgsubr
          endchar
        </CharString>
        <CharString name="eogonekacute">
          450 441 -20 107 97 callgsubr
          hstemhm
          hintmask 10000000
          -22 callgsubr
          hintmask 01100000
          87 310 -94 callsubr
        </CharString>
        <CharString name="equal">
          750 138 37 149 37 hstem
          114 645 vstem
          759 342 54 callsubr
          -46 -186 rmoveto
          19 -17 0 -15 vhcurveto
          -535 hlineto
          -13 94 callsubr
          14 hvcurveto
          535 hlineto
          14 18 40 callgsubr
        </CharString>
        <CharString name="ereversed">
          -28 callgsubr
          hstem
          462 163 rmoveto
          176 88 -88 102 -104 hhcurveto
          -59 -56 -38 -45 -23 hvcurveto
          -126 -63 188 0 35 hhcurveto
          36 hlineto
          -9 -39 -7 -28 -22 -44 rrcurveto
          -32 -16 -49 -79 -66 hhcurveto
          -51 -61 28 72 -17 hvcurveto
          9 -3 -1 1 -3 hhcurveto
          -6 -12 -8 -7 -3 hvcurveto
          -14 -7 31 -101 124 hhcurveto
          85 88 72 101 51 hvcurveto
          -42 89 rmoveto
          -21 hlineto
          -32 -166 0 107 54 hvcurveto
          34 17 37 28 40 hhcurveto
          18 93 -10 -159 -40 hvcurveto
          endchar
        </CharString>
        <CharString name="estimated">
          655 -9 22 686 -20 hstem
          123 80 434 75 vstem
          633 121 rmoveto
          6 -7 3 -6 -14 -5 -14 -9 -8 vhcurveto
          -64 -52 -91 -30 -81 hhcurveto
          -118 -48 96 99 42 5 49 13 39 hvcurveto
          7 7 2 6 vhcurveto
          427 hlineto
          4 5 -1 5 hhcurveto
          36 1 131 11 hvcurveto
          1 vlineto
          138 -83 72 -123 vhcurveto
          -11 hlineto
          -214 -22 -158 -235 -195 vvcurveto
          -121 74 -135 151 97 101 24 74 67 vhcurveto
          8 8 12 15 9 vvcurveto
          -12 266 rmoveto
          -9 -4 3 -12 -15 hhcurveto
          -377 hlineto
          27 107 56 107 93 62 rrcurveto
          21 32 39 16 38 hhcurveto
          97 27 -91 -72 -44 -6 -42 -10 -43 hvcurveto
          endchar
        </CharString>
        <CharString name="eth">
          500 -10 22 413 20 hstem
          96 66 281 79 vstem
          522 354 rmoveto
          110 -40 95 -72 65 vhcurveto
          76 38 rlineto
          8 4 4 7 6 vvcurveto
          6 -5 6 -7 vhcurveto
          0 -5 -1 -3 -1 vhcurveto
          -91 -46 -30 21 -33 18 -37 12 rlinecurve
          -7 2 -9 -9 -8 vvcurveto
          -3 2 -4 4 -2 vhcurveto
          25 -14 22 -16 20 -19 -82 -41 rcurveline
          -7 -4 -4 -6 -6 vvcurveto
          -7 4 -5 8 vhcurveto
          0 5 0 3 2 vhcurveto
          93 47 49 -57 29 -73 6 -82 rlinecurve
          43 -23 -34 13 -32 hhcurveto
          -131 -132 -152 -140 -94 60 -69 91 75 81 48 74 52 hvcurveto
          61 88 6 121 33 vvcurveto
          -79 -48 rmoveto
          -53 -25 -99 -28 -48 vhcurveto
          -81 -48 -60 -13 -29 hhcurveto
          -41 -50 26 82 51 26 97 20 45 hvcurveto
          73 34 63 39 50 hhcurveto
          63 25 -60 -59 hvcurveto
          endchar
        </CharString>
        <CharString name="etilde">
          -28 callgsubr
          112 -21 callgsubr
          114 63 242 34 hintmask 1110000110000000
          -101 callgsubr
          hintmask 0000100000000000
          115 281 rmoveto
          8 -10 1 0 -5 -7 -6 -6 -6 vhcurveto
          hintmask 0001001000000000
          -87 callgsubr
          hintmask 0000010000000000
          -3 3 -6 6 4 2 0 13 13 vhcurveto
          hintmask 0001001000000000
          -92 callsubr
        </CharString>
        <CharString name="eturned">
          -10 callsubr
        </CharString>
        <CharString name="exclam">
          300 0 97 104 -21 535 -20 hstem
          112 99 vstem
          361 655 rmoveto
          5 14 0 2 6 vvcurveto
          31 -26 7 -14 -5 -46 -2 -53 -9 vhcurveto
          -81 -456 rlineto
          -2 -10 82 callgsubr
          -8 3 -3 11 8 4 1 15 5 vhcurveto
          -3 -139 -97 callgsubr
          endchar
        </CharString>
        <CharString name="exclamdown">
          300 -194 -21 535 -20 103 97 hstem
          213 99 vstem
          312 460 rmoveto
          27 -21 13 -19 -30 -29 -27 -30 -28 20 -12 20 30 29 28 29 vhcurveto
          -154 -620 rmoveto
          81 456 rlineto
          2 10 47 callgsubr
          8 -3 3 -11 -8 -4 -1 -15 -5 vhcurveto
          -147 -459 rlineto
          -5 -14 0 -2 -6 vvcurveto
          -31 26 -7 14 5 46 2 53 9 vhcurveto
          endchar
        </CharString>
        <CharString name="f">
          -29 callgsubr
        </CharString>
        <CharString name="f_f">
          600 -183 -21 606 29 160 72 41 -20 hstem
          -27 77 153 77 164 77 148 77 vstem
          746 641 rmoveto
          42 -43 21 -43 -99 -25 -125 -36 -7 vhcurveto
          -22 -112 rlineto
          -230 hlineto
          11 51 13 80 15 49 11 33 7 6 12 10 rrcurveto
          8 11 23 16 36 hhcurveto
          14 31 -2 -17 21 hvcurveto
          -26 -6 -12 -21 -18 90 callsubr
          41 -44 22 -61 -132 -33 -97 -73 -14 vhcurveto
          -20 -103 -42 callsubr
          229 hlineto
          -67 -343 -9 -48 -19 -87 -17 -39 rlinecurve
          0 -37 -69 -54 -19 -23 6 12 -14 vhcurveto
          22 6 16 18 22 vvcurveto
          19 -14 10 -17 -25 -21 -21 -29 -44 49 -19 45 71 53 62 29 17 vhcurveto
          36 60 27 141 1 5 60 309 rcurveline
          78 36 callgsubr
          -7 0 -17 hvcurveto
          -76 hlineto
          10 46 18 102 14 53 rrcurveto
          33 9 22 19 20 hhcurveto
          4 27 0 -19 17 hvcurveto
          -30 -7 -9 -24 -14 90 callsubr
          vhcurveto
          endchar
        </CharString>
        <CharString name="f_f_i">
          863 -204 20 174 20 392 29 150 81 22 20 hstemhm
          -27 77 0 78 75 77 189 77 159 55 61 78 hintmask 1111101011100000
          886 31 callsubr
          -247 hlineto
          198 35 10 55 133 hhcurveto
          17 63 0 -29 26 117 callgsubr
          21 25 17 36 70 -116 0 -29 -101 -87 -25 -151 -30 vhcurveto
          -19 -97 rlineto
          -239 hlineto
          14 78 15 76 14 37 rrcurveto
          56 22 60 6 27 hhcurveto
          7 43 0 -19 26 hvcurveto
          -20 -5 -17 -17 -23 90 callsubr
          52 -68 11 -49 -145 -29 -94 -69 -16 vhcurveto
          -22 -110 rlineto
          -63 -33 callgsubr
          hvcurveto
          59 hlineto
          -69 -355 -9 -49 -11 -48 -12 -48 rlinecurve
          -36 -10 -13 -50 -35 hhcurveto
          -8 -23 3 16 -12 hvcurveto
          37 7 4 30 8 vvcurveto
          19 -14 10 -17 vhcurveto
          hintmask 1110010101000000
          -23 -23 -18 -33 -39 38 -23 40 87 44 144 142 28 hvcurveto
          62 320 rlineto
          239 hlineto
          -67 -346 -10 -53 -15 -76 -22 -44 rlinecurve
          -7 -4 -38 -60 -52 hhcurveto
          -6 71 callsubr
          -47 55 -16 44 36 91 19 134 46 vhcurveto
          11 33 10 34 7 35 69 351 rcurveline
          210 -5 callgsubr
          -53 34 -35 46 39 20 29 29 13 vhcurveto
          17 35 12 57 3 vvcurveto
          endchar
        </CharString>
        <CharString name="f_f_l">
          875 85 callgsubr
          160 20 73 20 hstem
          -27 77 153 77 164 77 196 55 vstem
          898 1 callgsubr
          -240 hlineto
          11 51 13 80 15 49 11 33 7 6 12 10 rrcurveto
          8 11 23 16 36 hhcurveto
          14 31 -2 -17 21 hvcurveto
          -26 -6 -12 -21 -18 90 callsubr
          41 -44 22 -61 -132 -33 -97 -73 -14 vhcurveto
          -20 -103 -42 callsubr
          239 hlineto
          -66 -340 -12 -60 -11 -56 -20 -50 rlinecurve
          -24 -9 -39 -56 -52 hhcurveto
          -5 71 callsubr
          -45 52 -18 47 55 50 37 42 32 vhcurveto
          41 55 29 150 3 13 60 309 rcurveline
          222 -5 callgsubr
          -53 34 -35 46 39 20 29 29 13 vhcurveto
          17 35 12 57 3 vvcurveto
          -97 -6 callgsubr
        </CharString>
        <CharString name="f_i">
          550 85 callgsubr
          150 73 30 20 hstemhm
          -27 77 0 78 264 55 61 78 hintmask 1111110111000000
          573 31 callsubr
          -235 hlineto
          8 37 1 11 9 45 rrcurveto
          97 20 13 63 121 hhcurveto
          15 60 0 -29 25 117 callgsubr
          23 23 19 33 71 -114 0 -24 -114 -71 -40 -135 -27 vhcurveto
          -19 -98 52 callgsubr
          -373 -12 -63 -13 -49 -6 -22 rlinecurve
          -31 -8 -12 -48 -3 callsubr
          vhcurveto
          hintmask 1011001010000000
          -23 -23 -18 -33 -39 37 -23 41 81 47 126 161 31 hvcurveto
          62 319 rlineto
          197 -5 callgsubr
          -53 34 -35 46 39 20 29 29 13 vhcurveto
          17 35 12 57 3 vvcurveto
          endchar
        </CharString>
        <CharString name="f_k">
          774 -204 20 174 20 392 29 -10 20 150 20 73 20 hstemhm
          -27 77 563 60 68 77 hintmask 0101010110000000
          797 143 rmoveto
          79 callsubr
          -1 -23 -6 vhcurveto
          -57 -14 -19 -61 -43 hhcurveto
          -18 -12 11 31 22 0 2 9 35 hvcurveto
          5 19 0 4 11 vvcurveto
          75 -85 21 -46 8 vhcurveto
          29 16 20 23 40 47 rrcurveto
          44 36 40 42 46 hhcurveto
          20 9 -11 -2 1 hvcurveto
          -34 -5 -8 -25 -15 vvcurveto
          -21 16 -8 15 23 23 19 32 26 -19 30 -44 -59 -44 -53 -46 -39 vhcurveto
          -56 -67 -20 -8 -18 -8 103 412 rcurveline
          2 6 1 4 3 vvcurveto
          9 -7 1 -15 vhcurveto
          -15 hlineto
          -20 -1 -1 -18 -5 hvcurveto
          -8 -32 rlineto
          -1 hlineto
          29 -2 -21 32 -97 hhcurveto
          -121 -53 -59 -111 -22 hvcurveto
          hintmask 1110111100000000
          -20 -103 52 callgsubr
          -373 -12 -63 -13 -49 -6 -22 rlinecurve
          -31 -8 -12 -48 -3 callsubr
          -23 -23 -18 -33 -39 37 -23 41 81 47 126 161 31 vhcurveto
          62 319 rlineto
          222 hlineto
          -92 -369 rlineto
          121 callsubr
          -3 vvcurveto
          -13 9 -12 17 28 6 26 7 2 vhcurveto
          52 207 rlineto
          24 -3 77 -16 -67 vvcurveto
          -5 0 -5 -2 -10 vhcurveto
          -5 -20 0 -5 -14 vvcurveto
          -71 44 -24 37 37 24 26 32 17 vhcurveto
          19 34 13 56 5 vvcurveto
          -296 -6 callgsubr
        </CharString>
        <CharString name="f_l">
          575 85 callgsubr
          160 20 73 20 hstem
          -27 77 367 55 vstem
          598 1 callgsubr
          -63 -33 callgsubr
          hvcurveto
          59 hlineto
          -73 -373 -12 -63 -13 -49 -6 -22 rlinecurve
          -31 -8 -12 -48 -3 callsubr
          -23 -23 -18 -33 -39 37 -23 41 81 47 126 161 31 vhcurveto
          62 319 rlineto
          222 -5 callgsubr
          -53 34 -35 46 39 20 29 29 13 vhcurveto
          17 35 12 57 3 vvcurveto
          -97 -6 callgsubr
        </CharString>
        <CharString name="five">
          500 -21 27 315 78 0 111 callsubr
          hstemhm
          105 86 232 65 hintmask 00111000
          488 266 -46 callsubr
          hintmask 11000110
          -42 callgsubr
        </CharString>
        <CharString name="five.oldstyle">
          494 -215 27 393 111 callsubr
          hstem
          54 86 232 65 vstem
          437 72 -46 callsubr
          -42 callgsubr
        </CharString>
        <CharString name="five.prop">
          494 -21 27 315 78 0 111 callsubr
          hstemhm
          102 86 232 65 hintmask 00111000
          485 266 -46 callsubr
          hintmask 11000110
          -42 callgsubr
        </CharString>
        <CharString name="five.taboldstyle">
          500 -215 27 393 111 callsubr
          hstem
          57 86 232 65 vstem
          440 72 -46 callsubr
          -42 callgsubr
        </CharString>
        <CharString name="florin">
          -29 callgsubr
        </CharString>
        <CharString name="four">
          500 87 callsubr
          463 -40 callgsubr
        </CharString>
        <CharString name="four.oldstyle">
          491 125 callgsubr
          460 -36 callsubr
        </CharString>
        <CharString name="four.prop">
          488 87 callsubr
          459 -40 callgsubr
        </CharString>
</ttFont>
